<svg width="88" height="90" viewBox="0 0 88 90" fill="none" xmlns="http://www.w3.org/2000/svg">
<g clip-path="url(#clip0_590_710)">
<path d="M35.0353 76.7708C34.198 76.7715 33.3792 76.5303 32.6827 76.0779C31.9861 75.6255 31.443 74.982 31.1221 74.229C30.8011 73.476 30.7168 72.6473 30.8797 71.8476C31.0427 71.048 31.4456 70.3133 32.0374 69.7366C32.6293 69.1599 33.3835 68.7671 34.2047 68.6078C35.0259 68.4485 35.8772 68.5299 36.6509 68.8417C37.4246 69.1535 38.0859 69.6818 38.5512 70.3596C39.0164 71.0374 39.2648 71.8343 39.2648 72.6495C39.2639 73.7417 38.8181 74.7889 38.0252 75.5615C37.2323 76.3341 36.1571 76.769 35.0353 76.7708ZM35.0353 69.3614C34.3674 69.3614 33.7144 69.5543 33.159 69.9156C32.6036 70.2769 32.1707 70.7904 31.9151 71.3912C31.6595 71.9921 31.5926 72.6532 31.723 73.291C31.8533 73.9289 32.1749 74.5147 32.6472 74.9746C33.1195 75.4344 33.7213 75.7476 34.3764 75.8745C35.0316 76.0014 35.7106 75.9362 36.3277 75.6874C36.9449 75.4385 37.4723 75.0171 37.8434 74.4763C38.2145 73.9356 38.4126 73.2999 38.4126 72.6495C38.4117 71.7778 38.0555 70.9419 37.4224 70.3255C36.7892 69.7091 35.9307 69.3623 35.0353 69.3614Z" fill="white"/>
<path d="M44.0025 88.3181C43.1652 88.3181 42.3466 88.0764 41.6504 87.6234C40.9542 87.1704 40.4117 86.5265 40.0914 85.7733C39.7711 85.02 39.6875 84.1912 39.8511 83.3917C40.0147 82.5921 40.4182 81.8578 41.0106 81.2816C41.6029 80.7053 42.3575 80.3131 43.1788 80.1545C44.0002 79.9958 44.8514 80.0779 45.6248 80.3904C46.3982 80.7028 47.0591 81.2316 47.5238 81.9098C47.9885 82.588 48.2362 83.3851 48.2355 84.2003C48.2336 85.2925 47.787 86.3393 46.9934 87.1113C46.1999 87.8832 45.1243 88.3172 44.0025 88.3181ZM44.0025 80.9122C43.3346 80.9122 42.6816 81.1051 42.1262 81.4664C41.5708 81.8277 41.1379 82.3412 40.8823 82.942C40.6267 83.5429 40.5598 84.204 40.6901 84.8418C40.8205 85.4796 41.1421 86.0655 41.6144 86.5254C42.0867 86.9852 42.6885 87.2984 43.3436 87.4253C43.9988 87.5521 44.6778 87.487 45.2949 87.2382C45.9121 86.9893 46.4395 86.5678 46.8106 86.0271C47.1817 85.4864 47.3798 84.8507 47.3798 84.2003C47.3812 83.7675 47.2948 83.3387 47.1258 82.9384C46.9567 82.5381 46.7082 82.1741 46.3945 81.8675C46.0808 81.5608 45.7081 81.3173 45.2976 81.1511C44.8872 80.9848 44.4471 80.899 44.0025 80.8986V80.9122Z" fill="white"/>
<path d="M44.0023 53.6175C42.4495 53.6148 40.9325 53.164 39.6429 52.322C38.3533 51.48 37.3491 50.2847 36.7571 48.8871C36.1651 47.4896 36.012 45.9525 36.3172 44.4702C36.6223 42.988 37.372 41.6271 38.4714 40.5596C39.5708 39.492 40.9706 38.7658 42.4939 38.4727C44.0171 38.1796 45.5954 38.3328 47.0293 38.9129C48.4632 39.4929 49.6882 40.4739 50.5496 41.7317C51.4109 42.9895 51.8699 44.4677 51.8685 45.9794C51.8639 48.0073 51.033 49.9505 49.5582 51.3826C48.0833 52.8146 46.0852 53.6184 44.0023 53.6175ZM44.0023 39.1505C42.615 39.1505 41.2589 39.551 40.1055 40.3014C38.952 41.0518 38.053 42.1183 37.5221 43.3661C36.9912 44.6139 36.8523 45.987 37.123 47.3116C37.3936 48.6363 38.0616 49.8531 39.0426 50.8081C40.0235 51.7632 41.2733 52.4136 42.6339 52.6771C43.9945 52.9406 45.4048 52.8053 46.6864 52.2885C47.9681 51.7716 49.0635 50.8963 49.8342 49.7733C50.605 48.6503 51.0163 47.33 51.0163 45.9794C51.0163 44.1683 50.2773 42.4313 48.962 41.1506C47.6466 39.87 45.8625 39.1505 44.0023 39.1505Z" fill="white"/>
<path d="M53.1207 76.7708C52.2835 76.7708 51.4651 76.5291 50.769 76.0762C50.0728 75.6234 49.5303 74.9797 49.2099 74.2267C48.8895 73.4736 48.8057 72.645 48.969 71.8455C49.1324 71.0461 49.5355 70.3118 50.1275 69.7354C50.7195 69.159 51.4737 68.7665 52.2949 68.6075C53.116 68.4485 53.9671 68.5301 54.7406 68.842C55.5141 69.154 56.1751 69.6822 56.6403 70.3599C57.1054 71.0377 57.3537 71.8344 57.3537 72.6495C57.3527 73.7423 56.9065 74.79 56.1128 75.5627C55.3192 76.3354 54.2431 76.7699 53.1207 76.7708ZM53.1207 69.3614C52.4527 69.3614 51.7998 69.5543 51.2444 69.9156C50.689 70.2769 50.2561 70.7904 50.0005 71.3912C49.7449 71.9921 49.678 72.6532 49.8083 73.291C49.9386 73.9289 50.2603 74.5147 50.7326 74.9746C51.2049 75.4344 51.8067 75.7476 52.4618 75.8745C53.1169 76.0014 53.796 75.9362 54.4131 75.6874C55.0302 75.4385 55.5577 75.0171 55.9288 74.4763C56.2999 73.9356 56.4979 73.2999 56.4979 72.6495C56.497 71.7778 56.1409 70.9419 55.5077 70.3255C54.8746 69.7091 54.0161 69.3623 53.1207 69.3614Z" fill="white"/>
<path d="M57.5964 26.9201H30.182C30.1068 26.9203 30.0329 26.9012 29.9676 26.8648C29.9024 26.8283 29.8482 26.7757 29.8106 26.7124C29.7729 26.649 29.753 26.5771 29.7529 26.5039C29.7529 26.4307 29.7726 26.3587 29.8103 26.2953L43.5192 3.17953C43.5599 3.12038 43.615 3.0719 43.6795 3.03837C43.744 3.00485 43.8161 2.9873 43.8892 2.9873C43.9623 2.9873 44.0344 3.00485 44.0989 3.03837C44.1634 3.0719 44.2185 3.12038 44.2592 3.17953L57.9682 26.2953C58.0058 26.3587 58.0255 26.4307 58.0255 26.5039C58.0254 26.5771 58.0056 26.649 57.9679 26.7124C57.9302 26.7757 57.876 26.8283 57.8108 26.8648C57.7456 26.9012 57.6716 26.9203 57.5964 26.9201ZM30.922 26.0904H56.8564L43.8804 4.22094L30.922 26.0904Z" fill="white"/>
<path d="M44.3186 53.2007H43.4629V80.8406H44.3186V53.2007Z" fill="white"/>
<path d="M44.3186 26.5034H43.4629V38.751H44.3186V26.5034Z" fill="white"/>
<path d="M60.398 63.5874H27.3828V64.4205H60.398V63.5874Z" fill="white"/>
<path d="M50.5709 14.2251H37.2021V15.0582H50.5709V14.2251Z" fill="white"/>
<path d="M27.6741 60.5933H26.8184V67.2275H27.6741V60.5933Z" fill="white"/>
<path d="M60.6887 60.5933H59.833V67.2275H60.6887V60.5933Z" fill="white"/>
<path d="M54.1271 59.5245C54.1266 59.4423 54.1429 59.3609 54.175 59.2849C54.2071 59.2089 54.2544 59.1398 54.314 59.0817C54.3737 59.0236 54.4447 58.9776 54.5227 58.9463C54.6008 58.9151 54.6845 58.8993 54.7689 58.8997C54.853 58.8997 54.9363 58.9159 55.014 58.9473C55.0916 58.9788 55.1622 59.0248 55.2215 59.0829C55.2808 59.141 55.3277 59.2099 55.3596 59.2857C55.3915 59.3615 55.4076 59.4426 55.4072 59.5245C55.4076 59.6064 55.3915 59.6876 55.3596 59.7634C55.3277 59.8392 55.2808 59.9081 55.2215 59.9662C55.1622 60.0242 55.0916 60.0703 55.014 60.1018C54.9363 60.1332 54.853 60.1494 54.7689 60.1494C54.6845 60.1498 54.6008 60.134 54.5227 60.1027C54.4447 60.0715 54.3737 60.0255 54.314 59.9674C54.2544 59.9093 54.2071 59.8402 54.175 59.7642C54.1429 59.6882 54.1266 59.6067 54.1271 59.5245ZM50.7078 59.5245C50.7073 59.4423 50.7236 59.3609 50.7557 59.2849C50.7878 59.2089 50.835 59.1398 50.8947 59.0817C50.9544 59.0236 51.0253 58.9776 51.1034 58.9463C51.1815 58.9151 51.2651 58.8993 51.3496 58.8997C51.4337 58.8997 51.517 58.9159 51.5946 58.9473C51.6723 58.9788 51.7428 59.0248 51.8021 59.0829C51.8614 59.141 51.9084 59.2099 51.9403 59.2857C51.9721 59.3615 51.9883 59.4426 51.9878 59.5245C51.9888 59.687 51.9244 59.8434 51.8084 59.9602C51.6923 60.077 51.5339 60.1449 51.3671 60.1494C51.2812 60.1521 51.1957 60.138 51.1155 60.1078C51.0354 60.0776 50.9624 60.0319 50.9008 59.9736C50.8393 59.9152 50.7904 59.8454 50.7573 59.7682C50.7241 59.6911 50.7072 59.6082 50.7078 59.5245ZM47.2884 59.5245C47.2879 59.4423 47.3042 59.3609 47.3363 59.2849C47.3684 59.2089 47.4157 59.1398 47.4753 59.0817C47.535 59.0236 47.606 58.9776 47.684 58.9463C47.7621 58.9151 47.8458 58.8993 47.9302 58.8997C48.0143 58.8997 48.0976 58.9159 48.1753 58.9473C48.2529 58.9788 48.3235 59.0248 48.3828 59.0829C48.4421 59.141 48.489 59.2099 48.5209 59.2857C48.5528 59.3615 48.5689 59.4426 48.5685 59.5245C48.5689 59.6064 48.5528 59.6876 48.5209 59.7634C48.489 59.8392 48.4421 59.9081 48.3828 59.9662C48.3235 60.0242 48.2529 60.0703 48.1753 60.1018C48.0976 60.1332 48.0143 60.1494 47.9302 60.1494C47.8458 60.1498 47.7621 60.134 47.684 60.1027C47.606 60.0715 47.535 60.0255 47.4753 59.9674C47.4157 59.9093 47.3684 59.8402 47.3363 59.7642C47.3042 59.6882 47.2879 59.6067 47.2884 59.5245ZM43.8691 59.5245C43.8686 59.4426 43.8848 59.3615 43.9166 59.2857C43.9485 59.2099 43.9955 59.141 44.0548 59.0829C44.1141 59.0248 44.1846 58.9788 44.2623 58.9473C44.3399 58.9159 44.4232 58.8997 44.5073 58.8997C44.5918 58.8993 44.6754 58.9151 44.7535 58.9463C44.8316 58.9776 44.9025 59.0236 44.9622 59.0817C45.0219 59.1398 45.0691 59.2089 45.1012 59.2849C45.1333 59.3609 45.1496 59.4423 45.1491 59.5245C45.1496 59.6067 45.1333 59.6882 45.1012 59.7642C45.0691 59.8402 45.0219 59.9093 44.9622 59.9674C44.9025 60.0255 44.8316 60.0715 44.7535 60.1027C44.6754 60.134 44.5918 60.1498 44.5073 60.1494C44.4232 60.1494 44.3399 60.1332 44.2623 60.1018C44.1846 60.0703 44.1141 60.0242 44.0548 59.9662C43.9955 59.9081 43.9485 59.8392 43.9166 59.7634C43.8848 59.6876 43.8686 59.6064 43.8691 59.5245ZM40.4497 59.5245C40.4492 59.4426 40.4654 59.3615 40.4973 59.2857C40.5292 59.2099 40.5761 59.141 40.6354 59.0829C40.6947 59.0248 40.7653 58.9788 40.8429 58.9473C40.9206 58.9159 41.0039 58.8997 41.088 58.8997C41.1724 58.8993 41.2561 58.9151 41.3341 58.9463C41.4122 58.9776 41.4831 59.0236 41.5428 59.0817C41.6025 59.1398 41.6498 59.2089 41.6819 59.2849C41.714 59.3609 41.7302 59.4423 41.7298 59.5245C41.7302 59.6067 41.714 59.6882 41.6819 59.7642C41.6498 59.8402 41.6025 59.9093 41.5428 59.9674C41.4831 60.0255 41.4122 60.0715 41.3341 60.1027C41.2561 60.134 41.1724 60.1498 41.088 60.1494C41.0039 60.1494 40.9206 60.1332 40.8429 60.1018C40.7653 60.0703 40.6947 60.0242 40.6354 59.9662C40.5761 59.9081 40.5292 59.8392 40.4973 59.7634C40.4654 59.6876 40.4492 59.6064 40.4497 59.5245ZM37.0304 59.5245C37.0299 59.4426 37.0461 59.3615 37.0779 59.2857C37.1098 59.2099 37.1568 59.141 37.2161 59.0829C37.2754 59.0248 37.3459 58.9788 37.4236 58.9473C37.5012 58.9159 37.5845 58.8997 37.6686 58.8997C37.753 58.8993 37.8367 58.9151 37.9148 58.9463C37.9929 58.9776 38.0638 59.0236 38.1235 59.0817C38.1832 59.1398 38.2304 59.2089 38.2625 59.2849C38.2946 59.3609 38.3109 59.4423 38.3104 59.5245C38.3109 59.6067 38.2946 59.6882 38.2625 59.7642C38.2304 59.8402 38.1832 59.9093 38.1235 59.9674C38.0638 60.0255 37.9929 60.0715 37.9148 60.1027C37.8367 60.134 37.753 60.1498 37.6686 60.1494C37.5845 60.1494 37.5012 60.1332 37.4236 60.1018C37.3459 60.0703 37.2754 60.0242 37.2161 59.9662C37.1568 59.9081 37.1098 59.8392 37.0779 59.7634C37.0461 59.6876 37.0299 59.6064 37.0304 59.5245ZM33.611 59.5245C33.6105 59.4426 33.6267 59.3615 33.6586 59.2857C33.6905 59.2099 33.7374 59.141 33.7967 59.0829C33.856 59.0248 33.9265 58.9788 34.0042 58.9473C34.0819 58.9159 34.1652 58.8997 34.2493 58.8997C34.3337 58.8993 34.4174 58.9151 34.4954 58.9463C34.5735 58.9776 34.6444 59.0236 34.7041 59.0817C34.7638 59.1398 34.8111 59.2089 34.8432 59.2849C34.8753 59.3609 34.8915 59.4423 34.8911 59.5245C34.8915 59.6067 34.8753 59.6882 34.8432 59.7642C34.8111 59.8402 34.7638 59.9093 34.7041 59.9674C34.6444 60.0255 34.5735 60.0715 34.4954 60.1027C34.4174 60.134 34.3337 60.1498 34.2493 60.1494C34.1652 60.1494 34.0819 60.1332 34.0042 60.1018C33.9265 60.0703 33.856 60.0242 33.7967 59.9662C33.7374 59.9081 33.6905 59.8392 33.6586 59.7634C33.6267 59.6876 33.6105 59.6064 33.611 59.5245ZM30.1917 59.5245C30.1912 59.4426 30.2074 59.3615 30.2392 59.2857C30.2711 59.2099 30.318 59.141 30.3774 59.0829C30.4367 59.0248 30.5072 58.9788 30.5849 58.9473C30.6625 58.9159 30.7458 58.8997 30.8299 58.8997C30.9143 58.8993 30.998 58.9151 31.0761 58.9463C31.1542 58.9776 31.2251 59.0236 31.2848 59.0817C31.3445 59.1398 31.3917 59.2089 31.4238 59.2849C31.4559 59.3609 31.4722 59.4423 31.4717 59.5245C31.4722 59.6067 31.4559 59.6882 31.4238 59.7642C31.3917 59.8402 31.3445 59.9093 31.2848 59.9674C31.2251 60.0255 31.1542 60.0715 31.0761 60.1027C30.998 60.134 30.9143 60.1498 30.8299 60.1494C30.7458 60.1494 30.6625 60.1332 30.5849 60.1018C30.5072 60.0703 30.4367 60.0242 30.3774 59.9662C30.318 59.9081 30.2711 59.8392 30.2392 59.7634C30.2074 59.6876 30.1912 59.6064 30.1917 59.5245ZM55.9823 58.0017C55.9819 57.9198 55.998 57.8386 56.0299 57.7628C56.0618 57.687 56.1087 57.6181 56.168 57.5601C56.2274 57.502 56.2979 57.4559 56.3755 57.4245C56.4532 57.393 56.5365 57.3769 56.6206 57.3769C56.705 57.3764 56.7887 57.3923 56.8668 57.4235C56.9448 57.4547 57.0158 57.5007 57.0755 57.5589C57.1352 57.617 57.1824 57.686 57.2145 57.762C57.2466 57.8381 57.2629 57.9195 57.2624 58.0017C57.2596 58.1641 57.1917 58.3191 57.073 58.4333C56.9544 58.5475 56.7945 58.612 56.6276 58.6129C56.4589 58.6147 56.2964 58.5514 56.1755 58.4369C56.0545 58.3224 55.9851 58.1659 55.9823 58.0017ZM29.5569 56.8135C29.5564 56.7316 29.5726 56.6504 29.6045 56.5746C29.6363 56.4988 29.6833 56.4299 29.7426 56.3718C29.8019 56.3138 29.8724 56.2677 29.9501 56.2363C30.0278 56.2048 30.111 56.1886 30.1952 56.1886C30.2797 56.1882 30.3636 56.204 30.4418 56.2352C30.5201 56.2664 30.5913 56.3124 30.6512 56.3704C30.7112 56.4285 30.7588 56.4975 30.7913 56.5736C30.8237 56.6496 30.8404 56.7311 30.8404 56.8135C30.8395 56.9786 30.7715 57.1366 30.6512 57.2531C30.531 57.3695 30.3683 57.4349 30.1987 57.4349C30.1146 57.4353 30.0312 57.4196 29.9533 57.3886C29.8755 57.3576 29.8047 57.3119 29.7451 57.2541C29.6854 57.1964 29.6381 57.1277 29.6058 57.0521C29.5735 56.9764 29.5569 56.8954 29.5569 56.8135ZM55.9823 54.6726C55.9819 54.5907 55.998 54.5095 56.0299 54.4338C56.0618 54.358 56.1087 54.2891 56.168 54.231C56.2274 54.1729 56.2979 54.1268 56.3755 54.0954C56.4532 54.064 56.5365 54.0478 56.6206 54.0478C56.705 54.0473 56.7887 54.0632 56.8668 54.0944C56.9448 54.1257 57.0158 54.1717 57.0755 54.2298C57.1352 54.2879 57.1824 54.3569 57.2145 54.433C57.2466 54.509 57.2629 54.5904 57.2624 54.6726C57.2629 54.7548 57.2466 54.8362 57.2145 54.9123C57.1824 54.9883 57.1352 55.0573 57.0755 55.1155C57.0158 55.1736 56.9448 55.2196 56.8668 55.2508C56.7887 55.2821 56.705 55.2979 56.6206 55.2975C56.5365 55.2975 56.4532 55.2813 56.3755 55.2498C56.2979 55.2184 56.2274 55.1723 56.168 55.1142C56.1087 55.0562 56.0618 54.9873 56.0299 54.9115C55.998 54.8357 55.9819 54.7545 55.9823 54.6726ZM29.5569 53.4912C29.5569 53.3264 29.6241 53.1683 29.7438 53.0518C29.8635 52.9353 30.0259 52.8698 30.1952 52.8698C30.2794 52.8693 30.363 52.8851 30.441 52.9161C30.5191 52.947 30.5901 52.9927 30.65 53.0504C30.7099 53.1081 30.7576 53.1767 30.7903 53.2524C30.8229 53.328 30.84 53.4092 30.8404 53.4912C30.8404 53.6569 30.7728 53.8159 30.6525 53.9331C30.5321 54.0502 30.3689 54.1161 30.1987 54.1161C30.1143 54.1165 30.0306 54.1007 29.9525 54.0694C29.8744 54.0382 29.8035 53.9922 29.7438 53.9341C29.6841 53.8759 29.6369 53.8069 29.6048 53.7309C29.5727 53.6549 29.5564 53.5734 29.5569 53.4912ZM55.9823 51.3538C55.9819 51.2719 55.998 51.1907 56.0299 51.1149C56.0618 51.0391 56.1087 50.9702 56.168 50.9122C56.2274 50.8541 56.2979 50.808 56.3755 50.7766C56.4532 50.7451 56.5365 50.7289 56.6206 50.7289C56.705 50.7285 56.7887 50.7443 56.8668 50.7756C56.9448 50.8068 57.0158 50.8528 57.0755 50.9109C57.1352 50.9691 57.1824 51.0381 57.2145 51.1141C57.2466 51.1902 57.2629 51.2716 57.2624 51.3538C57.2629 51.436 57.2466 51.5174 57.2145 51.5934C57.1824 51.6695 57.1352 51.7385 57.0755 51.7966C57.0158 51.8547 56.9448 51.9007 56.8668 51.932C56.7887 51.9632 56.705 51.9791 56.6206 51.9786C56.5356 51.9786 56.4514 51.9621 56.3731 51.93C56.2947 51.898 56.2237 51.851 56.1642 51.7918C56.1048 51.7327 56.0581 51.6625 56.0268 51.5855C55.9956 51.5086 55.9805 51.4263 55.9823 51.3435V51.3538ZM29.5569 50.1621C29.5569 49.9973 29.6241 49.8393 29.7438 49.7227C29.8635 49.6062 30.0259 49.5407 30.1952 49.5407C30.2794 49.5403 30.363 49.556 30.441 49.587C30.5191 49.618 30.5901 49.6636 30.65 49.7213C30.7099 49.779 30.7576 49.8477 30.7903 49.9233C30.8229 49.9989 30.84 50.0801 30.8404 50.1621C30.8404 50.3279 30.7728 50.4868 30.6525 50.604C30.5321 50.7212 30.3689 50.787 30.1987 50.787C30.1134 50.7875 30.0288 50.7713 29.9501 50.7394C29.8713 50.7075 29.7999 50.6606 29.74 50.6014C29.6802 50.5422 29.6332 50.4719 29.6017 50.3947C29.5702 50.3175 29.555 50.2349 29.5569 50.1519V50.1621ZM55.9823 48.0281C55.9819 47.9462 55.998 47.865 56.0299 47.7892C56.0618 47.7135 56.1087 47.6446 56.168 47.5865C56.2274 47.5284 56.2979 47.4824 56.3755 47.4509C56.4532 47.4195 56.5365 47.4033 56.6206 47.4033C56.705 47.4028 56.7887 47.4187 56.8668 47.4499C56.9448 47.4811 57.0158 47.5272 57.0755 47.5853C57.1352 47.6434 57.1824 47.7124 57.2145 47.7885C57.2466 47.8645 57.2629 47.9459 57.2624 48.0281C57.2629 48.1103 57.2466 48.1918 57.2145 48.2678C57.1824 48.3438 57.1352 48.4128 57.0755 48.4709C57.0158 48.5291 56.9448 48.5751 56.8668 48.6063C56.7887 48.6376 56.705 48.6534 56.6206 48.653C56.5365 48.653 56.4532 48.6368 56.3755 48.6053C56.2979 48.5739 56.2274 48.5278 56.168 48.4697C56.1087 48.4117 56.0618 48.3428 56.0299 48.267C55.998 48.1912 55.9819 48.11 55.9823 48.0281ZM29.5569 46.8365C29.5569 46.6717 29.6241 46.5136 29.7438 46.3971C29.8635 46.2805 30.0259 46.215 30.1952 46.215C30.2794 46.2146 30.363 46.2303 30.441 46.2613C30.5191 46.2923 30.5901 46.3379 30.65 46.3956C30.7099 46.4534 30.7576 46.522 30.7903 46.5976C30.8229 46.6732 30.84 46.7544 30.8404 46.8365C30.8404 46.9185 30.8239 46.9998 30.7916 47.0756C30.7593 47.1514 30.7121 47.2203 30.6525 47.2783C30.5929 47.3363 30.5221 47.3823 30.4443 47.4138C30.3664 47.4452 30.283 47.4613 30.1987 47.4613C30.1131 47.4618 30.0282 47.4455 29.9492 47.4134C29.8702 47.3814 29.7986 47.3341 29.7387 47.2745C29.6789 47.215 29.6319 47.1443 29.6007 47.0667C29.5694 46.9891 29.5545 46.9061 29.5569 46.8228V46.8365ZM55.9823 44.699C55.9819 44.6171 55.998 44.536 56.0299 44.4602C56.0618 44.3844 56.1087 44.3155 56.168 44.2574C56.2274 44.1993 56.2979 44.1533 56.3755 44.1218C56.4532 44.0904 56.5365 44.0742 56.6206 44.0742C56.705 44.0737 56.7887 44.0896 56.8668 44.1208C56.9448 44.1521 57.0158 44.1981 57.0755 44.2562C57.1352 44.3143 57.1824 44.3834 57.2145 44.4594C57.2466 44.5354 57.2629 44.6169 57.2624 44.699C57.2561 44.8591 57.1865 45.0106 57.0683 45.1219C56.95 45.2332 56.7921 45.2958 56.6276 45.2966C56.4589 45.2984 56.2964 45.2351 56.1755 45.1206C56.0545 45.0061 55.9851 44.8496 55.9823 44.6854V44.699ZM29.5569 43.5074C29.5569 43.3426 29.6241 43.1845 29.7438 43.068C29.8635 42.9514 30.0259 42.886 30.1952 42.886C30.2794 42.8855 30.363 42.9012 30.441 42.9322C30.5191 42.9632 30.5901 43.0089 30.65 43.0666C30.7099 43.1243 30.7576 43.1929 30.7903 43.2685C30.8229 43.3442 30.84 43.4253 30.8404 43.5074C30.8404 43.6731 30.7728 43.8321 30.6525 43.9492C30.5321 44.0664 30.3689 44.1322 30.1987 44.1322C30.1131 44.1327 30.0282 44.1164 29.9492 44.0844C29.8702 44.0523 29.7986 44.005 29.7387 43.9455C29.6789 43.8859 29.6319 43.8152 29.6007 43.7376C29.5694 43.66 29.5545 43.5771 29.5569 43.4937V43.5074ZM55.9823 41.37C55.9819 41.2881 55.998 41.2069 56.0299 41.1311C56.0618 41.0553 56.1087 40.9864 56.168 40.9283C56.2274 40.8703 56.2979 40.8242 56.3755 40.7928C56.4532 40.7613 56.5365 40.7451 56.6206 40.7451C56.705 40.7447 56.7887 40.7605 56.8668 40.7918C56.9448 40.823 57.0158 40.869 57.0755 40.9271C57.1352 40.9852 57.1824 41.0543 57.2145 41.1303C57.2466 41.2063 57.2629 41.2878 57.2624 41.37C57.2629 41.4521 57.2466 41.5336 57.2145 41.6096C57.1824 41.6856 57.1352 41.7547 57.0755 41.8128C57.0158 41.8709 56.9448 41.9169 56.8668 41.9482C56.7887 41.9794 56.705 41.9953 56.6206 41.9948C56.5353 41.9948 56.4508 41.9782 56.3722 41.9459C56.2936 41.9136 56.2225 41.8663 56.163 41.8068C56.1035 41.7473 56.0568 41.6767 56.0258 41.5994C55.9948 41.522 55.98 41.4393 55.9823 41.3563V41.37ZM29.5569 40.1749C29.5569 40.0101 29.6241 39.852 29.7438 39.7355C29.8635 39.619 30.0259 39.5535 30.1952 39.5535C30.2794 39.553 30.363 39.5688 30.441 39.5997C30.5191 39.6307 30.5901 39.6764 30.65 39.7341C30.7099 39.7918 30.7576 39.8604 30.7903 39.9361C30.8229 40.0117 30.84 40.0928 30.8404 40.1749C30.8404 40.3406 30.7728 40.4996 30.6525 40.6167C30.5321 40.7339 30.3689 40.7998 30.1987 40.7998C30.1143 40.8002 30.0306 40.7844 29.9525 40.7531C29.8744 40.7219 29.8035 40.6758 29.7438 40.6177C29.6841 40.5596 29.6369 40.4906 29.6048 40.4146C29.5727 40.3386 29.5564 40.2571 29.5569 40.1749ZM55.9823 38.0375C55.9819 37.9556 55.998 37.8744 56.0299 37.7986C56.0618 37.7228 56.1087 37.6539 56.168 37.5958C56.2274 37.5378 56.2979 37.4917 56.3755 37.4603C56.4532 37.4288 56.5365 37.4126 56.6206 37.4126C56.705 37.4122 56.7887 37.428 56.8668 37.4593C56.9448 37.4905 57.0158 37.5365 57.0755 37.5946C57.1352 37.6527 57.1824 37.7218 57.2145 37.7978C57.2466 37.8738 57.2629 37.9553 57.2624 38.0375C57.2629 38.1196 57.2466 38.2011 57.2145 38.2771C57.1824 38.3531 57.1352 38.4222 57.0755 38.4803C57.0158 38.5384 56.9448 38.5844 56.8668 38.6157C56.7887 38.6469 56.705 38.6628 56.6206 38.6623C56.5356 38.6623 56.4514 38.6458 56.3731 38.6137C56.2947 38.5817 56.2237 38.5347 56.1642 38.4755C56.1048 38.4163 56.0581 38.3462 56.0268 38.2692C55.9956 38.1922 55.9805 38.11 55.9823 38.0272V38.0375ZM29.5569 36.8458C29.5569 36.681 29.6241 36.523 29.7438 36.4064C29.8635 36.2899 30.0259 36.2244 30.1952 36.2244C30.2794 36.2239 30.363 36.2397 30.441 36.2707C30.5191 36.3016 30.5901 36.3473 30.65 36.405C30.7099 36.4627 30.7576 36.5313 30.7903 36.607C30.8229 36.6826 30.84 36.7638 30.8404 36.8458C30.8404 37.0115 30.7728 37.1705 30.6525 37.2877C30.5321 37.4048 30.3689 37.4707 30.1987 37.4707C30.1134 37.4712 30.0288 37.455 29.9501 37.4231C29.8713 37.3912 29.7999 37.3443 29.74 37.2851C29.6802 37.2259 29.6332 37.1556 29.6017 37.0784C29.5702 37.0012 29.555 36.9186 29.5569 36.8356V36.8458ZM55.9823 34.7118C55.9819 34.6299 55.998 34.5487 56.0299 34.4729C56.0618 34.3971 56.1087 34.3282 56.168 34.2702C56.2274 34.2121 56.2979 34.166 56.3755 34.1346C56.4532 34.1032 56.5365 34.087 56.6206 34.087C56.705 34.0865 56.7887 34.1024 56.8668 34.1336C56.9448 34.1648 57.0158 34.2109 57.0755 34.269C57.1352 34.3271 57.1824 34.3961 57.2145 34.4721C57.2466 34.5482 57.2629 34.6296 57.2624 34.7118C57.2629 34.794 57.2466 34.8754 57.2145 34.9515C57.1824 35.0275 57.1352 35.0965 57.0755 35.1546C57.0158 35.2127 56.9448 35.2588 56.8668 35.29C56.7887 35.3213 56.705 35.3371 56.6206 35.3366C56.5365 35.3367 56.4532 35.3205 56.3755 35.289C56.2979 35.2576 56.2274 35.2115 56.168 35.1534C56.1087 35.0954 56.0618 35.0265 56.0299 34.9507C55.998 34.8749 55.9819 34.7937 55.9823 34.7118ZM29.5569 33.807C29.5569 33.7254 29.5734 33.6446 29.6055 33.5692C29.6375 33.4938 29.6846 33.4253 29.7438 33.3676C29.8031 33.3098 29.8735 33.2641 29.9509 33.2328C30.0283 33.2016 30.1113 33.1856 30.1952 33.1856C30.2794 33.1851 30.363 33.2008 30.441 33.2318C30.5191 33.2628 30.5901 33.3084 30.65 33.3661C30.7099 33.4238 30.7576 33.4925 30.7903 33.5681C30.8229 33.6438 30.84 33.7249 30.8404 33.807C30.8404 33.9727 30.7728 34.1316 30.6525 34.2488C30.5321 34.366 30.3689 34.4318 30.1987 34.4318C30.1131 34.4323 30.0282 34.416 29.9492 34.3839C29.8702 34.3519 29.7986 34.3046 29.7387 34.245C29.6789 34.1855 29.6319 34.1148 29.6007 34.0372C29.5694 33.9596 29.5545 33.8766 29.5569 33.7933V33.807ZM53.4888 33.807C53.4898 33.6418 53.5578 33.4838 53.6781 33.3673C53.7983 33.2509 53.961 33.1856 54.1306 33.1856C54.2147 33.1851 54.2981 33.2008 54.3759 33.2319C54.4538 33.2629 54.5246 33.3086 54.5842 33.3663C54.6439 33.4241 54.6912 33.4927 54.7235 33.5684C54.7558 33.644 54.7724 33.7251 54.7724 33.807C54.7729 33.8889 54.7567 33.97 54.7248 34.0458C54.693 34.1216 54.646 34.1905 54.5867 34.2486C54.5274 34.3067 54.4569 34.3528 54.3792 34.3842C54.3015 34.4156 54.2183 34.4318 54.1341 34.4318C54.0484 34.4323 53.9634 34.416 53.8842 34.384C53.805 34.3519 53.7332 34.3048 53.673 34.2452C53.6128 34.1857 53.5656 34.1151 53.5339 34.0374C53.5023 33.9598 53.487 33.8768 53.4888 33.7933V33.807ZM50.073 33.807C50.0725 33.7252 50.0887 33.6442 50.1206 33.5686C50.1526 33.493 50.1995 33.4243 50.2589 33.3666C50.3183 33.3088 50.3888 33.263 50.4665 33.2319C50.5441 33.2009 50.6273 33.1851 50.7113 33.1856C50.8812 33.1855 51.0443 33.2508 51.1651 33.3671C51.2859 33.4835 51.3547 33.6415 51.3566 33.807C51.3566 33.8893 51.3399 33.9708 51.3074 34.0469C51.2749 34.1229 51.2273 34.192 51.1674 34.25C51.1074 34.3081 51.0362 34.354 50.9579 34.3852C50.8797 34.4164 50.7958 34.4323 50.7113 34.4318C50.626 34.4318 50.5415 34.4152 50.4629 34.3829C50.3843 34.3507 50.3131 34.3033 50.2536 34.2438C50.1941 34.1843 50.1475 34.1138 50.1164 34.0364C50.0854 33.959 50.0706 33.8763 50.073 33.7933V33.807ZM46.6536 33.807C46.6532 33.7252 46.6694 33.6442 46.7013 33.5686C46.7332 33.493 46.7802 33.4243 46.8395 33.3666C46.8989 33.3088 46.9695 33.263 47.0471 33.2319C47.1248 33.2009 47.208 33.1851 47.2919 33.1856C47.4619 33.1855 47.6249 33.2508 47.7458 33.3671C47.8666 33.4835 47.9354 33.6415 47.9372 33.807C47.9372 33.8893 47.9205 33.9708 47.888 34.0469C47.8556 34.1229 47.808 34.192 47.748 34.25C47.688 34.3081 47.6169 34.354 47.5386 34.3852C47.4603 34.4164 47.3765 34.4323 47.2919 34.4318C47.2066 34.4318 47.1221 34.4152 47.0435 34.3829C46.9649 34.3507 46.8938 34.3033 46.8343 34.2438C46.7748 34.1843 46.7281 34.1138 46.6971 34.0364C46.6661 33.959 46.6513 33.8763 46.6536 33.7933V33.807ZM43.2343 33.807C43.2338 33.7252 43.25 33.6442 43.2819 33.5686C43.3138 33.493 43.3608 33.4243 43.4202 33.3666C43.4796 33.3088 43.5501 33.263 43.6278 33.2319C43.7054 33.2009 43.7886 33.1851 43.8726 33.1856C43.9567 33.1851 44.04 33.2008 44.1179 33.2319C44.1957 33.2629 44.2665 33.3086 44.3262 33.3663C44.3858 33.4241 44.4331 33.4927 44.4654 33.5684C44.4977 33.644 44.5144 33.7251 44.5144 33.807C44.5148 33.8891 44.4985 33.9706 44.4665 34.0466C44.4344 34.1226 44.3871 34.1917 44.3274 34.2498C44.2677 34.3079 44.1968 34.3539 44.1187 34.3852C44.0406 34.4164 43.957 34.4323 43.8726 34.4318C43.7873 34.4318 43.7028 34.4152 43.6242 34.3829C43.5456 34.3507 43.4744 34.3033 43.4149 34.2438C43.3554 34.1843 43.3088 34.1138 43.2777 34.0364C43.2467 33.959 43.2319 33.8763 43.2343 33.7933V33.807ZM39.8114 33.807C39.8124 33.6418 39.8804 33.4838 40.0006 33.3673C40.1209 33.2509 40.2836 33.1856 40.4532 33.1856C40.5373 33.1851 40.6207 33.2008 40.6985 33.2319C40.7764 33.2629 40.8472 33.3086 40.9068 33.3663C40.9665 33.4241 41.0138 33.4927 41.0461 33.5684C41.0784 33.644 41.095 33.7251 41.095 33.807C41.0955 33.8889 41.0793 33.97 41.0474 34.0458C41.0156 34.1216 40.9686 34.1905 40.9093 34.2486C40.85 34.3067 40.7795 34.3528 40.7018 34.3842C40.6241 34.4156 40.5408 34.4318 40.4567 34.4318C40.371 34.4323 40.286 34.416 40.2068 34.384C40.1276 34.3519 40.0558 34.3048 39.9956 34.2452C39.9354 34.1857 39.8882 34.1151 39.8565 34.0374C39.8249 33.9598 39.8096 33.8768 39.8114 33.7933V33.807ZM36.3921 33.807C36.393 33.6418 36.461 33.4838 36.5813 33.3673C36.7016 33.2509 36.8643 33.1856 37.0339 33.1856C37.118 33.1851 37.2013 33.2008 37.2792 33.2319C37.357 33.2629 37.4278 33.3086 37.4875 33.3663C37.5471 33.4241 37.5944 33.4927 37.6267 33.5684C37.659 33.644 37.6757 33.7251 37.6757 33.807C37.6761 33.8889 37.6599 33.97 37.6281 34.0458C37.5962 34.1216 37.5493 34.1905 37.4899 34.2486C37.4306 34.3067 37.3601 34.3528 37.2824 34.3842C37.2048 34.4156 37.1215 34.4318 37.0374 34.4318C36.9516 34.4323 36.8666 34.416 36.7874 34.384C36.7082 34.3519 36.6364 34.3048 36.5762 34.2452C36.5161 34.1857 36.4688 34.1151 36.4372 34.0374C36.4055 33.9598 36.3902 33.8768 36.3921 33.7933V33.807ZM32.9727 33.807C32.9736 33.6418 33.0417 33.4838 33.1619 33.3673C33.2822 33.2509 33.4449 33.1856 33.6145 33.1856C33.7844 33.1855 33.9475 33.2508 34.0683 33.3671C34.1892 33.4835 34.2579 33.6415 34.2598 33.807C34.2598 33.8893 34.2431 33.9708 34.2106 34.0469C34.1782 34.1229 34.1306 34.192 34.0706 34.25C34.0106 34.3081 33.9395 34.354 33.8612 34.3852C33.7829 34.4164 33.6991 34.4323 33.6145 34.4318C33.529 34.4318 33.4444 34.4152 33.3656 34.383C33.2868 34.3507 33.2155 34.3035 33.1557 34.244C33.0959 34.1845 33.0489 34.114 33.0175 34.0366C32.9861 33.9592 32.9709 33.8765 32.9727 33.7933V33.807Z" fill="white"/>
<path d="M49.0878 83.9033C49.0754 83.8221 49.0797 83.7393 49.1004 83.6597C49.121 83.5801 49.1577 83.5053 49.2083 83.4396C49.2588 83.3739 49.3222 83.3185 49.3948 83.2768C49.4675 83.2351 49.5479 83.2078 49.6314 83.1965C49.7992 83.173 49.9697 83.2152 50.1057 83.3137C50.2417 83.4122 50.3322 83.5591 50.3574 83.7223C50.3815 83.8866 50.3378 84.0535 50.236 84.1866C50.1341 84.3196 49.9823 84.4081 49.8138 84.4325H49.7191C49.5664 84.4319 49.419 84.3782 49.3033 84.2812C49.1876 84.1842 49.1112 84.0502 49.0878 83.9033ZM52.4545 83.3365C52.4353 83.2565 52.4325 83.1735 52.4462 83.0924C52.46 83.0113 52.49 82.9336 52.5347 82.8638C52.5793 82.7941 52.6376 82.7335 52.7063 82.6857C52.775 82.638 52.8527 82.6038 52.935 82.5853C53.0168 82.5661 53.1017 82.5629 53.1847 82.5759C53.2678 82.5889 53.3473 82.6179 53.4188 82.6611C53.4903 82.7043 53.5522 82.7609 53.601 82.8276C53.6498 82.8943 53.6845 82.9698 53.703 83.0497C53.7223 83.1293 53.7252 83.2118 53.7117 83.2925C53.6981 83.3732 53.6683 83.4505 53.624 83.52C53.5797 83.5894 53.5217 83.6497 53.4535 83.6973C53.3852 83.7449 53.3079 83.779 53.2261 83.7975C53.1772 83.8041 53.1277 83.8041 53.0788 83.7975C52.9371 83.7985 52.799 83.7539 52.686 83.6705C52.5731 83.5871 52.4917 83.4697 52.4545 83.3365ZM55.7582 82.4829C55.7049 82.3258 55.7178 82.1545 55.7941 82.0066C55.8703 81.8588 56.0037 81.7464 56.165 81.6942C56.2449 81.6679 56.3293 81.6572 56.4135 81.6627C56.4976 81.6682 56.5798 81.6898 56.6554 81.7263C56.731 81.7628 56.7984 81.8134 56.8539 81.8753C56.9093 81.9371 56.9517 82.009 56.9786 82.0868C57.0318 82.2448 57.0185 82.417 56.9416 82.5655C56.8647 82.7139 56.7305 82.8267 56.5683 82.879C56.5027 82.9005 56.4341 82.912 56.3649 82.9131C56.2303 82.912 56.0995 82.8699 55.9907 82.7927C55.8819 82.7156 55.8006 82.6072 55.7582 82.4829ZM58.9741 81.3527C58.9069 81.2 58.9041 81.0277 58.9665 80.873C59.0289 80.7183 59.1513 80.5938 59.3073 80.5264C59.3843 80.4932 59.4674 80.4753 59.5516 80.4736C59.6359 80.472 59.7196 80.4867 59.798 80.5169C59.8763 80.5471 59.9477 80.5921 60.0079 80.6495C60.0682 80.7068 60.1161 80.7752 60.149 80.8508C60.1826 80.9259 60.2007 81.0067 60.2021 81.0886C60.2036 81.1705 60.1884 81.2518 60.1574 81.328C60.1265 81.4041 60.0803 81.4736 60.0217 81.5323C59.9631 81.5911 59.8931 81.6379 59.8158 81.6703C59.7347 81.7028 59.6476 81.7191 59.5598 81.7181C59.436 81.7201 59.3144 81.6866 59.2102 81.6216C59.106 81.5566 59.0239 81.463 58.9741 81.3527ZM62.0708 79.9494C61.9913 79.8035 61.9743 79.6329 62.0236 79.4748C62.0729 79.3168 62.1844 79.1842 62.3339 79.106C62.4076 79.0666 62.4887 79.0419 62.5724 79.0333C62.6561 79.0247 62.7407 79.0323 62.8213 79.0559C62.9019 79.0794 62.9769 79.1183 63.0419 79.1703C63.107 79.2222 63.1607 79.2863 63.2001 79.3587C63.2401 79.4306 63.2651 79.5095 63.2737 79.5909C63.2823 79.6723 63.2743 79.7545 63.2502 79.8328C63.2261 79.9112 63.1863 79.9841 63.1332 80.0475C63.08 80.1109 63.0146 80.1634 62.9406 80.202C62.8471 80.2519 62.7421 80.2778 62.6355 80.2772C62.5198 80.2768 62.4064 80.2462 62.3071 80.1885C62.2077 80.1309 62.1261 80.0483 62.0708 79.9494ZM65.0343 78.29C64.9414 78.1514 64.9089 77.9826 64.9438 77.8206C64.9786 77.6587 65.078 77.5168 65.2201 77.4261C65.3621 77.3354 65.5351 77.3032 65.7014 77.3365C65.8677 77.3697 66.0137 77.4658 66.1074 77.6037C66.2006 77.7419 66.2337 77.9103 66.1995 78.0722C66.1653 78.2342 66.0666 78.3763 65.9251 78.4675C65.8217 78.5362 65.6995 78.5731 65.5743 78.5734C65.4691 78.5715 65.3659 78.5447 65.2736 78.4953C65.1813 78.446 65.1028 78.3755 65.0448 78.29H65.0343ZM67.8399 76.3881C67.7343 76.2582 67.6861 76.0927 67.7059 75.9282C67.7256 75.7636 67.8117 75.6134 67.9451 75.5106C68.0786 75.4079 68.2485 75.3609 68.4175 75.3801C68.5866 75.3994 68.7408 75.4831 68.8464 75.613C68.951 75.7433 68.9987 75.9086 68.979 76.0729C68.9593 76.2371 68.8738 76.3872 68.7412 76.4905C68.6272 76.5776 68.4863 76.6245 68.3414 76.6237C68.2468 76.6219 68.1538 76.5998 68.069 76.5591C67.9841 76.5184 67.9095 76.46 67.8504 76.3881H67.8399ZM70.4631 74.2575C70.346 74.1361 70.2832 73.9744 70.2884 73.808C70.2937 73.6415 70.3666 73.4839 70.4912 73.3697C70.5524 73.313 70.6246 73.2686 70.7036 73.2392C70.7825 73.2098 70.8667 73.196 70.9512 73.1985C71.0357 73.201 71.1189 73.2199 71.1958 73.254C71.2728 73.2881 71.342 73.3367 71.3995 73.3971C71.4571 73.4568 71.502 73.5271 71.5315 73.6037C71.5611 73.6804 71.5748 73.7621 71.5719 73.8439C71.569 73.9258 71.5495 74.0063 71.5145 74.0808C71.4795 74.1553 71.4297 74.2223 71.368 74.278C71.2496 74.3874 71.0928 74.4485 70.9296 74.4487C70.8426 74.4489 70.7566 74.4321 70.6764 74.3992C70.5963 74.3664 70.5238 74.3182 70.4631 74.2575ZM72.89 71.9084C72.7638 71.7978 72.6877 71.6429 72.6785 71.4778C72.6693 71.3127 72.7277 71.1507 72.8409 71.0274C72.8967 70.9659 72.9644 70.9158 73.0402 70.8799C73.1159 70.844 73.1982 70.8231 73.2824 70.8183C73.3665 70.8136 73.4507 70.8251 73.5303 70.8522C73.6098 70.8793 73.683 70.9215 73.7457 70.9762C73.8085 71.0313 73.8595 71.0979 73.8958 71.1722C73.9321 71.2465 73.9529 71.327 73.9572 71.4092C73.9614 71.4914 73.9489 71.5735 73.9205 71.651C73.892 71.7284 73.8481 71.7997 73.7913 71.8606C73.7321 71.926 73.6593 71.9784 73.5776 72.0143C73.496 72.0502 73.4074 72.0688 73.3179 72.0688C73.1597 72.0691 73.0071 72.0119 72.89 71.9084ZM75.0959 69.368C74.9603 69.2683 74.8708 69.1203 74.8471 68.9564C74.8235 68.7925 74.8675 68.6262 74.9697 68.4939C75.0198 68.4279 75.083 68.3722 75.1554 68.3301C75.2278 68.288 75.308 68.2602 75.3915 68.2485C75.475 68.2367 75.5601 68.2412 75.6417 68.2617C75.7234 68.2821 75.8002 68.3181 75.8675 68.3676C76.0031 68.4673 76.0926 68.6154 76.1163 68.7792C76.1399 68.9431 76.0958 69.1094 75.9937 69.2417C75.9352 69.3202 75.8581 69.3838 75.769 69.4272C75.6799 69.4706 75.5813 69.4925 75.4817 69.4909C75.343 69.4905 75.208 69.4475 75.0959 69.368ZM77.0704 66.6365C76.9992 66.5933 76.9374 66.5368 76.8886 66.4703C76.8399 66.4038 76.805 66.3286 76.7861 66.249C76.7672 66.1694 76.7647 66.087 76.7785 66.0064C76.7924 65.9258 76.8225 65.8487 76.867 65.7795C76.9108 65.7096 76.9684 65.6488 77.0364 65.6006C77.1044 65.5525 77.1816 65.5179 77.2634 65.4989C77.3452 65.4798 77.43 65.4767 77.5131 65.4897C77.5961 65.5027 77.6757 65.5316 77.7472 65.5746C77.8188 65.6179 77.881 65.6744 77.9302 65.7411C77.9793 65.8077 78.0145 65.8832 78.0337 65.9631C78.0529 66.043 78.0558 66.1258 78.0422 66.2068C78.0285 66.2877 77.9986 66.3653 77.9542 66.435C77.8967 66.5252 77.8167 66.5998 77.7216 66.6517C77.6266 66.7036 77.5196 66.7313 77.4106 66.7321C77.2916 66.7359 77.1738 66.7075 77.0704 66.6501V66.6365ZM78.7923 63.7649C78.6415 63.6891 78.5274 63.5583 78.4749 63.4011C78.4223 63.2438 78.4356 63.0728 78.5118 62.925C78.5497 62.8516 78.6022 62.7863 78.6661 62.7327C78.73 62.6791 78.8041 62.6382 78.8842 62.6126C78.9644 62.5869 79.0489 62.5768 79.133 62.583C79.2172 62.5891 79.2992 62.6114 79.3745 62.6484C79.5257 62.723 79.6405 62.8529 79.6938 63.0096C79.747 63.1664 79.7343 63.3373 79.6586 63.485C79.6046 63.5882 79.5223 63.6747 79.4207 63.735C79.3191 63.7953 79.2024 63.827 79.0834 63.8264C78.9839 63.8319 78.8845 63.8155 78.7923 63.7786V63.7649ZM80.2548 60.75C80.1773 60.7196 80.1068 60.6746 80.0472 60.6176C79.9877 60.5607 79.9403 60.4928 79.9077 60.4179C79.8751 60.3431 79.858 60.2627 79.8574 60.1814C79.8568 60.1001 79.8726 60.0195 79.9041 59.9442C79.9679 59.7917 80.0912 59.67 80.2471 59.606C80.4029 59.542 80.5785 59.5408 80.7352 59.6027C80.8919 59.6649 81.0168 59.785 81.0826 59.9367C81.1483 60.0884 81.1495 60.2594 81.0859 60.412C81.0382 60.5279 80.956 60.6273 80.8497 60.6973C80.7434 60.7673 80.618 60.8047 80.4897 60.8046C80.4093 60.8072 80.3292 60.7932 80.2548 60.7636V60.75ZM81.4401 57.6292C81.3593 57.6058 81.2841 57.567 81.2187 57.5151C81.1534 57.4632 81.0993 57.3992 81.0595 57.3268C81.0197 57.2544 80.9951 57.1751 80.987 57.0933C80.9789 57.0116 80.9875 56.9292 81.0123 56.8507C81.0371 56.7722 81.0776 56.6992 81.1314 56.636C81.1852 56.5727 81.2513 56.5204 81.3259 56.482C81.4004 56.4436 81.4821 56.42 81.5661 56.4123C81.6501 56.4047 81.7348 56.4133 81.8154 56.4376C81.9773 56.4857 82.1131 56.5942 82.1932 56.7393C82.2733 56.8845 82.2913 57.0546 82.2432 57.2126C82.2028 57.3416 82.1211 57.4545 82.0101 57.535C81.899 57.6154 81.7645 57.6592 81.626 57.6599C81.5635 57.6645 81.5007 57.6587 81.4401 57.6428V57.6292ZM82.3379 54.423C82.1717 54.3877 82.0264 54.2903 81.9333 54.1517C81.8401 54.0132 81.8066 53.8445 81.8399 53.6821C81.8745 53.5201 81.9737 53.3781 82.1157 53.2872C82.2577 53.1963 82.431 53.164 82.5975 53.1973C82.7636 53.2318 82.9092 53.3284 83.0029 53.4663C83.0967 53.6042 83.1312 53.7724 83.099 53.9348C83.0699 54.0752 82.9918 54.2015 82.8781 54.2923C82.7643 54.3832 82.6218 54.433 82.4747 54.4333C82.4293 54.4381 82.3835 54.4393 82.3379 54.4367V54.423ZM82.9446 51.1452C82.7779 51.1254 82.6258 51.0429 82.5209 50.9152C82.416 50.7876 82.3667 50.625 82.3835 50.4623C82.4029 50.2996 82.4875 50.151 82.6188 50.0487C82.7502 49.9464 82.9177 49.8987 83.0849 49.916C83.2516 49.9357 83.4037 50.0182 83.5086 50.1459C83.6136 50.2736 83.6629 50.4362 83.646 50.5989C83.6266 50.7501 83.5516 50.8894 83.435 50.9911C83.3183 51.0927 83.1678 51.1499 83.0113 51.152L82.9446 51.1452ZM83.2568 47.8332C83.1723 47.831 83.0892 47.8125 83.0121 47.7787C82.9351 47.745 82.8657 47.6968 82.808 47.6367C82.7502 47.5767 82.7053 47.5061 82.6758 47.4291C82.6463 47.352 82.6327 47.27 82.636 47.1878C82.6387 47.1059 82.6581 47.0253 82.6929 46.9507C82.7277 46.8761 82.7774 46.8089 82.839 46.7531C82.9006 46.6972 82.973 46.6538 83.0519 46.6252C83.1308 46.5967 83.2147 46.5837 83.2989 46.5869C83.4679 46.5923 83.6279 46.6623 83.7441 46.7819C83.8603 46.9014 83.9234 47.0608 83.9196 47.2254C83.9133 47.3876 83.8431 47.5412 83.7236 47.6543C83.6042 47.7675 83.4445 47.8315 83.2778 47.8332H83.2568ZM82.5975 43.9305C82.5889 43.7653 82.6479 43.6035 82.7616 43.4806C82.8754 43.3577 83.0345 43.2837 83.2042 43.2749C83.2885 43.2703 83.3729 43.2819 83.4526 43.3091C83.5322 43.3363 83.6056 43.3786 83.6685 43.4335C83.7314 43.4883 83.7825 43.5548 83.819 43.6289C83.8555 43.7031 83.8766 43.7835 83.881 43.8656C83.8896 44.0308 83.8306 44.1926 83.7169 44.3155C83.6031 44.4384 83.444 44.5123 83.2743 44.5212H83.2392C83.0752 44.5206 82.9175 44.4592 82.7983 44.3494C82.6791 44.2397 82.6073 44.0899 82.5975 43.9305ZM82.2783 40.6731C82.2659 40.5923 82.2701 40.51 82.2906 40.4308C82.3111 40.3516 82.3475 40.2772 82.3977 40.2118C82.4479 40.1464 82.511 40.0913 82.5832 40.0497C82.6554 40.0082 82.7353 39.981 82.8184 39.9697C82.9871 39.9463 83.1585 39.9887 83.2952 40.0879C83.4319 40.187 83.5227 40.3348 83.5479 40.499C83.568 40.662 83.5221 40.8262 83.42 40.9569C83.3179 41.0875 83.1675 41.1743 83.0008 41.1989H82.9096C82.7565 41.1996 82.6083 41.1465 82.4923 41.0492C82.3763 40.952 82.3003 40.8172 82.2783 40.6697V40.6731ZM81.6611 37.443C81.6418 37.363 81.639 37.28 81.6528 37.1989C81.6665 37.1178 81.6966 37.0401 81.7412 36.9703C81.7858 36.9006 81.8442 36.8401 81.9129 36.7923C81.9816 36.7445 82.0593 36.7103 82.1415 36.6918C82.3075 36.6561 82.4813 36.6855 82.6251 36.7737C82.7689 36.8619 82.8711 37.0018 82.9096 37.163C82.9288 37.2426 82.9318 37.3251 82.9182 37.4058C82.9046 37.4865 82.8748 37.5638 82.8305 37.6333C82.7862 37.7028 82.7283 37.763 82.66 37.8107C82.5917 37.8583 82.5144 37.8923 82.4326 37.9108C82.3846 37.9232 82.335 37.9289 82.2853 37.9279C82.1403 37.9276 81.9997 37.8795 81.8863 37.7915C81.773 37.7034 81.6936 37.5806 81.6611 37.443ZM80.7598 34.2915C80.7335 34.2135 80.7232 34.1312 80.7296 34.0493C80.736 33.9674 80.7589 33.8876 80.797 33.8143C80.8351 33.7411 80.8877 33.6759 80.9517 33.6224C81.0157 33.5689 81.0899 33.5283 81.1701 33.5028C81.2502 33.4773 81.3347 33.4675 81.4188 33.474C81.5028 33.4805 81.5847 33.5031 81.6596 33.5406C81.7346 33.578 81.8013 33.6296 81.8557 33.6922C81.9101 33.7549 81.9512 33.8274 81.9767 33.9057C82.003 33.9835 82.0131 34.0655 82.0067 34.1472C82.0003 34.2288 81.9773 34.3084 81.9392 34.3814C81.9011 34.4543 81.8485 34.5193 81.7845 34.5724C81.7206 34.6255 81.6464 34.6658 81.5664 34.691C81.503 34.7114 81.4367 34.7218 81.37 34.7217C81.2362 34.7215 81.1058 34.681 80.9965 34.6059C80.8873 34.5307 80.8046 34.4244 80.7598 34.3017V34.2915ZM79.5814 31.2185C79.5478 31.1427 79.5303 31.0611 79.5299 30.9785C79.5294 30.8959 79.546 30.8141 79.5788 30.738C79.6115 30.6618 79.6596 30.5928 79.7204 30.5352C79.7811 30.4775 79.8531 30.4324 79.9321 30.4025C80.0103 30.3702 80.0943 30.3535 80.1792 30.3532C80.2641 30.353 80.3483 30.3692 80.4266 30.401C80.505 30.4328 80.5761 30.4795 80.6357 30.5384C80.6953 30.5973 80.7423 30.6671 80.7738 30.7439C80.8388 30.8979 80.8383 31.0706 80.7726 31.2243C80.7068 31.3779 80.5811 31.4999 80.4231 31.5634C80.3432 31.5963 80.2574 31.6137 80.1706 31.6146C80.0451 31.6144 79.9224 31.5784 79.8176 31.5111C79.7129 31.4437 79.6308 31.3479 79.5814 31.2356V31.2185ZM78.126 28.2684C78.0475 28.1214 78.0314 27.9503 78.0813 27.7919C78.1312 27.6335 78.2429 27.5006 78.3925 27.4217C78.5428 27.3445 78.7184 27.3284 78.8807 27.3771C79.0431 27.4257 79.1791 27.5351 79.2588 27.6811C79.2986 27.7533 79.3234 27.8324 79.3318 27.9139C79.3401 27.9954 79.3318 28.0777 79.3074 28.1561C79.2829 28.2345 79.2428 28.3074 79.1893 28.3706C79.1359 28.4338 79.0701 28.4861 78.9957 28.5245C78.9032 28.5737 78.7995 28.5995 78.6941 28.5996C78.5793 28.6012 78.4661 28.573 78.3662 28.5177C78.2663 28.4625 78.1834 28.3823 78.126 28.2855V28.2684ZM76.4181 25.4515C76.3251 25.3124 76.2924 25.1431 76.3273 24.9805C76.3621 24.818 76.4616 24.6756 76.604 24.5843C76.747 24.4951 76.9204 24.4645 77.0865 24.499C77.2526 24.5335 77.398 24.6304 77.4912 24.7686C77.584 24.9072 77.6166 25.076 77.5817 25.238C77.5469 25.3999 77.4475 25.5418 77.3054 25.6325C77.201 25.6987 77.0792 25.7343 76.9547 25.7349C76.8498 25.7361 76.7461 25.7124 76.6527 25.666C76.5592 25.6197 76.4787 25.5519 76.4181 25.4686V25.4515ZM74.4647 22.7883C74.4121 22.7244 74.373 22.6509 74.3498 22.5722C74.3266 22.4935 74.3197 22.4111 74.3295 22.3298C74.3393 22.2484 74.3656 22.1698 74.4068 22.0985C74.4481 22.0271 74.5035 21.9645 74.5699 21.9142C74.6358 21.8629 74.7115 21.8248 74.7926 21.8021C74.8737 21.7795 74.9586 21.7727 75.0425 21.7823C75.1263 21.7918 75.2073 21.8174 75.2809 21.8576C75.3545 21.8978 75.4192 21.9519 75.4712 22.0166C75.5232 22.0811 75.5617 22.1551 75.5844 22.2341C75.6072 22.3131 75.6136 22.3958 75.6035 22.4773C75.5934 22.5588 75.567 22.6375 75.5256 22.709C75.4842 22.7806 75.4288 22.8434 75.3625 22.8941C75.2505 22.9799 75.1122 23.0268 74.9697 23.0273C74.8737 23.0301 74.7783 23.0116 74.6908 22.9731C74.6033 22.9347 74.526 22.8773 74.4647 22.8053V22.7883ZM72.2763 20.2991C72.1607 20.1775 72.0991 20.0163 72.105 19.8506C72.1109 19.685 72.1838 19.5283 72.3078 19.4148C72.4332 19.3027 72.5991 19.2433 72.7692 19.2497C72.9394 19.2561 73.1 19.3277 73.2162 19.4489C73.3309 19.5699 73.3917 19.7302 73.3851 19.8948C73.3785 20.0593 73.3051 20.2145 73.1811 20.3264C73.0651 20.4371 72.9087 20.4985 72.7462 20.4972C72.6593 20.4999 72.5728 20.4853 72.492 20.4542C72.4111 20.423 72.3377 20.3761 72.2763 20.3162V20.2991ZM69.8775 18.0046C69.7525 17.8931 69.6777 17.7381 69.6692 17.5733C69.6607 17.4084 69.7191 17.2469 69.8319 17.1237C69.8876 17.062 69.9554 17.0118 70.0313 16.976C70.1072 16.9401 70.1897 16.9194 70.274 16.9149C70.3582 16.9105 70.4425 16.9224 70.522 16.95C70.6014 16.9777 70.6744 17.0205 70.7367 17.0759C70.7999 17.1307 70.8512 17.1972 70.8878 17.2715C70.9244 17.3458 70.9454 17.4265 70.9496 17.5088C70.9539 17.5911 70.9413 17.6734 70.9125 17.7509C70.8838 17.8284 70.8395 17.8995 70.7823 17.9602C70.7226 18.0246 70.6495 18.0758 70.5678 18.1106C70.4862 18.1453 70.3979 18.1627 70.3088 18.1617C70.1522 18.1688 69.9984 18.1189 69.8775 18.0217V18.0046ZM67.2858 15.9218C67.1507 15.8216 67.0619 15.6733 67.0389 15.5095C67.0159 15.3456 67.0605 15.1796 67.163 15.0477C67.2132 14.9817 67.2763 14.926 67.3487 14.8839C67.4211 14.8417 67.5014 14.814 67.5849 14.8023C67.6684 14.7905 67.7534 14.795 67.8351 14.8154C67.9168 14.8359 67.9935 14.8719 68.0608 14.9214C68.1961 15.0222 68.285 15.1711 68.308 15.3355C68.331 15.4999 68.2863 15.6665 68.1836 15.7989C68.1241 15.8761 68.0467 15.9387 67.9577 15.9814C67.8688 16.0241 67.7707 16.0458 67.6715 16.0447C67.534 16.0473 67.3992 16.0079 67.2858 15.9321V15.9218ZM64.5187 14.0609C64.4475 14.0177 64.3858 13.9613 64.337 13.8948C64.2882 13.8283 64.2534 13.7531 64.2345 13.6735C64.2156 13.5939 64.213 13.5114 64.2269 13.4309C64.2408 13.3503 64.2708 13.2732 64.3153 13.2039C64.3598 13.1337 64.418 13.0728 64.4868 13.0246C64.5555 12.9765 64.6334 12.942 64.7159 12.9233C64.7984 12.9046 64.8838 12.9019 64.9674 12.9155C65.0509 12.9291 65.1309 12.9587 65.2026 13.0025C65.2756 13.0472 65.3387 13.1057 65.388 13.1745C65.4374 13.2434 65.4721 13.3212 65.4901 13.4033C65.5081 13.4854 65.509 13.5702 65.4927 13.6527C65.4765 13.7351 65.4434 13.8136 65.3955 13.8834C65.337 13.9721 65.2565 14.0451 65.1616 14.0958C65.0666 14.1465 64.9602 14.1732 64.8519 14.1736C64.7339 14.1723 64.6186 14.1393 64.5187 14.078V14.0609ZM61.5939 12.4459C61.4429 12.3701 61.329 12.2391 61.2771 12.0817C61.2252 11.9242 61.2394 11.7532 61.3168 11.606C61.355 11.5329 61.4077 11.4679 61.4719 11.4147C61.536 11.3615 61.6103 11.3213 61.6905 11.2962C61.7707 11.2711 61.8552 11.2617 61.9391 11.2686C62.0231 11.2755 62.1048 11.2984 62.1795 11.3362C62.2546 11.3734 62.3214 11.4247 62.376 11.4872C62.4306 11.5496 62.472 11.6219 62.4977 11.7C62.5235 11.7781 62.5331 11.8604 62.526 11.9421C62.519 12.0238 62.4954 12.1034 62.4566 12.1762C62.4032 12.2791 62.3215 12.3656 62.2205 12.4259C62.1196 12.4862 62.0034 12.5179 61.8849 12.5176C61.7849 12.5209 61.6854 12.5023 61.5939 12.463V12.4459ZM58.5393 11.0801C58.461 11.0498 58.3896 11.0045 58.3295 10.9471C58.2694 10.8896 58.2216 10.821 58.1889 10.7454C58.1563 10.6698 58.1394 10.5885 58.1394 10.5065C58.1393 10.4244 58.156 10.3432 58.1885 10.2675C58.2523 10.115 58.3757 9.99334 58.5315 9.92932C58.6874 9.8653 58.863 9.86412 59.0197 9.92605C59.1769 9.98957 59.3019 10.111 59.3676 10.2638C59.4333 10.4166 59.4343 10.5885 59.3704 10.7421C59.3232 10.8574 59.2414 10.9563 59.1357 11.0257C59.03 11.0951 58.9052 11.1319 58.7777 11.1314C58.6966 11.1366 58.6153 11.125 58.5393 11.0972V11.0801ZM55.3829 9.98752C55.2207 9.93802 55.0853 9.82789 55.0064 9.6813C54.9275 9.53471 54.9116 9.36363 54.9621 9.2056C54.9865 9.12723 55.0266 9.05433 55.0801 8.9911C55.1336 8.92786 55.1993 8.87555 55.2736 8.83715C55.3479 8.79876 55.4293 8.77505 55.5131 8.76738C55.5968 8.75971 55.6813 8.76823 55.7617 8.79246C55.9244 8.84057 56.0608 8.94958 56.141 9.09554C56.2212 9.2415 56.2387 9.41248 56.1895 9.57095C56.1479 9.69859 56.0657 9.81005 55.9547 9.88922C55.8438 9.96839 55.7099 10.0112 55.5723 10.0114C55.5045 10.0185 55.436 10.0162 55.3689 10.0046L55.3829 9.98752ZM52.1319 9.16123C52.0492 9.1446 51.9708 9.11217 51.9011 9.06583C51.8314 9.01949 51.7718 8.96014 51.7258 8.89123C51.6798 8.82232 51.6483 8.74521 51.6332 8.66438C51.618 8.58354 51.6194 8.50058 51.6374 8.42029C51.6549 8.34047 51.6884 8.26479 51.7359 8.19757C51.7835 8.13035 51.8441 8.0729 51.9145 8.02851C51.9848 7.98413 52.0635 7.95367 52.1459 7.93887C52.2283 7.92407 52.313 7.92522 52.3949 7.94227C52.4777 7.95893 52.5563 7.99133 52.6261 8.03762C52.696 8.08391 52.7557 8.14318 52.802 8.21202C52.8483 8.28086 52.8801 8.35793 52.8957 8.43878C52.9113 8.51964 52.9104 8.6027 52.8929 8.6832C52.8617 8.82262 52.7824 8.94744 52.6682 9.03689C52.554 9.12634 52.4118 9.17503 52.2652 9.17488C52.2165 9.18239 52.1669 9.18354 52.1179 9.17829L52.1319 9.16123ZM48.8143 8.62174C48.6488 8.60038 48.4985 8.51714 48.395 8.38965C48.2916 8.26217 48.2432 8.10047 48.2602 7.93885C48.2795 7.77643 48.3642 7.6281 48.4957 7.52634C48.6271 7.42459 48.7947 7.3777 48.9616 7.39596C49.128 7.41566 49.2798 7.49834 49.3841 7.62612C49.4885 7.75391 49.537 7.91652 49.5192 8.07884C49.5003 8.22973 49.4253 8.36865 49.3083 8.46932C49.1913 8.57 49.0405 8.62544 48.8844 8.62516H48.8037L48.8143 8.62174Z" fill="white"/>
<path d="M37.0555 84.4328C36.8869 84.4084 36.7351 84.3199 36.6333 84.1869C36.5314 84.0538 36.4878 83.8869 36.5119 83.7226C36.537 83.5594 36.6275 83.4125 36.7635 83.314C36.8995 83.2155 37.07 83.1733 37.2378 83.1968C37.3214 83.2081 37.4017 83.2354 37.4744 83.2771C37.547 83.3188 37.6104 83.3742 37.661 83.4399C37.7115 83.5056 37.7482 83.5804 37.7688 83.66C37.7895 83.7396 37.7938 83.8224 37.7814 83.9036C37.7596 84.0518 37.6838 84.1874 37.568 84.2857C37.4521 84.3841 37.3039 84.4387 37.1502 84.4397L37.0555 84.4328ZM33.6431 83.7978C33.5613 83.7793 33.484 83.7452 33.4158 83.6976C33.3475 83.65 33.2895 83.5897 33.2452 83.5203C33.2009 83.4508 33.1711 83.3735 33.1575 83.2928C33.144 83.2121 33.1469 83.1296 33.1662 83.05C33.1851 82.97 33.2202 82.8944 33.2693 82.8277C33.3185 82.7609 33.3807 82.7043 33.4525 82.6612C33.5242 82.618 33.604 82.5891 33.6873 82.5761C33.7706 82.5632 33.8557 82.5664 33.9377 82.5856C34.1032 82.6238 34.2464 82.7243 34.3358 82.8651C34.4253 83.006 34.4536 83.1756 34.4147 83.3368C34.3808 83.4731 34.3008 83.5944 34.1876 83.6811C34.0744 83.7678 33.9345 83.8149 33.7904 83.8148C33.7407 83.8159 33.6912 83.8102 33.6431 83.7978ZM30.3009 82.8793C30.221 82.8531 30.1472 82.8118 30.0836 82.7578C30.0201 82.7038 29.9681 82.6382 29.9306 82.5646C29.8932 82.491 29.871 82.411 29.8653 82.3291C29.8597 82.2471 29.8706 82.1649 29.8976 82.0871C29.9238 82.0096 29.9654 81.9378 30.0202 81.876C30.075 81.8142 30.1418 81.7636 30.2168 81.7271C30.2918 81.6906 30.3735 81.6689 30.4572 81.6633C30.5408 81.6577 30.6248 81.6683 30.7042 81.6945C30.8655 81.7467 30.9989 81.8591 31.0751 82.0069C31.1514 82.1548 31.1643 82.3261 31.111 82.4832C31.0691 82.6078 30.9879 82.7165 30.879 82.7937C30.7701 82.8709 30.639 82.9128 30.5043 82.9134C30.4352 82.9119 30.3666 82.9004 30.3009 82.8793ZM27.0534 81.6774C26.9761 81.6451 26.9061 81.5982 26.8475 81.5394C26.7889 81.4807 26.7428 81.4113 26.7118 81.3351C26.6808 81.259 26.6657 81.1776 26.6671 81.0957C26.6686 81.0138 26.6866 80.933 26.7202 80.8579C26.7855 80.7041 26.9107 80.5817 27.0685 80.5177C27.2263 80.4537 27.4038 80.4532 27.5619 80.5165C27.6408 80.5472 27.7125 80.5929 27.773 80.6509C27.8335 80.709 27.8815 80.7782 27.9141 80.8545C27.9468 80.9308 27.9635 81.0127 27.9632 81.0954C27.963 81.178 27.9458 81.2598 27.9126 81.3359C27.8639 81.4475 27.7823 81.5425 27.678 81.6088C27.5737 81.6751 27.4515 81.7097 27.327 81.7081C27.2346 81.7166 27.1414 81.7062 27.0534 81.6774ZM23.9287 80.2023C23.8546 80.1637 23.7892 80.1112 23.736 80.0478C23.6829 79.9844 23.6431 79.9115 23.619 79.8331C23.5949 79.7548 23.5869 79.6726 23.5955 79.5912C23.6041 79.5098 23.6292 79.4309 23.6691 79.359C23.7085 79.2866 23.7623 79.2225 23.8273 79.1706C23.8923 79.1186 23.9673 79.0797 24.0479 79.0562C24.1286 79.0327 24.2131 79.025 24.2968 79.0336C24.3805 79.0422 24.4616 79.0669 24.5354 79.1063C24.6097 79.1447 24.6755 79.197 24.7289 79.2603C24.7823 79.3236 24.8223 79.3967 24.8464 79.4751C24.8706 79.5536 24.8784 79.636 24.8696 79.7174C24.8607 79.7989 24.8353 79.8779 24.7949 79.9497C24.7423 80.0511 24.6622 80.1365 24.5633 80.1967C24.4644 80.2569 24.3504 80.2896 24.2338 80.2911C24.126 80.2873 24.021 80.2567 23.9287 80.2023ZM20.9442 78.4678C20.8026 78.3766 20.7039 78.2345 20.6697 78.0726C20.6356 77.9106 20.6687 77.7422 20.7618 77.604C20.8555 77.4661 21.0015 77.3701 21.1678 77.3368C21.3341 77.3035 21.5071 77.3357 21.6491 77.4264C21.7912 77.5171 21.8906 77.659 21.9255 77.8209C21.9603 77.9829 21.9278 78.1517 21.835 78.2903C21.776 78.3765 21.6963 78.4475 21.6028 78.4969C21.5093 78.5463 21.4048 78.5726 21.2984 78.5737C21.1721 78.5735 21.0488 78.5366 20.9442 78.4678ZM18.1386 76.4909C18.0056 76.3876 17.9203 76.2371 17.9012 76.0726C17.8821 75.9081 17.9309 75.7429 18.0369 75.6133C18.0888 75.5491 18.1533 75.4955 18.2266 75.4556C18.2999 75.4157 18.3805 75.3903 18.4639 75.3807C18.5473 75.3712 18.6318 75.3778 18.7126 75.4002C18.7934 75.4225 18.8688 75.4601 18.9347 75.5109C19.0673 75.6142 19.1527 75.7643 19.1724 75.9286C19.1921 76.0929 19.1445 76.2581 19.0399 76.3884C18.9794 76.4623 18.9026 76.5219 18.8151 76.5627C18.7277 76.6035 18.6318 76.6245 18.5348 76.624C18.3878 76.6248 18.2447 76.5779 18.128 76.4909H18.1386ZM15.5118 74.2817C15.388 74.1688 15.3152 74.0127 15.3093 73.8476C15.3034 73.6825 15.3648 73.5219 15.4802 73.4008C15.597 73.279 15.7586 73.2074 15.9296 73.2016C16.1006 73.1959 16.2669 73.2564 16.3921 73.3701C16.5151 73.4845 16.5867 73.6417 16.5913 73.8073C16.5959 73.9729 16.5331 74.1336 16.4166 74.2544C16.3563 74.3157 16.2839 74.3645 16.2037 74.3979C16.1236 74.4314 16.0374 74.4488 15.9502 74.449C15.7839 74.4523 15.6228 74.3923 15.5013 74.2817H15.5118ZM13.0884 71.8609C13.0318 71.7998 12.9882 71.7284 12.96 71.6508C12.9319 71.5732 12.9197 71.4909 12.9243 71.4088C12.9288 71.3266 12.95 71.2461 12.9866 71.1719C13.0232 71.0978 13.0745 71.0314 13.1375 70.9765C13.2652 70.8665 13.4323 70.8102 13.6025 70.8198C13.7727 70.8294 13.9321 70.9041 14.0459 71.0278C14.1578 71.1518 14.215 71.3139 14.2051 71.4787C14.1953 71.6436 14.1192 71.798 13.9932 71.9087C13.8754 72.0111 13.7233 72.0681 13.5654 72.0692C13.4735 72.0706 13.3824 72.0528 13.2983 72.0169C13.2142 71.9809 13.139 71.9277 13.0779 71.8609H13.0884ZM10.886 69.242C10.7839 69.1097 10.7398 68.9434 10.7635 68.7795C10.7872 68.6157 10.8766 68.4676 11.0123 68.3679C11.0796 68.3184 11.1563 68.2824 11.238 68.262C11.3197 68.2415 11.4048 68.237 11.4882 68.2488C11.5717 68.2605 11.652 68.2883 11.7244 68.3304C11.7968 68.3725 11.8599 68.4282 11.9101 68.4942C12.0122 68.6265 12.0563 68.7928 12.0326 68.9567C12.0089 69.1206 11.9195 69.2686 11.7838 69.3683C11.6717 69.4478 11.5367 69.4908 11.3981 69.4913C11.2969 69.493 11.1968 69.4713 11.1059 69.428C11.015 69.3846 10.9361 69.3209 10.8755 69.242H10.886ZM8.93261 66.4661C8.84253 66.3257 8.81334 66.1562 8.85148 65.9949C8.88962 65.8335 8.99196 65.6936 9.13602 65.6056C9.28132 65.5194 9.4557 65.4926 9.62121 65.531C9.78672 65.5694 9.92996 65.6698 10.0198 65.8105C10.0641 65.88 10.094 65.9573 10.1076 66.038C10.1212 66.1187 10.1183 66.2012 10.0991 66.2808C10.0799 66.3605 10.0447 66.4356 9.99557 66.502C9.94645 66.5683 9.88437 66.6246 9.81287 66.6675C9.70799 66.7319 9.58613 66.7651 9.46217 66.7631C9.35529 66.7613 9.25063 66.7331 9.158 66.6812C9.06538 66.6292 8.98782 66.5552 8.93261 66.4661ZM7.2317 63.516C7.15619 63.3679 7.14406 63.1967 7.19796 63.0399C7.25186 62.8831 7.36741 62.7535 7.51928 62.6794C7.5943 62.6425 7.6761 62.6203 7.75996 62.6142C7.84381 62.6081 7.92809 62.6182 8.00793 62.6439C8.08778 62.6696 8.16161 62.7104 8.22521 62.7639C8.2888 62.8175 8.3409 62.8828 8.3785 62.956C8.45441 63.1042 8.46716 63.2756 8.41396 63.4329C8.36076 63.5902 8.24592 63.7207 8.09442 63.796C8.00504 63.8391 7.90659 63.8613 7.80685 63.8608C7.68291 63.8639 7.56081 63.8312 7.45596 63.7668C7.35111 63.7023 7.26819 63.6091 7.21767 63.4989L7.2317 63.516ZM5.79381 60.443C5.73116 60.2903 5.73285 60.1198 5.7985 59.9683C5.86415 59.8168 5.98847 59.6966 6.14452 59.6338C6.30175 59.5717 6.47782 59.5728 6.63423 59.6368C6.79065 59.7008 6.91467 59.8224 6.97919 59.9752C7.0111 60.0505 7.02734 60.1312 7.02696 60.2126C7.02657 60.294 7.00956 60.3746 6.97693 60.4495C6.9443 60.5245 6.89669 60.5924 6.83688 60.6493C6.77706 60.7062 6.70623 60.751 6.62849 60.781C6.55459 60.8132 6.47446 60.8295 6.39352 60.8288C6.2597 60.8313 6.1284 60.7932 6.01781 60.7198C5.90722 60.6464 5.82281 60.5413 5.77628 60.4191L5.79381 60.443ZM4.64351 57.2505C4.61922 57.1723 4.61103 57.0901 4.6194 57.0088C4.62776 56.9274 4.65253 56.8485 4.69227 56.7765C4.73201 56.7045 4.78596 56.6409 4.85101 56.5892C4.91606 56.5375 4.99094 56.4989 5.07137 56.4754C5.15173 56.4512 5.23622 56.4426 5.31998 56.4503C5.40373 56.458 5.48511 56.4817 5.55942 56.5201C5.63373 56.5585 5.6995 56.6108 5.75297 56.6741C5.80644 56.7373 5.84654 56.8102 5.87097 56.8886C5.89572 56.9672 5.90418 57.0499 5.89584 57.1318C5.88751 57.2137 5.86255 57.2932 5.82242 57.3656C5.78229 57.438 5.72779 57.5019 5.66208 57.5537C5.59636 57.6054 5.52074 57.644 5.43961 57.667C5.38102 57.6872 5.31937 57.6976 5.25724 57.6978C5.11383 57.6978 4.97444 57.6516 4.86086 57.5664C4.74728 57.4811 4.66592 57.3616 4.62949 57.2266L4.64351 57.2505ZM3.78779 53.9726C3.75359 53.8105 3.78681 53.6419 3.88017 53.5036C3.97353 53.3654 4.11941 53.2688 4.2858 53.2351C4.45227 53.2018 4.62551 53.2341 4.76752 53.325C4.90953 53.4159 5.00872 53.558 5.04332 53.72C5.07664 53.8824 5.04312 54.051 4.94998 54.1896C4.85683 54.3282 4.71151 54.4256 4.54531 54.4609C4.50097 54.4646 4.45639 54.4646 4.41204 54.4609C4.26071 54.4625 4.11365 54.412 3.99686 54.3183C3.88007 54.2246 3.80106 54.0937 3.77377 53.9487L3.78779 53.9726ZM3.23018 50.6401C3.21237 50.4778 3.26088 50.3152 3.36522 50.1874C3.46956 50.0596 3.62135 49.977 3.78779 49.9573C3.95469 49.9418 4.12124 49.9901 4.25216 50.0921C4.38308 50.1941 4.46809 50.3416 4.4892 50.5036C4.50505 50.6666 4.45491 50.8292 4.34944 50.9567C4.24398 51.0843 4.09153 51.1667 3.92457 51.1864C3.90015 51.1898 3.87536 51.1898 3.85093 51.1864C3.69122 51.1853 3.53766 51.1263 3.42028 51.0209C3.30289 50.9154 3.23012 50.7711 3.21616 50.6162L3.23018 50.6401ZM2.96715 47.2633C2.96435 47.1815 2.97824 47.1001 3.008 47.0236C3.03777 46.9471 3.08283 46.8772 3.14056 46.8178C3.1983 46.7584 3.26758 46.7108 3.34436 46.6776C3.42115 46.6445 3.50393 46.6265 3.5879 46.6248C3.75755 46.6192 3.92254 46.6793 4.04676 46.792C4.17099 46.9046 4.24433 47.0606 4.25072 47.2257C4.25545 47.3918 4.19243 47.5529 4.07544 47.6738C3.95845 47.7948 3.79702 47.8657 3.62647 47.871H3.60894C3.52436 47.8706 3.4407 47.8539 3.36278 47.8218C3.28486 47.7898 3.21422 47.7431 3.15491 47.6844C3.09559 47.6257 3.04877 47.5562 3.01715 47.4798C2.98553 47.4034 2.96974 47.3217 2.97066 47.2394L2.96715 47.2633ZM3.60894 44.5317C3.43928 44.5229 3.28013 44.4489 3.1664 44.326C3.05267 44.2031 2.99362 44.0413 3.00222 43.8761C3.01218 43.7107 3.08891 43.5557 3.2157 43.4451C3.34248 43.3344 3.50903 43.277 3.67908 43.2854C3.84874 43.2943 4.00789 43.3682 4.12162 43.4911C4.23535 43.614 4.29439 43.7758 4.2858 43.941C4.27599 44.1005 4.20417 44.2503 4.08495 44.36C3.96573 44.4697 3.80807 44.5311 3.64401 44.5317H3.60894ZM3.88249 41.2163C3.79928 41.2046 3.71925 41.177 3.64702 41.1351C3.57479 41.0932 3.51177 41.0378 3.46159 40.9722C3.4114 40.9065 3.37504 40.8318 3.35458 40.7524C3.33413 40.673 3.32999 40.5904 3.34241 40.5095C3.35315 40.4285 3.38038 40.3503 3.4225 40.2797C3.46463 40.209 3.52081 40.1472 3.58775 40.0979C3.65469 40.0487 3.73106 40.0129 3.81238 39.9927C3.89369 39.9724 3.97833 39.9682 4.06134 39.9803C4.14484 39.9912 4.2253 40.018 4.29807 40.0594C4.37085 40.1007 4.4345 40.1556 4.48536 40.221C4.53622 40.2864 4.57328 40.3609 4.59441 40.4403C4.61553 40.5197 4.6203 40.6024 4.60845 40.6836C4.58652 40.8324 4.51028 40.9684 4.3937 41.0669C4.27712 41.1653 4.12799 41.2196 3.97367 41.2197H3.88249V41.2163ZM4.45764 37.9316C4.37533 37.9143 4.29739 37.8812 4.22836 37.8342C4.15932 37.7873 4.10057 37.7274 4.05553 37.6581C4.01049 37.5888 3.98004 37.5115 3.96599 37.4307C3.95194 37.3498 3.95455 37.2671 3.97367 37.1872C4.01291 37.0267 4.11548 36.8876 4.2592 36.8001C4.40292 36.7125 4.57624 36.6836 4.74171 36.7195C4.82397 36.738 4.90169 36.7721 4.97039 36.8199C5.03909 36.8677 5.09742 36.9282 5.14206 36.998C5.18669 37.0678 5.21675 37.1454 5.23049 37.2265C5.24424 37.3077 5.24141 37.3906 5.22218 37.4706C5.18774 37.6076 5.10722 37.7294 4.99346 37.8166C4.8797 37.9039 4.73923 37.9515 4.59442 37.9521C4.54255 37.949 4.49158 37.9374 4.44362 37.9179L4.45764 37.9316ZM5.31686 34.7152C5.23683 34.69 5.16269 34.6497 5.09871 34.5966C5.03473 34.5435 4.98217 34.4785 4.94404 34.4056C4.90591 34.3326 4.88296 34.253 4.87653 34.1714C4.87009 34.0897 4.88029 34.0077 4.90654 33.9299C4.95879 33.7724 5.07307 33.6416 5.22429 33.566C5.3755 33.4905 5.55131 33.4765 5.71316 33.527C5.87246 33.5779 6.00496 33.6876 6.0823 33.8324C6.15964 33.9773 6.17568 34.1458 6.12699 34.302C6.08503 34.4267 6.00386 34.5353 5.89496 34.6125C5.78607 34.6897 5.65498 34.7316 5.52027 34.7323C5.44711 34.7379 5.37352 34.7309 5.30283 34.7118L5.31686 34.7152ZM6.46366 31.5807C6.38481 31.55 6.31306 31.5043 6.25258 31.4463C6.1921 31.3883 6.14413 31.319 6.11147 31.2427C6.07881 31.1664 6.06212 31.0845 6.06237 31.0019C6.06263 30.9192 6.07982 30.8374 6.11295 30.7613C6.14372 30.6843 6.19009 30.6142 6.24929 30.5551C6.3085 30.496 6.37934 30.4491 6.45757 30.4172C6.5358 30.3854 6.61982 30.3692 6.70463 30.3696C6.78943 30.3701 6.87326 30.3871 6.95114 30.4198C7.02986 30.4502 7.10155 30.4955 7.16199 30.5532C7.22243 30.611 7.2704 30.6799 7.30308 30.7559C7.33576 30.8319 7.35249 30.9136 7.35227 30.996C7.35206 31.0784 7.33491 31.16 7.30184 31.2359C7.25338 31.3491 7.17156 31.4459 7.06672 31.5139C6.96187 31.582 6.83868 31.6183 6.71266 31.6183C6.62228 31.6192 6.53269 31.6018 6.44964 31.5671L6.46366 31.5807ZM7.88751 28.5555C7.81318 28.5171 7.7474 28.4649 7.69391 28.4016C7.64042 28.3384 7.6003 28.2655 7.57586 28.1871C7.55142 28.1087 7.54312 28.0264 7.55147 27.9449C7.55981 27.8634 7.58463 27.7843 7.62448 27.7122C7.70419 27.5661 7.84014 27.4568 8.00252 27.4081C8.1649 27.3595 8.34046 27.3755 8.49072 27.4527C8.64099 27.5309 8.75336 27.6639 8.8033 27.8226C8.85323 27.9812 8.83669 28.1526 8.75726 28.2994C8.70412 28.4011 8.62341 28.4867 8.52387 28.5469C8.42434 28.6071 8.30979 28.6396 8.19263 28.6409C8.08147 28.6351 7.97382 28.601 7.8805 28.5419L7.88751 28.5555ZM9.5814 25.6635C9.43868 25.5734 9.33858 25.4317 9.30307 25.2698C9.26756 25.1078 9.29955 24.9387 9.39203 24.7996C9.48524 24.6614 9.63065 24.5645 9.79676 24.53C9.96286 24.4955 10.1363 24.5261 10.2793 24.6153C10.3502 24.6602 10.4112 24.7183 10.4589 24.7863C10.5067 24.8542 10.5401 24.9307 10.5574 25.0113C10.5747 25.0919 10.5754 25.175 10.5596 25.2559C10.5438 25.3367 10.5117 25.4138 10.4652 25.4825C10.4067 25.5692 10.3271 25.6405 10.2335 25.6899C10.1399 25.7394 10.0351 25.7655 9.92861 25.7659C9.79877 25.7645 9.67256 25.724 9.56738 25.6499L9.5814 25.6635ZM11.5208 22.932C11.4543 22.8813 11.3988 22.8184 11.3575 22.7467C11.3162 22.6751 11.2899 22.5962 11.2801 22.5146C11.2703 22.433 11.2773 22.3503 11.3005 22.2713C11.3238 22.1923 11.3629 22.1186 11.4156 22.0544C11.4676 21.9902 11.532 21.9366 11.6053 21.8967C11.6786 21.8568 11.7592 21.8313 11.8426 21.8218C11.926 21.8123 12.0106 21.8189 12.0913 21.8412C12.1721 21.8636 12.2476 21.9012 12.3134 21.952C12.3796 22.0024 12.435 22.065 12.4763 22.1362C12.5176 22.2074 12.5441 22.2859 12.5542 22.3671C12.5643 22.4483 12.5578 22.5306 12.5351 22.6094C12.5125 22.6882 12.4741 22.7618 12.4221 22.8261C12.3617 22.9011 12.2844 22.9616 12.1963 23.003C12.1082 23.0444 12.0114 23.0657 11.9136 23.0651C11.7638 23.0615 11.6199 23.0071 11.5068 22.9115L11.5208 22.932ZM13.7022 20.3643C13.6401 20.3091 13.5901 20.2425 13.5548 20.1683C13.5196 20.0941 13.4999 20.0137 13.497 19.932C13.4941 19.8503 13.5079 19.7688 13.5377 19.6924C13.5675 19.6159 13.6127 19.546 13.6706 19.4868C13.7868 19.3656 13.9474 19.294 14.1175 19.2876C14.2877 19.2812 14.4535 19.3405 14.5789 19.4526C14.7016 19.5671 14.7733 19.7239 14.7785 19.8892C14.7838 20.0546 14.7222 20.2154 14.607 20.337C14.5471 20.4 14.4743 20.4501 14.3934 20.4842C14.3125 20.5183 14.2252 20.5356 14.137 20.535C14.0528 20.5345 13.9696 20.5172 13.8924 20.4844C13.8152 20.4515 13.7457 20.4037 13.6881 20.3438L13.7022 20.3643ZM16.087 17.981C15.974 17.8572 15.9154 17.6952 15.9239 17.5298C15.9325 17.3644 16.0074 17.2088 16.1325 17.0967C16.1948 17.0412 16.2678 16.9985 16.3472 16.9708C16.4267 16.9432 16.511 16.9313 16.5952 16.9357C16.6795 16.9402 16.762 16.9609 16.8379 16.9967C16.9138 17.0326 16.9816 17.0828 17.0373 17.1445C17.1501 17.2677 17.2086 17.4292 17.2 17.594C17.1915 17.7589 17.1167 17.9138 16.9917 18.0254C16.8734 18.1288 16.7194 18.1849 16.5604 18.1825C16.4713 18.1835 16.383 18.1661 16.3014 18.1314C16.2198 18.0966 16.1467 18.0454 16.087 17.981ZM18.6892 15.8197C18.6374 15.7545 18.5995 15.6799 18.5776 15.6002C18.5558 15.5206 18.5504 15.4376 18.5618 15.3559C18.5732 15.2742 18.6012 15.1956 18.6442 15.1246C18.6871 15.0535 18.7441 14.9915 18.8119 14.9422C18.8792 14.8927 18.9559 14.8567 19.0376 14.8362C19.1193 14.8158 19.2044 14.8113 19.2879 14.823C19.3713 14.8348 19.4516 14.8625 19.524 14.9046C19.5964 14.9468 19.6595 15.0025 19.7097 15.0685C19.8122 15.2003 19.8569 15.3664 19.8338 15.5302C19.8108 15.6941 19.7221 15.8424 19.587 15.9426C19.4735 16.0221 19.3374 16.0651 19.1977 16.0655C19.0988 16.0654 19.0014 16.0428 18.9131 15.9995C18.8248 15.9562 18.7481 15.8935 18.6892 15.8163V15.8197ZM21.4667 13.8871C21.4217 13.8173 21.3914 13.7394 21.3774 13.6581C21.3635 13.5767 21.3662 13.4935 21.3854 13.4132C21.4047 13.3329 21.44 13.2571 21.4895 13.1902C21.539 13.1233 21.6015 13.0665 21.6736 13.0232C21.7448 12.9796 21.8242 12.9502 21.9072 12.9367C21.9902 12.9232 22.0751 12.9259 22.1571 12.9446C22.239 12.9634 22.3162 12.9978 22.3844 13.0459C22.4525 13.094 22.5101 13.1547 22.5539 13.2247C22.5984 13.294 22.6285 13.3711 22.6423 13.4517C22.6562 13.5322 22.6536 13.6147 22.6347 13.6943C22.6158 13.7739 22.581 13.8491 22.5322 13.9156C22.4835 13.982 22.4217 14.0385 22.3505 14.0817C22.2459 14.1466 22.1238 14.1799 21.9998 14.1773C21.8931 14.1743 21.7888 14.146 21.6959 14.0948C21.603 14.0437 21.5243 13.9712 21.4667 13.8837V13.8871ZM24.4126 12.1799C24.3738 12.1071 24.3502 12.0275 24.3432 11.9458C24.3361 11.8641 24.3458 11.7818 24.3715 11.7037C24.3973 11.6257 24.4386 11.5533 24.4932 11.4909C24.5478 11.4284 24.6146 11.3771 24.6897 11.3399C24.7644 11.3022 24.8462 11.2792 24.9301 11.2723C25.014 11.2655 25.0985 11.2748 25.1787 11.2999C25.2589 11.325 25.3332 11.3652 25.3974 11.4184C25.4615 11.4716 25.5142 11.5366 25.5524 11.6097C25.5912 11.6825 25.6148 11.762 25.6219 11.8437C25.6289 11.9255 25.6193 12.0077 25.5935 12.0858C25.5678 12.1639 25.5264 12.2362 25.4718 12.2987C25.4172 12.3611 25.3504 12.4124 25.2753 12.4496C25.1846 12.4924 25.0851 12.5146 24.9843 12.5145C24.8681 12.516 24.7537 12.487 24.6531 12.4306C24.5525 12.3741 24.4694 12.2922 24.4126 12.1935V12.1799ZM27.4988 10.7424C27.4349 10.5888 27.436 10.4169 27.5016 10.2641C27.5673 10.1113 27.6923 9.98987 27.8495 9.92635C28.0069 9.86613 28.1822 9.86813 28.3381 9.93191C28.494 9.99569 28.6182 10.1162 28.6842 10.2678C28.747 10.421 28.7454 10.592 28.6798 10.744C28.6142 10.8961 28.4898 11.0169 28.3335 11.0804C28.2586 11.1133 28.1771 11.1296 28.095 11.1282C27.969 11.1304 27.8451 11.0963 27.739 11.03C27.6329 10.9638 27.5493 10.8685 27.4988 10.7561V10.7424ZM30.7007 9.57467C30.6753 9.49667 30.666 9.41452 30.6734 9.333C30.6809 9.25148 30.7049 9.1722 30.744 9.09978C30.7832 9.02735 30.8367 8.96322 30.9015 8.9111C30.9663 8.85898 31.0411 8.81992 31.1216 8.79618C31.2022 8.77143 31.287 8.76249 31.3711 8.76991C31.4553 8.77732 31.5371 8.80094 31.6118 8.83937C31.6865 8.8778 31.7526 8.9303 31.8063 8.9938C31.86 9.05731 31.9003 9.13056 31.9247 9.20932C31.9496 9.28779 31.9584 9.37028 31.9506 9.45206C31.9427 9.53384 31.9184 9.61331 31.879 9.68594C31.8396 9.75856 31.7859 9.8229 31.7209 9.87529C31.6559 9.92767 31.5809 9.96706 31.5003 9.99122C31.4386 10.0076 31.3749 10.0156 31.3109 10.0151C31.1758 10.0165 31.0438 9.97583 30.934 9.89907C30.8242 9.8223 30.7425 9.71345 30.7007 9.58833V9.57467ZM33.9903 8.68691C33.9559 8.5249 33.9886 8.35623 34.0812 8.21751C34.1737 8.07879 34.3188 7.98122 34.4848 7.94598C34.567 7.92843 34.652 7.92689 34.7349 7.94145C34.8177 7.95601 34.8968 7.98639 34.9675 8.03082C35.0382 8.07525 35.0992 8.13286 35.147 8.20034C35.1948 8.26782 35.2284 8.34384 35.2458 8.42401C35.2638 8.5043 35.2653 8.58726 35.2501 8.66809C35.2349 8.74893 35.2034 8.82604 35.1574 8.89495C35.1114 8.96386 35.0519 9.02319 34.9821 9.06954C34.9124 9.11588 34.834 9.14831 34.7513 9.16493C34.7059 9.17013 34.66 9.17013 34.6146 9.16493C34.4724 9.16579 34.3339 9.12066 34.2209 9.03661C34.108 8.95256 34.0268 8.83437 33.9903 8.70057V8.68691ZM37.3535 8.08256C37.3367 7.92042 37.3855 7.75826 37.4897 7.63069C37.5939 7.50311 37.7451 7.42022 37.9112 7.39967C38.0777 7.38323 38.2443 7.43079 38.3753 7.53222C38.5063 7.63364 38.5915 7.78089 38.6126 7.94257C38.6295 8.10471 38.5806 8.26686 38.4764 8.39443C38.3723 8.52201 38.221 8.60491 38.055 8.62546H37.9778C37.8237 8.62711 37.6742 8.57444 37.5569 8.47717C37.4396 8.37989 37.3624 8.24458 37.3395 8.09621L37.3535 8.08256Z" fill="white"/>
<path d="M23.6616 65.2641C23.6016 65.2066 23.5539 65.1381 23.5214 65.0624C23.4889 64.9868 23.4721 64.9057 23.4721 64.8237C23.4721 64.7417 23.4889 64.6605 23.5214 64.5849C23.5539 64.5093 23.6016 64.4407 23.6616 64.3832C23.721 64.3247 23.7917 64.2782 23.8696 64.2465C23.9476 64.2148 24.0312 64.1984 24.1157 64.1984C24.2002 64.1984 24.2839 64.2148 24.3619 64.2465C24.4398 64.2782 24.5105 64.3247 24.5699 64.3832C24.6296 64.4413 24.677 64.5102 24.7093 64.586C24.7416 64.6619 24.7582 64.7433 24.7582 64.8254C24.7582 64.9075 24.7416 64.9888 24.7093 65.0647C24.677 65.1406 24.6296 65.2095 24.5699 65.2676C24.4499 65.3816 24.2887 65.4453 24.121 65.4451C24.036 65.4459 23.9516 65.4303 23.8728 65.3993C23.7939 65.3682 23.7221 65.3223 23.6616 65.2641ZM21.382 62.6828C21.331 62.6175 21.2938 62.543 21.2725 62.4636C21.2512 62.3842 21.2463 62.3014 21.258 62.2202C21.2698 62.1389 21.2979 62.0607 21.3409 61.9901C21.3838 61.9195 21.4407 61.8578 21.5083 61.8087C21.5747 61.7582 21.6509 61.7213 21.7324 61.7001C21.8138 61.6789 21.8988 61.6739 21.9822 61.6854C22.0657 61.6969 22.1459 61.7246 22.2181 61.7669C22.2903 61.8092 22.3531 61.8652 22.4026 61.9316C22.4538 61.9968 22.4912 62.0711 22.5128 62.1504C22.5343 62.2297 22.5396 62.3123 22.5282 62.3936C22.5168 62.4748 22.4889 62.5531 22.4463 62.6238C22.4037 62.6946 22.3471 62.7564 22.2798 62.8058C22.1677 62.8852 22.0327 62.9282 21.8941 62.9287C21.7932 62.9311 21.6931 62.9101 21.6022 62.8673C21.5113 62.8245 21.4322 62.7613 21.3715 62.6828H21.382ZM19.4461 59.8488C19.404 59.7778 19.3766 59.6993 19.3656 59.618C19.3546 59.5366 19.3602 59.4539 19.382 59.3746C19.4038 59.2954 19.4415 59.2211 19.4928 59.156C19.5441 59.0909 19.6081 59.0363 19.6811 58.9952C19.8283 58.913 20.0029 58.8905 20.167 58.9327C20.3311 58.9749 20.4715 59.0783 20.5579 59.2206C20.6 59.2917 20.6274 59.3701 20.6384 59.4515C20.6494 59.5328 20.6438 59.6155 20.622 59.6948C20.6002 59.774 20.5625 59.8483 20.5112 59.9134C20.4599 59.9785 20.3959 60.0332 20.3229 60.0742C20.2262 60.1294 20.1158 60.1577 20.0038 60.1561C19.8924 60.1561 19.783 60.1278 19.6865 60.0739C19.5899 60.0199 19.5094 59.9424 19.4532 59.8488H19.4461ZM17.8855 56.8032C17.8529 56.727 17.8361 56.6453 17.836 56.5627C17.836 56.4802 17.8528 56.3984 17.8854 56.3222C17.918 56.246 17.9658 56.1769 18.026 56.1188C18.0862 56.0607 18.1577 56.0148 18.2362 55.9837C18.3145 55.9519 18.3984 55.9355 18.4832 55.9355C18.568 55.9355 18.6519 55.9518 18.7302 55.9836C18.8084 56.0153 18.8794 56.0619 18.9391 56.1205C18.9988 56.1791 19.046 56.2487 19.0779 56.3251C19.1104 56.4008 19.1271 56.4821 19.1271 56.5641C19.127 56.6462 19.1102 56.7274 19.0775 56.803C19.0449 56.8787 18.9971 56.9472 18.9369 57.0047C18.8768 57.0622 18.8055 57.1074 18.7272 57.1378C18.6475 57.1714 18.5616 57.1888 18.4747 57.189C18.3466 57.1903 18.221 57.1542 18.1142 57.0855C18.0073 57.0167 17.924 56.9184 17.875 56.8032H17.8855ZM16.7247 53.5936C16.7011 53.5149 16.6938 53.4324 16.7031 53.351C16.7124 53.2695 16.7382 53.1907 16.7789 53.1189C16.8197 53.0472 16.8746 52.984 16.9405 52.9331C17.0065 52.8821 17.0821 52.8443 17.1631 52.8219C17.3268 52.7767 17.5022 52.7966 17.6509 52.8773C17.7995 52.9579 17.9091 53.0928 17.9557 53.2521C17.9791 53.3311 17.9863 53.4137 17.9768 53.4954C17.9673 53.577 17.9412 53.656 17.9001 53.7278C17.859 53.7995 17.8037 53.8626 17.7374 53.9134C17.6711 53.9643 17.5951 54.0018 17.5138 54.0238C17.4568 54.0399 17.3977 54.0479 17.3384 54.0477C17.1972 54.0509 17.0589 54.008 16.9457 53.9256C16.8326 53.8433 16.751 53.7264 16.7142 53.5936H16.7247ZM15.9742 50.2713C15.9612 50.1902 15.9648 50.1073 15.9848 50.0275C16.0047 49.9477 16.0406 49.8725 16.0905 49.8062C16.1403 49.7399 16.2031 49.6839 16.2752 49.6412C16.3473 49.5986 16.4274 49.5702 16.5108 49.5577C16.594 49.5446 16.679 49.5478 16.761 49.5671C16.8429 49.5864 16.9201 49.6214 16.988 49.67C17.0559 49.7186 17.1132 49.78 17.1565 49.8504C17.1998 49.9208 17.2283 49.9989 17.2402 50.0801C17.2537 50.1609 17.2505 50.2435 17.2309 50.323C17.2114 50.4026 17.1757 50.4776 17.1262 50.5437C17.0766 50.6098 17.014 50.6656 16.942 50.7079C16.8701 50.7503 16.7903 50.7783 16.7071 50.7903H16.609C16.4554 50.7933 16.3059 50.7426 16.1875 50.6473C16.069 50.5521 15.9896 50.4187 15.9637 50.2713H15.9742ZM15.655 46.8774C15.6522 46.7957 15.6661 46.7142 15.6959 46.6377C15.7257 46.5613 15.7707 46.4913 15.8285 46.4319C15.8862 46.3725 15.9555 46.3249 16.0322 46.2918C16.109 46.2586 16.1918 46.2407 16.2758 46.2389C16.3599 46.2357 16.4438 46.2487 16.5228 46.2773C16.6017 46.3058 16.6741 46.3492 16.7357 46.4051C16.7973 46.4609 16.8469 46.5281 16.8818 46.6027C16.9166 46.6773 16.9359 46.7579 16.9386 46.8398C16.9424 47.0057 16.8791 47.1663 16.7623 47.287C16.6455 47.4077 16.4846 47.4789 16.3144 47.4851C16.2291 47.4893 16.1438 47.4767 16.0636 47.4482C15.9835 47.4197 15.91 47.3758 15.8475 47.3191C15.7851 47.2624 15.7349 47.1942 15.7 47.1183C15.6652 47.0424 15.6463 46.9605 15.6445 46.8774H15.655ZM16.3564 44.1458C16.272 44.1386 16.1899 44.1151 16.1149 44.0768C16.0398 44.0384 15.9733 43.986 15.9192 43.9225C15.8651 43.859 15.8244 43.7857 15.7995 43.7068C15.7747 43.628 15.7661 43.5451 15.7743 43.4629C15.7912 43.2977 15.8743 43.1455 16.0055 43.0394C16.1368 42.9333 16.3057 42.8819 16.4757 42.8961C16.6455 42.9126 16.8017 42.9935 16.9107 43.1213C17.0197 43.2491 17.0725 43.4135 17.0579 43.579C17.043 43.7336 16.9692 43.8771 16.8511 43.9814C16.733 44.0857 16.579 44.1431 16.4196 44.1424H16.36L16.3564 44.1458ZM16.7983 40.8475C16.6325 40.8107 16.488 40.7122 16.3956 40.5732C16.3033 40.4342 16.2703 40.2655 16.3039 40.1031C16.3416 39.9413 16.4435 39.8006 16.5874 39.7117C16.7313 39.6227 16.9054 39.5929 17.0719 39.6285C17.2377 39.6637 17.3825 39.7614 17.4745 39.9003C17.5665 40.0392 17.5983 40.2079 17.5629 40.3695C17.5303 40.508 17.4506 40.6317 17.3366 40.7203C17.2226 40.809 17.081 40.8574 16.9351 40.8577L16.7983 40.8475ZM17.6505 37.6243C17.5711 37.5967 17.4979 37.5542 17.4353 37.4992C17.3727 37.4441 17.3219 37.3776 17.2858 37.3033C17.2496 37.2291 17.2288 37.1487 17.2246 37.0667C17.2204 36.9847 17.2329 36.9026 17.2613 36.8253C17.2891 36.7481 17.3324 36.677 17.3887 36.6162C17.445 36.5554 17.5132 36.5061 17.5892 36.4712C17.6652 36.4362 17.7476 36.4163 17.8316 36.4126C17.9156 36.409 17.9995 36.4216 18.0784 36.4497C18.1577 36.4765 18.2307 36.5183 18.2934 36.5727C18.356 36.627 18.407 36.6929 18.4435 36.7665C18.48 36.84 18.5012 36.9199 18.506 37.0015C18.5107 37.083 18.4989 37.1647 18.4712 37.2418C18.4273 37.3642 18.3452 37.4701 18.2364 37.5448C18.1277 37.6195 17.9976 37.6592 17.8645 37.6584C17.783 37.6646 17.701 37.6565 17.6225 37.6345L17.6505 37.6243ZM18.9131 34.5308C18.8376 34.4945 18.7702 34.444 18.7148 34.3822C18.6594 34.3204 18.6171 34.2486 18.5904 34.1708C18.5636 34.093 18.553 34.0109 18.559 33.9291C18.565 33.8473 18.5876 33.7675 18.6255 33.6942C18.6628 33.6203 18.7148 33.5543 18.7784 33.4999C18.8421 33.4456 18.9161 33.4041 18.9963 33.3778C19.0765 33.3514 19.1612 33.3408 19.2457 33.3465C19.3301 33.3522 19.4125 33.374 19.4882 33.4108C19.6403 33.4855 19.7559 33.6158 19.8098 33.7731C19.8637 33.9305 19.8515 34.1022 19.7758 34.2508C19.7218 34.3532 19.6399 34.4393 19.5391 34.4995C19.4383 34.5597 19.3224 34.5918 19.2042 34.5922C19.095 34.6029 18.9849 34.5852 18.885 34.541L18.9131 34.5308ZM20.5544 31.608C20.4843 31.5632 20.4241 31.5053 20.3771 31.4377C20.3301 31.3701 20.2974 31.2941 20.2807 31.2141C20.2641 31.1341 20.2639 31.0517 20.2802 30.9716C20.2965 30.8915 20.3289 30.8154 20.3755 30.7476C20.4219 30.6792 20.4816 30.6205 20.5514 30.5747C20.6211 30.529 20.6995 30.4971 20.7819 30.4809C20.8644 30.4647 20.9493 30.4646 21.0319 30.4804C21.1144 30.4963 21.1928 30.5279 21.2628 30.5734C21.4035 30.6646 21.5014 30.8063 21.535 30.9676C21.5685 31.129 21.5349 31.2966 21.4416 31.4339C21.3834 31.5195 21.3041 31.5896 21.2111 31.6378C21.118 31.6861 21.014 31.7111 20.9086 31.7105C20.7742 31.7212 20.64 31.6888 20.5263 31.6183L20.5544 31.608ZM22.5499 28.9106C22.4857 28.8573 22.433 28.7921 22.3949 28.7188C22.3568 28.6455 22.334 28.5656 22.3278 28.4837C22.3216 28.4018 22.3321 28.3194 22.3588 28.2415C22.3855 28.1636 22.4278 28.0916 22.4832 28.0297C22.5377 27.9675 22.6043 27.9163 22.6791 27.8792C22.754 27.8421 22.8356 27.8197 22.9193 27.8134C23.0031 27.8071 23.0872 27.8169 23.1671 27.8423C23.2469 27.8677 23.3208 27.9081 23.3845 27.9614C23.5138 28.0692 23.5938 28.2225 23.607 28.3877C23.6201 28.5529 23.5653 28.7164 23.4547 28.8423C23.3946 28.911 23.3199 28.9661 23.2357 29.0039C23.1515 29.0416 23.0599 29.0611 22.9672 29.0608C22.8039 29.0681 22.644 29.0129 22.5218 28.9072L22.5499 28.9106Z" fill="white"/>
<path d="M65.9247 62.6039C65.8566 62.5553 65.7991 62.4941 65.7555 62.4237C65.7119 62.3533 65.683 62.2752 65.6706 62.1939C65.6583 62.1126 65.6625 62.0298 65.6833 61.9501C65.704 61.8704 65.7408 61.7956 65.7914 61.7298C65.8933 61.5984 66.0441 61.5112 66.2113 61.4869C66.3786 61.4627 66.5489 61.5033 66.6857 61.6001C66.7535 61.6489 66.8107 61.7103 66.854 61.7808C66.8973 61.8513 66.9258 61.9295 66.9378 62.0108C66.9499 62.092 66.9453 62.1748 66.9243 62.2544C66.9033 62.3339 66.8663 62.4086 66.8155 62.4742C66.7563 62.552 66.6791 62.6152 66.5901 62.6585C66.5012 62.7019 66.4029 62.7241 66.3034 62.7234C66.1671 62.7251 66.034 62.6831 65.9247 62.6039ZM67.85 59.8724C67.7027 59.7894 67.595 59.6532 67.5503 59.4933C67.5057 59.3335 67.5277 59.1629 67.6116 59.0187C67.6531 58.9475 67.7086 58.8849 67.7751 58.8347C67.8415 58.7844 67.9174 58.7474 67.9986 58.7259C68.0797 58.7043 68.1645 58.6985 68.2479 58.709C68.3314 58.7194 68.4119 58.7457 68.4848 58.7866C68.5578 58.8267 68.622 58.8804 68.6737 58.9447C68.7253 59.009 68.7635 59.0825 68.786 59.1611C68.8084 59.2398 68.8148 59.3219 68.8046 59.403C68.7945 59.484 68.768 59.5623 68.7268 59.6333C68.671 59.7295 68.59 59.8096 68.492 59.8654C68.3941 59.9212 68.2826 59.9507 68.1692 59.9509C68.0565 59.9471 67.9466 59.9154 67.85 59.8587V59.8724ZM69.4212 56.912C69.3428 56.8813 69.2714 56.8357 69.2112 56.778C69.151 56.7202 69.1033 56.6513 69.0706 56.5754C69.038 56.4995 69.0212 56.418 69.0212 56.3357C69.0211 56.2534 69.0379 56.1719 69.0705 56.096C69.102 56.0196 69.1488 55.9502 69.2082 55.8916C69.2676 55.833 69.3383 55.7864 69.4163 55.7547C69.4942 55.7229 69.5779 55.7065 69.6625 55.7065C69.747 55.7065 69.8307 55.7228 69.9087 55.7545C69.9873 55.7845 70.0589 55.8295 70.1193 55.8869C70.1797 55.9443 70.2277 56.0129 70.2604 56.0887C70.2931 56.1645 70.3098 56.2459 70.3096 56.328C70.3095 56.4102 70.2924 56.4915 70.2594 56.5672C70.2124 56.682 70.1311 56.7804 70.0261 56.8498C69.9211 56.9192 69.7971 56.9563 69.6702 56.9564C69.5844 56.9564 69.4996 56.9389 69.4212 56.9052V56.912ZM70.603 53.7912C70.4396 53.7473 70.3007 53.6422 70.2166 53.4989C70.1325 53.3556 70.1101 53.1858 70.1542 53.0264C70.1765 52.9469 70.2147 52.8724 70.2667 52.8074C70.3186 52.7423 70.3833 52.6879 70.457 52.6472C70.5307 52.6066 70.6119 52.5806 70.6959 52.5707C70.78 52.5607 70.8652 52.5671 70.9467 52.5893C71.1094 52.6339 71.2472 52.7395 71.3301 52.8829C71.4129 53.0262 71.434 53.1957 71.3886 53.3542C71.3529 53.4859 71.2732 53.6023 71.1621 53.6851C71.051 53.7679 70.9148 53.8125 70.7749 53.8117C70.7162 53.8089 70.6582 53.7974 70.603 53.7776V53.7912ZM71.3781 50.5509C71.2102 50.5256 71.0593 50.4369 70.9581 50.3039C70.857 50.1709 70.8139 50.0045 70.838 49.8407C70.8496 49.7595 70.8777 49.6814 70.9205 49.6108C70.9634 49.5403 71.0203 49.4787 71.0879 49.4298C71.1555 49.3808 71.2323 49.3455 71.3141 49.3258C71.3958 49.306 71.4808 49.3024 71.564 49.3149C71.7319 49.3394 71.8831 49.4274 71.9848 49.5597C72.0866 49.692 72.1307 49.858 72.1076 50.0217C72.085 50.1701 72.0085 50.3058 71.8921 50.4041C71.7757 50.5024 71.6269 50.5569 71.4728 50.5578L71.3781 50.5509ZM71.7288 47.2355C71.6447 47.2342 71.5617 47.2167 71.4845 47.184C71.4074 47.1513 71.3376 47.1041 71.2793 47.0451C71.2209 46.986 71.1752 46.9164 71.1446 46.8401C71.114 46.7638 71.0992 46.6823 71.1011 46.6004C71.1057 46.4353 71.1772 46.2787 71.3001 46.1648C71.423 46.0509 71.5872 45.989 71.7569 45.9926C71.841 45.994 71.924 46.0115 72.0012 46.0442C72.0783 46.0769 72.1481 46.1241 72.2064 46.1831C72.2647 46.2421 72.3105 46.3118 72.3411 46.3881C72.3717 46.4644 72.3865 46.5459 72.3846 46.6277C72.3801 46.7905 72.3104 46.9451 72.1906 47.0586C72.0707 47.1721 71.91 47.2356 71.7428 47.2355H71.7288ZM70.9678 43.3533C70.9521 43.1887 71.0037 43.0247 71.1113 42.8969C71.219 42.769 71.3741 42.6877 71.5429 42.6704C71.7122 42.6542 71.8811 42.7041 72.0127 42.8091C72.1442 42.9141 72.2275 43.0656 72.2444 43.2304C72.261 43.3946 72.2103 43.5586 72.1032 43.6866C71.9961 43.8145 71.8413 43.896 71.6727 43.9133H71.6026C71.4444 43.9088 71.2934 43.8479 71.1783 43.7422C71.0632 43.6364 70.992 43.4931 70.9783 43.3396L70.9678 43.3533ZM70.4312 40.1471C70.4126 40.0673 70.4103 39.9847 70.4246 39.904C70.4389 39.8233 70.4693 39.7462 70.5143 39.677C70.5593 39.6079 70.6178 39.548 70.6866 39.501C70.7554 39.4539 70.8331 39.4205 70.9152 39.4028C70.9969 39.384 71.0817 39.3812 71.1646 39.3944C71.2475 39.4076 71.3269 39.4366 71.3982 39.4798C71.4696 39.5229 71.5315 39.5793 71.5804 39.6458C71.6293 39.7123 71.6642 39.7875 71.6832 39.8671C71.7019 39.9472 71.7042 40.03 71.69 40.1109C71.6757 40.1918 71.6453 40.2692 71.6003 40.3386C71.5554 40.4081 71.4968 40.4682 71.428 40.5156C71.3592 40.563 71.2815 40.5968 71.1992 40.6149C71.1516 40.6218 71.1031 40.6218 71.0555 40.6149C70.9126 40.6131 70.7744 40.5647 70.6632 40.4774C70.5519 40.3902 70.4739 40.269 70.4417 40.1335L70.4312 40.1471ZM69.4913 37.0297C69.4623 36.9529 69.4492 36.8712 69.4527 36.7893C69.4562 36.7075 69.4763 36.6271 69.5118 36.5529C69.5473 36.4786 69.5976 36.4119 69.6597 36.3567C69.7217 36.3014 69.7945 36.2586 69.8736 36.2308C69.9526 36.2025 70.0365 36.1897 70.1206 36.1931C70.2046 36.1965 70.2871 36.2161 70.3634 36.2507C70.4397 36.2853 70.5082 36.3342 70.5649 36.3947C70.6217 36.4551 70.6657 36.5259 70.6942 36.6029C70.7243 36.6797 70.7382 36.7616 70.7351 36.8438C70.7321 36.9259 70.7121 37.0066 70.6765 37.0811C70.6408 37.1556 70.5902 37.2223 70.5276 37.2774C70.465 37.3326 70.3917 37.3749 70.312 37.4019C70.2425 37.4273 70.1688 37.44 70.0945 37.4395C69.9631 37.4365 69.8358 37.3943 69.7298 37.3186C69.6238 37.2429 69.5442 37.1373 69.5019 37.0161L69.4913 37.0297ZM68.1727 34.0285C68.134 33.9555 68.1106 33.8757 68.1038 33.7938C68.097 33.712 68.1069 33.6296 68.133 33.5515C68.1591 33.4734 68.2008 33.4011 68.2558 33.3388C68.3108 33.2765 68.3779 33.2254 68.4532 33.1885C68.6045 33.1145 68.7797 33.1017 68.9406 33.1528C69.1016 33.204 69.2352 33.315 69.3125 33.4617C69.3512 33.5342 69.3747 33.6135 69.3817 33.695C69.3887 33.7764 69.3791 33.8584 69.3533 33.9362C69.3276 34.014 69.2862 34.0861 69.2316 34.1482C69.177 34.2104 69.1104 34.2613 69.0354 34.2982C68.9464 34.3462 68.8461 34.3709 68.7443 34.3699C68.6261 34.3695 68.5102 34.3374 68.4094 34.2772C68.3086 34.2169 68.2267 34.1309 68.1727 34.0285ZM66.4753 31.232C66.4278 31.1645 66.3945 31.0885 66.3774 31.0083C66.3603 30.9282 66.3597 30.8455 66.3757 30.7651C66.3917 30.6848 66.4239 30.6083 66.4705 30.5401C66.5171 30.472 66.5771 30.4136 66.6471 30.3682C66.7161 30.3213 66.794 30.2883 66.8763 30.2711C66.9586 30.254 67.0435 30.253 67.1262 30.2683C67.2089 30.2835 67.2876 30.3147 67.3577 30.36C67.4278 30.4053 67.4878 30.4638 67.5344 30.5321C67.582 30.5999 67.6154 30.6762 67.6325 30.7566C67.6497 30.837 67.6503 30.92 67.6343 31.0006C67.6183 31.0813 67.5861 31.158 67.5394 31.2265C67.4928 31.2949 67.4327 31.3537 67.3626 31.3993C67.2591 31.4683 67.1372 31.5063 67.0119 31.5086C66.9063 31.5112 66.8019 31.4878 66.7081 31.4407C66.6143 31.3935 66.5342 31.3241 66.4753 31.2389V31.232ZM64.4342 28.6576C64.324 28.5322 64.2686 28.3699 64.2797 28.2053C64.2908 28.0406 64.3677 27.8868 64.4938 27.7766C64.6228 27.6679 64.7908 27.6133 64.961 27.6248C65.1312 27.6363 65.2898 27.713 65.4021 27.8381C65.5132 27.963 65.5692 28.1256 65.558 28.2905C65.5469 28.4553 65.4694 28.6093 65.3425 28.719C65.2246 28.8182 65.074 28.8727 64.9182 28.8727C64.827 28.8728 64.7369 28.8543 64.6535 28.8184C64.5702 28.7826 64.4954 28.7301 64.4342 28.6644V28.6576ZM62.088 26.346C61.9626 26.2349 61.8871 26.0802 61.8779 25.9153C61.8687 25.7505 61.9265 25.5887 62.0389 25.465C62.0947 25.4035 62.1624 25.3534 62.2382 25.3175C62.3139 25.2816 62.3962 25.2607 62.4804 25.2559C62.5645 25.2512 62.6487 25.2627 62.7282 25.2898C62.8078 25.3169 62.881 25.359 62.9437 25.4138C63.0702 25.5251 63.1463 25.6805 63.1555 25.8461C63.1647 26.0118 63.1062 26.1743 62.9928 26.2982C62.9321 26.3636 62.858 26.416 62.7752 26.4518C62.6925 26.4877 62.6029 26.5063 62.5124 26.5064C62.3568 26.5053 62.2065 26.4509 62.088 26.3528V26.346Z" fill="white"/>
</g>
<defs>
<clipPath id="clip0_590_710">
<rect width="87" height="89" fill="white" transform="translate(0.0634766 0.110352)"/>
</clipPath>
</defs>
</svg>
