<svg width="86" height="100" viewBox="0 0 86 100" fill="none" xmlns="http://www.w3.org/2000/svg">
<g clip-path="url(#clip0_590_22)">
<path d="M42.7329 72.9252C38.5151 72.9252 34.392 71.6249 30.885 69.1888C27.378 66.7527 24.6446 63.2902 23.0306 59.2391C21.4165 55.188 20.9941 50.7302 21.817 46.4296C22.6399 42.129 24.6709 38.1786 27.6534 35.078C30.6358 31.9774 34.4357 29.8659 38.5725 29.0105C42.7092 28.155 46.9971 28.5941 50.8939 30.2721C54.7906 31.9501 58.1212 34.7918 60.4645 38.4376C62.8078 42.0835 64.0585 46.37 64.0585 50.7548C64.0523 56.6328 61.8035 62.2681 57.8055 66.4245C53.8075 70.5808 48.3869 72.9187 42.7329 72.9252ZM42.7329 29.441C38.676 29.441 34.7102 30.6916 31.3371 33.0348C27.9639 35.3779 25.3349 38.7083 23.7824 42.6048C22.2299 46.5014 21.8237 50.789 22.6151 54.9255C23.4066 59.062 25.3601 62.8617 28.2288 65.8439C31.0974 68.8262 34.7523 70.8571 38.7312 71.6799C42.7101 72.5028 46.8344 72.0805 50.5824 70.4665C54.3305 68.8525 57.534 66.1193 59.7879 62.6125C62.0418 59.1057 63.2448 54.9829 63.2448 50.7653C63.2448 47.965 62.7142 45.192 61.6834 42.6048C60.6526 40.0176 59.1417 37.6669 57.237 35.6867C55.3323 33.7066 53.0711 32.1358 50.5824 31.0642C48.0938 29.9925 45.4265 29.441 42.7329 29.441Z" fill="white"/>
<path d="M42.7325 62.8327C31.1248 62.8327 21.5986 51.1463 21.5044 51.0309C21.4423 50.9541 21.4082 50.8569 21.4082 50.7565C21.4082 50.6561 21.4423 50.5589 21.5044 50.4821C21.5986 50.3667 31.1248 38.6768 42.7325 38.6768C54.3403 38.6768 63.8665 50.3667 63.964 50.4821C64.0244 50.5598 64.0573 50.6566 64.0573 50.7565C64.0573 50.8563 64.0244 50.9532 63.964 51.0309C63.8665 51.1463 54.3403 62.8327 42.7325 62.8327ZM22.3619 50.7547C23.8616 52.5026 32.4934 61.9832 42.7325 61.9832C52.9717 61.9832 61.6035 52.5026 63.1032 50.7582C61.6035 49.0103 52.975 39.5297 42.7325 39.5297C32.49 39.5297 23.8616 49.0103 22.3619 50.7547Z" fill="white"/>
<path d="M42.7329 62.8993C40.4218 62.8993 38.1626 62.1869 36.241 60.852C34.3194 59.5172 32.8217 57.62 31.9373 55.4002C31.0529 53.1805 30.8215 50.7379 31.2724 48.3815C31.7233 46.025 32.8361 43.8605 34.4703 42.1616C36.1045 40.4626 38.1866 39.3057 40.4533 38.8369C42.72 38.3682 45.0694 38.6088 47.2046 39.5282C49.3398 40.4477 51.1647 42.0047 52.4487 44.0024C53.7327 46.0001 54.418 48.3488 54.418 50.7514C54.4153 53.9724 53.1833 57.0606 50.9925 59.3382C48.8018 61.6158 45.8312 62.8965 42.7329 62.8993ZM42.7329 39.4775C40.5828 39.4747 38.4803 40.1352 36.6915 41.3754C34.9027 42.6156 33.508 44.3797 32.6842 46.4444C31.8603 48.509 31.6442 50.7814 32.0632 52.9738C32.4823 55.1662 33.5177 57.18 35.0382 58.7603C36.5588 60.3407 38.4963 61.4164 40.6053 61.8514C42.7143 62.2864 44.9 62.061 46.8857 61.2039C48.8714 60.3467 50.5679 58.8963 51.7603 57.0362C52.9527 55.1762 53.5874 52.9902 53.584 50.7549C53.5761 47.7659 52.4301 44.9017 50.3968 42.7885C48.3634 40.6753 45.608 39.4849 42.7329 39.4775Z" fill="white"/>
<path d="M42.7327 57.7676C41.3986 57.7676 40.0944 57.3563 38.9852 56.5857C37.8759 55.8152 37.0113 54.72 36.5008 53.4386C35.9902 52.1572 35.8566 50.7472 36.1169 49.3869C36.3772 48.0266 37.0196 46.7771 37.963 45.7964C38.9063 44.8156 40.1083 44.1478 41.4167 43.8772C42.7252 43.6066 44.0815 43.7455 45.314 44.2762C46.5466 44.807 47.6001 45.7058 48.3413 46.859C49.0825 48.0122 49.4781 49.368 49.4781 50.755C49.4763 52.6143 48.7651 54.3969 47.5004 55.7116C46.2358 57.0263 44.5211 57.7657 42.7327 57.7676ZM42.7327 44.5954C41.5599 44.5947 40.4133 44.9557 39.4379 45.6326C38.4624 46.3096 37.7021 47.2721 37.253 48.3984C36.8038 49.5247 36.6862 50.7642 36.9148 51.96C37.1434 53.1559 37.7081 54.2543 38.5374 55.1165C39.3667 55.9786 40.4233 56.5656 41.5736 56.8033C42.7239 57.041 43.9161 56.9187 44.9995 56.4518C46.0829 55.9849 47.0088 55.1944 47.6599 54.1804C48.3111 53.1663 48.6583 51.9742 48.6576 50.755C48.6558 49.1219 48.031 47.5563 46.9203 46.4016C45.8095 45.2468 44.3035 44.5973 42.7327 44.5954Z" fill="white"/>
<path d="M43.1427 14.4966H42.3223V29.0111H43.1427V14.4966Z" fill="white"/>
<path d="M43.1427 72.5059H42.3223V87.0204H43.1427V72.5059Z" fill="white"/>
<path d="M77.6129 50.332H63.6514V51.185H77.6129V50.332Z" fill="white"/>
<path d="M21.8141 50.332H7.85254V51.185H21.8141V50.332Z" fill="white"/>
<path d="M57.8136 65.8348L57.2334 66.438L67.1057 76.7013L67.6859 76.0982L57.8136 65.8348Z" fill="white"/>
<path d="M18.3556 24.8153L17.7754 25.4185L27.6501 35.6843L28.2302 35.0811L18.3556 24.8153Z" fill="white"/>
<path d="M27.6516 65.8321L17.7793 76.0955L18.3595 76.6986L28.2318 66.4353L27.6516 65.8321Z" fill="white"/>
<path d="M67.1077 24.817L57.2354 35.0803L57.8155 35.6835L67.6878 25.4201L67.1077 24.817Z" fill="white"/>
<path d="M59.1389 9.31532L52.4238 25.8418L53.1796 26.1737L59.8947 9.64724L59.1389 9.31532Z" fill="white"/>
<path d="M32.2922 75.3573L25.5771 91.8838L26.333 92.2157L33.048 75.6892L32.2922 75.3573Z" fill="white"/>
<path d="M66.712 60.8344L66.3926 61.6201L82.2882 68.6041L82.6076 67.8184L66.712 60.8344Z" fill="white"/>
<path d="M3.18366 32.9277L2.86426 33.7134L18.7599 40.6973L19.0793 39.9116L3.18366 32.9277Z" fill="white"/>
<path d="M52.8325 75.5108L52.0723 75.8315L58.5619 92.455L59.3222 92.1343L52.8325 75.5108Z" fill="white"/>
<path d="M27.1849 8.97079L26.4219 9.29492L32.9795 25.9795L33.7425 25.6554L27.1849 8.97079Z" fill="white"/>
<path d="M18.6221 60.4783L2.63086 67.2222L2.93928 68.0126L18.9305 61.2688L18.6221 60.4783Z" fill="white"/>
<path d="M82.5206 33.5079L66.5293 40.2517L66.8377 41.0421L82.829 34.2983L82.5206 33.5079Z" fill="white"/>
<path d="M48.0291 54.3591H37.4437C37.4057 54.3642 37.3673 54.3642 37.3293 54.3591C37.2818 54.3463 37.2372 54.3237 37.1982 54.2927C37.1499 54.2582 37.1096 54.2127 37.0805 54.1598C37.0522 54.1084 37.035 54.0511 37.0301 53.992C37.0284 53.9769 37.0284 53.9617 37.0301 53.9466C37.0251 53.9106 37.0251 53.8742 37.0301 53.8382C37.0405 53.8004 37.0552 53.7641 37.0738 53.7298L42.3665 44.2038C42.405 44.1425 42.4576 44.0921 42.5196 44.0573C42.5815 44.0224 42.6508 44.0042 42.7213 44.0042C42.7917 44.0042 42.861 44.0224 42.923 44.0573C42.9849 44.0921 43.0375 44.1425 43.076 44.2038L48.3654 53.7298C48.3854 53.7634 48.4001 53.7999 48.4091 53.8382C48.414 53.8742 48.414 53.9106 48.4091 53.9466V53.992C48.4014 54.051 48.3832 54.1079 48.3553 54.1598C48.3272 54.2135 48.2868 54.2592 48.2376 54.2927C48.1986 54.3237 48.154 54.3463 48.1065 54.3591C48.0808 54.3618 48.0549 54.3618 48.0291 54.3591ZM38.1498 53.5061H47.3163L42.733 45.2525L38.1498 53.5061Z" fill="white"/>
<path d="M40.8463 84.4685C40.7764 84.4265 40.715 84.3706 40.6658 84.3039C40.6166 84.2373 40.5805 84.1612 40.5596 84.08C40.5387 83.9989 40.5333 83.9142 40.5439 83.8309C40.5544 83.7476 40.5806 83.6673 40.6211 83.5946C40.6614 83.5222 40.7151 83.4588 40.779 83.4081C40.843 83.3573 40.9159 83.3201 40.9937 83.2987C41.0714 83.2773 41.1525 83.272 41.2322 83.2832C41.312 83.2943 41.3888 83.3218 41.4583 83.3638C41.5994 83.4481 41.7026 83.5869 41.7454 83.75C41.7883 83.9131 41.7673 84.0872 41.687 84.2343C41.6319 84.3308 41.5536 84.4108 41.46 84.4665C41.3663 84.5223 41.2603 84.5519 41.1523 84.5524C41.0449 84.554 40.9391 84.525 40.8463 84.4685ZM43.4591 83.7519C43.4182 83.6792 43.3916 83.5989 43.3809 83.5155C43.3701 83.4321 43.3753 83.3473 43.3963 83.266C43.4172 83.1847 43.4535 83.1086 43.5029 83.042C43.5524 82.9753 43.6141 82.9196 43.6844 82.8779C43.7544 82.8359 43.8316 82.8086 43.9118 82.7977C43.9919 82.7867 44.0733 82.7923 44.1514 82.814C44.2294 82.8358 44.3026 82.8733 44.3667 82.9244C44.4308 82.9756 44.4846 83.0394 44.525 83.1121C44.5654 83.1846 44.5915 83.2647 44.602 83.3477C44.6125 83.4308 44.6072 83.5151 44.5862 83.596C44.5653 83.6769 44.5292 83.7527 44.4801 83.819C44.4309 83.8853 44.3696 83.9409 44.2997 83.9826C44.2072 84.0403 44.1016 84.0716 43.9937 84.0735C43.8853 84.0736 43.7787 84.0439 43.6848 83.9875C43.5909 83.931 43.513 83.8497 43.4591 83.7519ZM38.0049 82.7626C37.9351 82.7209 37.8738 82.6653 37.8246 82.599C37.7755 82.5326 37.7394 82.4568 37.7184 82.376C37.6975 82.2951 37.6921 82.2107 37.7026 82.1277C37.7132 82.0447 37.7393 81.9646 37.7796 81.8921C37.8618 81.7457 37.9965 81.6392 38.1541 81.596C38.3117 81.5527 38.4794 81.5762 38.6203 81.6614C38.6901 81.7027 38.7513 81.758 38.8004 81.824C38.8495 81.89 38.8856 81.9655 38.9065 82.0461C38.9275 82.1267 38.9329 82.2108 38.9224 82.2935C38.912 82.3763 38.8858 82.4561 38.8456 82.5283C38.7917 82.6262 38.7138 82.7075 38.6199 82.7639C38.526 82.8204 38.4194 82.8501 38.3109 82.85C38.203 82.8516 38.0969 82.8213 38.0049 82.7626ZM46.3005 82.0634C46.2596 81.9908 46.233 81.9104 46.2223 81.827C46.2115 81.7436 46.2167 81.6588 46.2377 81.5775C46.2586 81.4963 46.2949 81.4201 46.3443 81.3535C46.3938 81.2869 46.4555 81.2311 46.5258 81.1895C46.5954 81.1471 46.6724 81.1195 46.7524 81.1083C46.8324 81.0971 46.9137 81.1026 46.9916 81.1244C47.0695 81.1462 47.1425 81.1839 47.2062 81.2353C47.27 81.2866 47.3233 81.3507 47.3631 81.4237C47.4033 81.4964 47.4292 81.5766 47.4395 81.6598C47.4498 81.743 47.4441 81.8274 47.4229 81.9083C47.4016 81.9892 47.3652 82.0649 47.3157 82.1312C47.2662 82.1974 47.2046 82.2528 47.1344 82.2941C47.0432 82.3517 46.9385 82.382 46.8318 82.3815C46.7228 82.3804 46.6161 82.349 46.5227 82.2906C46.4293 82.2322 46.3526 82.1489 46.3005 82.0494V82.0634ZM35.1635 81.0776C35.0235 80.9915 34.9215 80.8517 34.8794 80.6884C34.8373 80.525 34.8584 80.351 34.9382 80.2036C35.021 80.058 35.1557 79.9521 35.313 79.9089C35.4704 79.8657 35.6378 79.8887 35.7789 79.9729C35.8491 80.0142 35.9107 80.0697 35.9601 80.136C36.0096 80.2023 36.0458 80.2781 36.0668 80.3591C36.0877 80.4401 36.093 80.5246 36.0823 80.6078C36.0715 80.6909 36.045 80.771 36.0042 80.8434C35.9501 80.94 35.8726 81.0203 35.7794 81.0761C35.6862 81.1319 35.5805 81.1614 35.4729 81.1615C35.3645 81.1623 35.2578 81.1334 35.1635 81.0776ZM49.1385 80.361C49.0566 80.2144 49.034 80.0401 49.0756 79.8762C49.1172 79.7124 49.2197 79.5724 49.3605 79.487C49.4305 79.445 49.5077 79.4177 49.5878 79.4068C49.668 79.3958 49.7494 79.4013 49.8275 79.4231C49.9055 79.4448 49.9787 79.4824 50.0428 79.5335C50.1069 79.5847 50.1607 79.6484 50.2011 79.7212C50.2419 79.7936 50.2684 79.8737 50.2792 79.9568C50.2899 80.0399 50.2847 80.1245 50.2637 80.2055C50.2427 80.2865 50.2065 80.3623 50.1571 80.4286C50.1076 80.4949 50.046 80.5503 49.9758 80.5917C49.8837 80.6503 49.7779 80.6817 49.6698 80.6826C49.5602 80.6807 49.453 80.6483 49.3595 80.5886C49.2661 80.529 49.1897 80.4443 49.1385 80.3435V80.361ZM32.3255 79.3716C32.1851 79.2868 32.0825 79.1477 32.0403 78.9847C31.9981 78.8216 32.0197 78.6478 32.1002 78.5012C32.1824 78.3548 32.317 78.2483 32.4746 78.2051C32.6322 78.1618 32.7999 78.1853 32.9409 78.2705C33.0106 78.3118 33.0718 78.3671 33.121 78.4331C33.1701 78.4991 33.2062 78.5746 33.2271 78.6552C33.248 78.7358 33.2534 78.8199 33.243 78.9026C33.2325 78.9854 33.2064 79.0652 33.1662 79.1374C33.1128 79.2357 33.035 79.3174 32.941 79.374C32.847 79.4305 32.7401 79.4599 32.6315 79.459C32.522 79.4549 32.4159 79.4185 32.3255 79.3542V79.3716ZM51.9766 78.6725C51.9362 78.5997 51.9099 78.5194 51.8994 78.4361C51.8888 78.3528 51.8942 78.2681 51.9151 78.187C51.936 78.1058 51.9721 78.0298 52.0213 77.9631C52.0705 77.8965 52.1319 77.8405 52.2019 77.7985C52.2717 77.756 52.349 77.7284 52.4292 77.7172C52.5095 77.706 52.591 77.7114 52.6692 77.7332C52.7474 77.755 52.8207 77.7927 52.8847 77.8441C52.9488 77.8955 53.0024 77.9596 53.0425 78.0327C53.1232 78.1799 53.1448 78.3542 53.1027 78.5179C53.0605 78.6815 52.9579 78.8212 52.8172 78.9067C52.7228 78.9621 52.6162 78.991 52.5079 78.9906C52.3964 78.9856 52.2882 78.9496 52.1948 78.8862C52.1013 78.8229 52.0259 78.7346 51.9766 78.6305V78.6725ZM29.4875 77.6832C29.4175 77.6412 29.3561 77.5852 29.3069 77.5186C29.2577 77.4519 29.2216 77.3759 29.2007 77.2947C29.1798 77.2135 29.1744 77.1289 29.185 77.0456C29.1955 76.9623 29.2218 76.882 29.2622 76.8092C29.345 76.6637 29.4794 76.5576 29.6365 76.5138C29.7937 76.4701 29.9611 76.492 30.1028 76.575C30.2436 76.6604 30.3461 76.8004 30.3877 76.9643C30.4293 77.1281 30.4067 77.3024 30.3248 77.4489C30.2709 77.5459 30.1935 77.6263 30.1002 77.6822C30.0069 77.738 29.9011 77.7673 29.7935 77.7671C29.6831 77.7593 29.577 77.7193 29.4875 77.6517V77.6832ZM54.818 76.9665C54.7776 76.8938 54.7513 76.8134 54.7408 76.7301C54.7302 76.6468 54.7356 76.5622 54.7565 76.481C54.7774 76.3999 54.8135 76.3238 54.8627 76.2572C54.9119 76.1905 54.9733 76.1346 55.0433 76.0926C55.113 76.0506 55.19 76.0234 55.2699 76.0125C55.3498 76.0016 55.4309 76.0072 55.5087 76.0289C55.5865 76.0507 55.6594 76.0882 55.7232 76.1393C55.787 76.1904 55.8405 76.2542 55.8806 76.3268C55.921 76.3996 55.9472 76.4799 55.9577 76.5632C55.9683 76.6465 55.963 76.7311 55.942 76.8123C55.9211 76.8934 55.885 76.9695 55.8358 77.0362C55.7866 77.1028 55.7253 77.1587 55.6553 77.2007C55.5622 77.2567 55.4568 77.2868 55.3493 77.2881C55.2382 77.285 55.1301 77.2504 55.0365 77.1882C54.9429 77.126 54.8674 77.0385 54.818 76.9351V76.9665ZM26.6494 75.9772C26.5792 75.9359 26.5176 75.8805 26.4682 75.8142C26.4188 75.7479 26.3825 75.672 26.3616 75.591C26.3406 75.51 26.3353 75.4255 26.3461 75.3424C26.3568 75.2592 26.3833 75.1791 26.4241 75.1068C26.5064 74.9606 26.6406 74.8538 26.7977 74.8094C26.9549 74.7649 27.1226 74.7864 27.2648 74.869C27.4041 74.9558 27.5056 75.0955 27.5476 75.2586C27.5897 75.4217 27.569 75.5954 27.4901 75.743C27.4367 75.8413 27.3589 75.923 27.2649 75.9796C27.1709 76.0361 27.064 76.0655 26.9554 76.0646C26.8446 76.0562 26.7384 76.0149 26.6494 75.9458V75.9772ZM57.656 75.2781C57.6156 75.2053 57.5894 75.125 57.5788 75.0417C57.5683 74.9584 57.5736 74.8737 57.5945 74.7926C57.6155 74.7114 57.6516 74.6353 57.7008 74.5687C57.75 74.502 57.8113 74.4461 57.8813 74.4041C57.9512 74.3616 58.0285 74.334 58.1087 74.3228C58.1889 74.3116 58.2705 74.317 58.3487 74.3388C58.4268 74.3606 58.5001 74.3983 58.5642 74.4497C58.6283 74.5011 58.6819 74.5652 58.722 74.6383C58.8027 74.7855 58.8243 74.9598 58.7821 75.1234C58.7399 75.2871 58.6374 75.4268 58.4967 75.5123C58.403 75.5663 58.2978 75.5952 58.1907 75.5962C58.0782 75.5919 57.9689 75.5557 57.8747 75.4917C57.7805 75.4276 57.7049 75.338 57.656 75.2326V75.2781ZM23.808 74.2887C23.738 74.2467 23.6767 74.1908 23.6275 74.1242C23.5783 74.0575 23.5422 73.9814 23.5212 73.9003C23.5003 73.8191 23.495 73.7345 23.5055 73.6512C23.5161 73.5679 23.5423 73.4876 23.5827 73.4148C23.6656 73.2692 23.8 73.1632 23.9571 73.1194C24.1142 73.0756 24.2816 73.0976 24.4234 73.1806C24.4934 73.2226 24.5547 73.2785 24.6039 73.3452C24.6531 73.4118 24.6892 73.4879 24.7102 73.569C24.7311 73.6502 24.7364 73.7348 24.7259 73.8181C24.7153 73.9014 24.6891 73.9818 24.6487 74.0545C24.5957 74.1522 24.5184 74.2332 24.4249 74.2892C24.3314 74.3451 24.2252 74.374 24.1174 74.3726C24.0046 74.3609 23.8973 74.316 23.808 74.2433V74.2887ZM60.4974 73.5721C60.4566 73.4995 60.43 73.4191 60.4192 73.3357C60.4084 73.2523 60.4136 73.1675 60.4346 73.0862C60.4555 73.005 60.4918 72.9288 60.5412 72.8622C60.5907 72.7956 60.6524 72.7398 60.7227 72.6982C60.8643 72.6142 61.032 72.5918 61.1893 72.6356C61.3467 72.6795 61.4811 72.7861 61.5634 72.9324C61.6432 73.0798 61.6643 73.2538 61.6222 73.4171C61.5801 73.5805 61.4781 73.7202 61.3381 73.8063C61.2432 73.861 61.1371 73.8909 61.0287 73.8937C60.9162 73.8892 60.8072 73.8526 60.7134 73.7879C60.6197 73.7231 60.5449 73.6327 60.4974 73.5267V73.5721ZM20.9666 72.5374C20.8256 72.4531 20.7224 72.3143 20.6795 72.1512C20.6367 71.9881 20.6577 71.8139 20.738 71.6669C20.8209 71.5214 20.955 71.4152 21.1119 71.3709C21.2689 71.3265 21.4363 71.3474 21.5786 71.4292C21.6489 71.4708 21.7106 71.5266 21.7601 71.5932C21.8095 71.6598 21.8458 71.736 21.8667 71.8173C21.8877 71.8985 21.8929 71.9833 21.8821 72.0667C21.8714 72.1501 21.8448 72.2305 21.8039 72.3031C21.7511 72.4012 21.6739 72.4827 21.5805 72.5393C21.487 72.5958 21.3807 72.6254 21.2726 72.6247C21.1649 72.6246 21.0593 72.5944 20.9666 72.5374ZM63.3355 71.8382C63.2536 71.6917 63.2309 71.5173 63.2725 71.3535C63.3141 71.1896 63.4166 71.0496 63.5574 70.9642C63.6275 70.9217 63.7051 70.894 63.7855 70.8827C63.866 70.8715 63.9478 70.8769 64.0263 70.8986C64.1048 70.9204 64.1783 70.9581 64.2427 71.0096C64.3071 71.061 64.361 71.1252 64.4014 71.1985C64.4818 71.346 64.5029 71.5207 64.4601 71.6844C64.4173 71.848 64.314 71.9875 64.1727 72.0724C64.0796 72.1247 63.9759 72.1535 63.8701 72.1563C63.7606 72.1558 63.6532 72.1247 63.5591 72.0662C63.4651 72.0078 63.3878 71.9242 63.3355 71.8242V71.8382ZM18.1286 70.8349C17.9879 70.7494 17.8853 70.6097 17.8431 70.4461C17.801 70.2824 17.8226 70.1081 17.9033 69.9609C17.9861 69.8154 18.1205 69.7093 18.2777 69.6656C18.4348 69.6218 18.6022 69.6437 18.7439 69.7267C18.8139 69.7687 18.8753 69.8247 18.9245 69.8913C18.9737 69.958 19.0098 70.034 19.0307 70.1152C19.0516 70.1964 19.057 70.281 19.0464 70.3643C19.0359 70.4476 19.0096 70.5279 18.9692 70.6007C18.9146 70.6976 18.8365 70.778 18.7427 70.8338C18.6489 70.8896 18.5427 70.9189 18.4346 70.9188C18.3272 70.9195 18.2216 70.8906 18.1286 70.8349ZM66.1769 70.1183C66.095 69.9717 66.0723 69.7974 66.1139 69.6336C66.1556 69.4697 66.258 69.3297 66.3988 69.2443C66.4688 69.2023 66.546 69.175 66.6262 69.1641C66.7063 69.1531 66.7877 69.1586 66.8658 69.1804C66.9438 69.2021 67.017 69.2397 67.0811 69.2908C67.1452 69.342 67.199 69.4058 67.2394 69.4785C67.2798 69.551 67.3059 69.6311 67.3164 69.7141C67.3269 69.7971 67.3216 69.8815 67.3006 69.9624C67.2797 70.0433 67.2436 70.119 67.1945 70.1854C67.1453 70.2517 67.084 70.3073 67.0141 70.349C66.9209 70.408 66.8139 70.4395 66.7048 70.4399C66.5973 70.4395 66.4919 70.4095 66.3991 70.3531C66.3064 70.2966 66.2297 70.2155 66.1769 70.1183ZM15.2872 69.1289C15.2176 69.087 15.1566 69.0312 15.1078 68.9647C15.059 68.8982 15.0232 68.8224 15.0026 68.7416C14.982 68.6607 14.9769 68.5764 14.9877 68.4935C14.9984 68.4107 15.0248 68.3308 15.0652 68.2585C15.1056 68.1861 15.1593 68.1228 15.2232 68.072C15.2872 68.0212 15.3601 67.9841 15.4379 67.9626C15.5156 67.9412 15.5967 67.9359 15.6764 67.9471C15.7562 67.9583 15.833 67.9857 15.9025 68.0278C15.9726 68.0688 16.0342 68.1239 16.0836 68.1898C16.1329 68.2558 16.1692 68.3314 16.1902 68.4121C16.2111 68.4928 16.2164 68.5771 16.2057 68.6599C16.195 68.7428 16.1685 68.8226 16.1278 68.8947C16.0753 68.993 15.9982 69.0748 15.9047 69.1314C15.8112 69.188 15.7047 69.2173 15.5965 69.2163C15.4878 69.2158 15.3812 69.1857 15.2872 69.1289ZM69.0115 68.4298C68.9308 68.2826 68.9092 68.1083 68.9514 67.9447C68.9936 67.781 69.0961 67.6413 69.2368 67.5558C69.3067 67.5134 69.384 67.4857 69.4642 67.4745C69.5444 67.4633 69.626 67.4687 69.7042 67.4905C69.7824 67.5123 69.8556 67.55 69.9197 67.6014C69.9838 67.6528 70.0374 67.7169 70.0775 67.7901C70.1179 67.8628 70.1441 67.9431 70.1547 68.0264C70.1652 68.1097 70.1599 68.1944 70.139 68.2755C70.118 68.3567 70.0819 68.4328 70.0327 68.4994C69.9835 68.5661 69.9222 68.622 69.8522 68.664C69.7581 68.7169 69.6532 68.7456 69.5462 68.7479C69.4369 68.7459 69.3301 68.7142 69.2363 68.656C69.1425 68.5977 69.065 68.5149 69.0115 68.4158V68.4298ZM13.4142 66.1226C13.4151 65.9532 13.4802 65.791 13.5954 65.6712C13.7106 65.5514 13.8666 65.4837 14.0296 65.4828C14.1925 65.4837 14.3485 65.5514 14.4637 65.6712C14.5789 65.791 14.644 65.9532 14.6449 66.1226C14.644 66.2919 14.5789 66.4541 14.4637 66.5739C14.3485 66.6937 14.1925 66.7614 14.0296 66.7623C13.9476 66.7623 13.8665 66.7453 13.7909 66.7123C13.7154 66.6793 13.6469 66.6309 13.5896 66.57C13.5323 66.5091 13.4873 66.4369 13.4571 66.3577C13.427 66.2784 13.4124 66.1938 13.4142 66.1086V66.1226ZM69.6941 65.1577C69.6937 65.0739 69.7092 64.9908 69.7398 64.9132C69.7703 64.8356 69.8153 64.765 69.8722 64.7056C69.9291 64.6461 69.9967 64.5989 70.0712 64.5667C70.1456 64.5346 70.2255 64.518 70.3061 64.518C70.3871 64.5175 70.4673 64.5338 70.5422 64.5657C70.617 64.5977 70.685 64.6448 70.7422 64.7043C70.7995 64.7638 70.8448 64.8345 70.8756 64.9124C70.9063 64.9902 70.9219 65.0736 70.9215 65.1577C70.9215 65.2416 70.9056 65.3246 70.8746 65.402C70.8436 65.4794 70.7982 65.5497 70.7411 65.6088C70.6839 65.668 70.616 65.7148 70.5414 65.7465C70.4667 65.7783 70.3868 65.7944 70.3061 65.794C70.2245 65.7945 70.1436 65.7779 70.0682 65.7452C69.9929 65.7125 69.9246 65.6644 69.8675 65.6038C69.8104 65.5431 69.7656 65.4711 69.7359 65.3921C69.7061 65.313 69.6919 65.2286 69.6941 65.1437V65.1577ZM13.4142 62.7107C13.4151 62.5413 13.4802 62.3791 13.5954 62.2593C13.7106 62.1395 13.8666 62.0718 14.0296 62.0709C14.1925 62.0718 14.3485 62.1395 14.4637 62.2593C14.5789 62.3791 14.644 62.5413 14.6449 62.7107C14.644 62.88 14.5789 63.0422 14.4637 63.162C14.3485 63.2818 14.1925 63.3495 14.0296 63.3504C13.9479 63.3504 13.867 63.3335 13.7917 63.3007C13.7164 63.2679 13.6481 63.2198 13.5908 63.1593C13.5336 63.0988 13.4884 63.027 13.4581 62.9482C13.4278 62.8694 13.4129 62.7851 13.4142 62.7002V62.7107ZM69.6941 61.7458C69.6937 61.662 69.7092 61.5789 69.7398 61.5013C69.7703 61.4237 69.8153 61.3531 69.8722 61.2937C69.9291 61.2342 69.9967 61.187 70.0712 61.1549C70.1456 61.1227 70.2255 61.1061 70.3061 61.1061C70.3871 61.1056 70.4673 61.1219 70.5422 61.1538C70.617 61.1858 70.685 61.2329 70.7422 61.2924C70.7995 61.3519 70.8448 61.4226 70.8756 61.5005C70.9063 61.5783 70.9219 61.6617 70.9215 61.7458C70.9215 61.8297 70.9056 61.9127 70.8746 61.9901C70.8436 62.0675 70.7982 62.1378 70.7411 62.1969C70.6839 62.2561 70.616 62.3029 70.5414 62.3346C70.4667 62.3664 70.3868 62.3825 70.3061 62.3821C70.2248 62.3825 70.1442 62.3661 70.069 62.3336C69.9939 62.3012 69.9258 62.2534 69.8688 62.1931C69.8117 62.1328 69.7669 62.0612 69.7369 61.9826C69.7069 61.904 69.6923 61.8199 69.6941 61.7353V61.7458ZM13.4142 59.2988C13.4151 59.1294 13.4802 58.9672 13.5954 58.8474C13.7106 58.7276 13.8666 58.6599 14.0296 58.659C14.1925 58.6599 14.3485 58.7276 14.4637 58.8474C14.5789 58.9672 14.644 59.1294 14.6449 59.2988C14.644 59.4681 14.5789 59.6303 14.4637 59.7501C14.3485 59.8699 14.1925 59.9376 14.0296 59.9385C13.9482 59.9385 13.8676 59.9217 13.7925 59.8891C13.7174 59.8565 13.6493 59.8088 13.592 59.7487C13.5348 59.6885 13.4896 59.6172 13.4591 59.5387C13.4286 59.4603 13.4133 59.3764 13.4142 59.2918V59.2988ZM69.6941 58.3339C69.6937 58.2501 69.7092 58.167 69.7398 58.0894C69.7703 58.0118 69.8153 57.9412 69.8722 57.8818C69.9291 57.8223 69.9967 57.7751 70.0712 57.743C70.1456 57.7108 70.2255 57.6942 70.3061 57.6942C70.3871 57.6937 70.4673 57.71 70.5422 57.7419C70.617 57.7739 70.685 57.821 70.7422 57.8805C70.7995 57.94 70.8448 58.0107 70.8756 58.0886C70.9063 58.1664 70.9219 58.2498 70.9215 58.3339C70.9215 58.4178 70.9056 58.5008 70.8746 58.5782C70.8436 58.6556 70.7982 58.7259 70.7411 58.785C70.6839 58.8442 70.616 58.891 70.5414 58.9227C70.4667 58.9545 70.3868 58.9706 70.3061 58.9702C70.2251 58.9706 70.1447 58.9543 70.0698 58.922C69.9949 58.8898 69.927 58.8423 69.87 58.7824C69.813 58.7225 69.768 58.6513 69.7379 58.5731C69.7077 58.4949 69.6928 58.4112 69.6941 58.3269V58.3339ZM13.4142 55.8869C13.4151 55.7175 13.4802 55.5553 13.5954 55.4355C13.7106 55.3157 13.8666 55.2481 14.0296 55.2471C14.1928 55.249 14.3488 55.3174 14.4639 55.4378C14.579 55.5581 14.644 55.7206 14.6449 55.8904C14.644 56.0597 14.5789 56.2219 14.4637 56.3417C14.3485 56.4615 14.1925 56.5292 14.0296 56.5301C13.8657 56.5282 13.7092 56.4593 13.594 56.3382C13.4788 56.2171 13.4142 56.0537 13.4142 55.8834V55.8869ZM69.6941 54.9185C69.6937 54.8348 69.7092 54.7519 69.7398 54.6745C69.7704 54.5971 69.8155 54.5268 69.8724 54.4676C69.9293 54.4084 69.997 54.3616 70.0714 54.3298C70.1459 54.298 70.2256 54.2818 70.3061 54.2823C70.3868 54.2818 70.4667 54.2979 70.5414 54.3297C70.616 54.3615 70.6839 54.4083 70.7411 54.4674C70.7982 54.5265 70.8436 54.5968 70.8746 54.6742C70.9056 54.7517 70.9215 54.8347 70.9215 54.9185C70.9219 55.0027 70.9063 55.0861 70.8756 55.1639C70.8448 55.2417 70.7995 55.3124 70.7422 55.3719C70.685 55.4314 70.617 55.4785 70.5422 55.5105C70.4673 55.5425 70.3871 55.5587 70.3061 55.5583C70.2252 55.5583 70.1451 55.5416 70.0704 55.5092C69.9957 55.4768 69.9279 55.4293 69.871 55.3694C69.8141 55.3096 69.7691 55.2387 69.7388 55.1607C69.7084 55.0827 69.6933 54.9992 69.6941 54.915V54.9185ZM13.4142 52.4715C13.4151 52.3021 13.4802 52.1399 13.5954 52.0201C13.7106 51.9003 13.8666 51.8327 14.0296 51.8317C14.1925 51.8345 14.348 51.9032 14.463 52.0233C14.5779 52.1435 14.6432 52.3055 14.6449 52.475C14.644 52.6443 14.5789 52.8065 14.4637 52.9263C14.3485 53.0461 14.1925 53.1138 14.0296 53.1147C13.8666 53.1138 13.7106 53.0461 13.5954 52.9263C13.4802 52.8065 13.4151 52.6443 13.4142 52.475V52.4715ZM69.6941 51.5031C69.6937 51.4194 69.7092 51.3365 69.7398 51.2591C69.7704 51.1817 69.8155 51.1114 69.8724 51.0522C69.9293 50.993 69.997 50.9462 70.0714 50.9144C70.1459 50.8826 70.2256 50.8664 70.3061 50.8669C70.3868 50.8664 70.4667 50.8825 70.5414 50.9143C70.616 50.9461 70.6839 50.9929 70.7411 51.052C70.7982 51.1111 70.8436 51.1814 70.8746 51.2588C70.9056 51.3363 70.9215 51.4193 70.9215 51.5031C70.9219 51.5873 70.9063 51.6707 70.8756 51.7485C70.8448 51.8263 70.7995 51.897 70.7422 51.9565C70.685 52.016 70.617 52.0631 70.5422 52.0951C70.4673 52.1271 70.3871 52.1433 70.3061 52.1429C70.2258 52.1429 70.1462 52.1264 70.0719 52.0944C69.9977 52.0625 69.9302 52.0156 69.8734 51.9565C69.8166 51.8974 69.7715 51.8273 69.7407 51.7501C69.71 51.6729 69.6941 51.5902 69.6941 51.5066V51.5031ZM13.4142 49.0561C13.4142 48.8861 13.4789 48.723 13.5942 48.6025C13.7095 48.4819 13.8661 48.4138 14.0296 48.4128C14.1928 48.4147 14.3488 48.4831 14.4639 48.6035C14.579 48.7238 14.644 48.8864 14.6449 49.0561C14.644 49.2255 14.5789 49.3876 14.4637 49.5074C14.3485 49.6272 14.1925 49.6949 14.0296 49.6958C13.8689 49.695 13.7149 49.6292 13.6001 49.5124C13.4852 49.3956 13.4186 49.237 13.4142 49.0701V49.0561ZM69.6941 48.0842C69.6937 48.0006 69.7092 47.9176 69.7398 47.8402C69.7704 47.7628 69.8155 47.6925 69.8724 47.6333C69.9293 47.5741 69.997 47.5273 70.0714 47.4955C70.1459 47.4637 70.2256 47.4475 70.3061 47.448C70.3868 47.4475 70.4667 47.4637 70.5414 47.4954C70.616 47.5272 70.6839 47.574 70.7411 47.6331C70.7982 47.6922 70.8436 47.7625 70.8746 47.84C70.9056 47.9174 70.9215 48.0004 70.9215 48.0842C70.9219 48.1684 70.9063 48.2518 70.8756 48.3296C70.8448 48.4074 70.7995 48.4781 70.7422 48.5376C70.685 48.5971 70.617 48.6442 70.5422 48.6762C70.4673 48.7082 70.3871 48.7244 70.3061 48.724C70.1456 48.724 69.9914 48.6584 69.8769 48.5413C69.7624 48.4243 69.6968 48.2651 69.6941 48.0982V48.0842ZM13.4142 45.6372C13.4142 45.4675 13.479 45.3048 13.5944 45.1848C13.7098 45.0648 13.8664 44.9974 14.0296 44.9974C14.1925 44.9984 14.3485 45.0661 14.4637 45.1858C14.5789 45.3056 14.644 45.4678 14.6449 45.6372C14.6432 45.806 14.5777 45.9673 14.4625 46.0863C14.3474 46.2053 14.1919 46.2725 14.0296 46.2734C13.8709 46.2736 13.7183 46.21 13.6037 46.096C13.489 45.982 13.4211 45.8264 13.4142 45.6617V45.6372ZM69.6941 44.6653C69.6937 44.5817 69.7092 44.4987 69.7398 44.4213C69.7704 44.3439 69.8155 44.2736 69.8724 44.2144C69.9293 44.1553 69.997 44.1084 70.0714 44.0766C70.1459 44.0448 70.2256 44.0287 70.3061 44.0291C70.3868 44.0287 70.4667 44.0448 70.5414 44.0765C70.616 44.1083 70.6839 44.1551 70.7411 44.2142C70.7982 44.2733 70.8436 44.3436 70.8746 44.4211C70.9056 44.4985 70.9215 44.5815 70.9215 44.6653C70.9219 44.7495 70.9063 44.8329 70.8756 44.9107C70.8448 44.9885 70.7995 45.0592 70.7422 45.1187C70.685 45.1782 70.617 45.2253 70.5422 45.2573C70.4673 45.2893 70.3871 45.3055 70.3061 45.3051C70.1473 45.3052 69.9946 45.241 69.8804 45.1262C69.7662 45.0114 69.6994 44.8549 69.6941 44.6898V44.6653ZM13.4142 42.2183C13.4151 42.0492 13.4803 41.8874 13.5956 41.7682C13.7109 41.649 13.8669 41.5821 14.0296 41.5821C14.1922 41.5821 14.3482 41.649 14.4635 41.7682C14.5788 41.8874 14.644 42.0492 14.6449 42.2183C14.6449 42.388 14.5801 42.5507 14.4647 42.6706C14.3493 42.7906 14.1928 42.858 14.0296 42.858C13.8715 42.8582 13.7194 42.7952 13.6048 42.6819C13.4902 42.5687 13.422 42.4139 13.4142 42.2498V42.2183ZM69.6941 41.25C69.695 41.0815 69.7598 40.9202 69.8744 40.8011C69.9889 40.682 70.1441 40.6146 70.3061 40.6137C70.3868 40.6133 70.4667 40.6294 70.5414 40.6611C70.616 40.6929 70.6839 40.7397 70.7411 40.7988C70.7982 40.858 70.8436 40.9282 70.8746 41.0057C70.9056 41.0831 70.9215 41.1661 70.9215 41.25C70.9219 41.3341 70.9063 41.4175 70.8756 41.4953C70.8448 41.5731 70.7995 41.6438 70.7422 41.7033C70.685 41.7628 70.617 41.8099 70.5422 41.8419C70.4673 41.8739 70.3871 41.8901 70.3061 41.8897C70.1486 41.889 69.9974 41.8255 69.8835 41.7124C69.7697 41.5992 69.7019 41.445 69.6941 41.2814V41.25ZM13.4142 38.8029C13.4151 38.6335 13.4802 38.4713 13.5954 38.3516C13.7106 38.2318 13.8666 38.1641 14.0296 38.1632C14.1925 38.1641 14.3485 38.2318 14.4637 38.3516C14.5789 38.4713 14.644 38.6335 14.6449 38.8029C14.6449 38.9726 14.5801 39.1353 14.4647 39.2553C14.3493 39.3752 14.1928 39.4426 14.0296 39.4426C13.8726 39.4429 13.7214 39.3808 13.607 39.269C13.4926 39.1573 13.4236 39.0043 13.4142 38.8413V38.8029ZM69.6941 37.8346C69.695 37.6661 69.7598 37.5048 69.8744 37.3857C69.9889 37.2666 70.1441 37.1992 70.3061 37.1983C70.3868 37.1979 70.4667 37.214 70.5414 37.2457C70.616 37.2775 70.6839 37.3243 70.7411 37.3834C70.7982 37.4426 70.8436 37.5129 70.8746 37.5903C70.9056 37.6677 70.9215 37.7507 70.9215 37.8346C70.9219 37.9187 70.9063 38.0021 70.8756 38.0799C70.8448 38.1577 70.7995 38.2285 70.7422 38.2879C70.685 38.3474 70.617 38.3946 70.5422 38.4265C70.4673 38.4585 70.3871 38.4748 70.3061 38.4743C70.1497 38.4737 69.9994 38.4112 69.8857 38.2995C69.772 38.1878 69.7035 38.0353 69.6941 37.873V37.8346ZM13.4142 35.3875C13.4151 35.2181 13.4802 35.0559 13.5954 34.9362C13.7106 34.8164 13.8666 34.7487 14.0296 34.7478C14.1925 34.7487 14.3485 34.8164 14.4637 34.9362C14.5789 35.0559 14.644 35.2181 14.6449 35.3875C14.6449 35.5572 14.5801 35.7199 14.4647 35.8399C14.3493 35.9598 14.1928 36.0272 14.0296 36.0272C13.8737 36.0276 13.7234 35.9665 13.6092 35.8562C13.495 35.7459 13.4253 35.5946 13.4142 35.4329V35.3875ZM69.6941 34.4192C69.695 34.2504 69.7597 34.0887 69.8742 33.969C69.9886 33.8494 70.1438 33.7813 70.3061 33.7794C70.3871 33.779 70.4673 33.7952 70.5422 33.8272C70.617 33.8592 70.685 33.9063 70.7422 33.9658C70.7995 34.0253 70.8448 34.096 70.8756 34.1738C70.9063 34.2516 70.9219 34.335 70.9215 34.4192C70.9219 34.5033 70.9063 34.5867 70.8756 34.6645C70.8448 34.7423 70.7995 34.8131 70.7422 34.8726C70.685 34.9321 70.617 34.9792 70.5422 35.0111C70.4673 35.0431 70.3871 35.0594 70.3061 35.0589C70.151 35.0576 70.0021 34.9958 69.8887 34.8858C69.7754 34.7757 69.7059 34.6254 69.6941 34.4646V34.4192ZM13.4983 34.129C13.4579 34.0565 13.4318 33.9765 13.4213 33.8934C13.4108 33.8104 13.4161 33.726 13.4371 33.6452C13.458 33.5643 13.4941 33.4885 13.5432 33.4222C13.5924 33.3558 13.6537 33.3002 13.7236 33.2586C13.8651 33.1747 14.0328 33.1522 14.1902 33.196C14.3476 33.2399 14.482 33.3465 14.5642 33.4928C14.6448 33.6394 14.6663 33.8132 14.6241 33.9763C14.5819 34.1393 14.4794 34.2784 14.3389 34.3632C14.2441 34.4179 14.138 34.4478 14.0296 34.4506C13.9257 34.4553 13.8225 34.4324 13.7295 34.384C13.6366 34.3357 13.557 34.2636 13.4983 34.1745V34.129ZM67.6732 32.9614C67.6032 32.9204 67.5416 32.8653 67.4922 32.7994C67.4427 32.7335 67.4063 32.6581 67.385 32.5775C67.3638 32.4969 67.3581 32.4127 67.3683 32.3298C67.3785 32.2469 67.4044 32.1669 67.4446 32.0945C67.5256 31.9478 67.6591 31.8405 67.816 31.796C67.9729 31.7515 68.1404 31.7733 68.2818 31.8567C68.3521 31.8981 68.4137 31.9535 68.4631 32.0198C68.5125 32.0861 68.5488 32.162 68.5697 32.243C68.5907 32.324 68.596 32.4085 68.5852 32.4916C68.5745 32.5747 68.5479 32.6548 68.5071 32.7272C68.455 32.8261 68.3781 32.9086 68.2846 32.9658C68.191 33.0231 68.0844 33.0529 67.9758 33.0523C67.8729 33.0666 67.7681 33.0508 67.6732 33.0069V32.9614ZM16.3363 32.486C16.2959 32.4132 16.2697 32.3329 16.2591 32.2496C16.2486 32.1663 16.2539 32.0817 16.2748 32.0005C16.2958 31.9193 16.3319 31.8433 16.3811 31.7766C16.4303 31.71 16.4916 31.654 16.5616 31.612C16.6316 31.57 16.7089 31.5428 16.789 31.5318C16.8691 31.5208 16.9505 31.5264 17.0286 31.5481C17.1067 31.5699 17.1798 31.6074 17.244 31.6586C17.3081 31.7097 17.3619 31.7735 17.4023 31.8463C17.483 31.9934 17.5046 32.1677 17.4624 32.3314C17.4202 32.495 17.3177 32.6347 17.177 32.7202C17.0833 32.7743 16.9781 32.8031 16.871 32.8041C16.7628 32.805 16.6563 32.776 16.5623 32.7201C16.4684 32.6642 16.3904 32.5834 16.3363 32.486ZM64.8318 31.3184C64.7616 31.2771 64.7 31.2216 64.6506 31.1553C64.6012 31.089 64.5649 31.0132 64.5439 30.9322C64.523 30.8512 64.5177 30.7667 64.5285 30.6835C64.5392 30.6004 64.5657 30.5203 64.6065 30.4479C64.6882 30.3011 64.8223 30.1937 64.9798 30.1492C65.1372 30.1047 65.3052 30.1266 65.4472 30.2102C65.588 30.2956 65.6904 30.4356 65.732 30.5995C65.7736 30.7633 65.751 30.9376 65.6691 31.0842C65.617 31.1824 65.5405 31.2643 65.4477 31.3214C65.3549 31.3786 65.2491 31.4089 65.1412 31.4093C65.0307 31.4047 64.9236 31.3684 64.8318 31.3044V31.3184ZM19.1777 30.78C19.1372 30.7077 19.1109 30.6279 19.1001 30.545C19.0894 30.4621 19.0945 30.3778 19.1151 30.297C19.1357 30.2161 19.1714 30.1403 19.2203 30.0738C19.2691 30.0074 19.33 29.9515 19.3996 29.9096C19.4696 29.8676 19.5469 29.8403 19.627 29.8293C19.7072 29.8184 19.7886 29.8239 19.8666 29.8457C19.9447 29.8674 20.0179 29.9049 20.082 29.9561C20.1461 30.0073 20.1999 30.071 20.2403 30.1438C20.2806 30.2163 20.3068 30.2964 20.3173 30.3794C20.3278 30.4624 20.3224 30.5468 20.3015 30.6277C20.2806 30.7085 20.2445 30.7843 20.1953 30.8507C20.1462 30.917 20.0849 30.9726 20.015 31.0143C19.9207 31.0702 19.8142 31.1003 19.7056 31.1016C19.5968 31.0999 19.4904 31.0678 19.3976 31.0088C19.3047 30.9498 19.2288 30.866 19.1777 30.7661V30.78ZM61.9904 29.5985C61.9199 29.5575 61.8579 29.5022 61.8082 29.436C61.7586 29.3697 61.7221 29.2938 61.7012 29.2126C61.6802 29.1315 61.675 29.0468 61.686 28.9636C61.697 28.8804 61.7239 28.8003 61.7651 28.728C61.8467 28.582 61.9805 28.4754 62.1373 28.4315C62.2942 28.3877 62.4614 28.41 62.6024 28.4938C62.6723 28.5355 62.7336 28.5911 62.7827 28.6574C62.8319 28.7237 62.868 28.7995 62.8889 28.8804C62.9098 28.9613 62.9152 29.0456 62.9047 29.1287C62.8942 29.2117 62.868 29.2917 62.8277 29.3642C62.7748 29.4623 62.6977 29.5438 62.6043 29.6004C62.5108 29.657 62.4045 29.6865 62.2964 29.6859C62.1886 29.6868 62.0826 29.6565 61.9904 29.5985ZM22.009 29.0636C21.9292 28.9162 21.9081 28.7422 21.9502 28.5789C21.9923 28.4155 22.0943 28.2758 22.2343 28.1897C22.3043 28.1476 22.3816 28.1204 22.4617 28.1094C22.5418 28.0984 22.6233 28.104 22.7013 28.1257C22.7794 28.1475 22.8526 28.185 22.9167 28.2362C22.9808 28.2873 23.0346 28.3511 23.075 28.4239C23.1158 28.4965 23.1424 28.5769 23.1532 28.6603C23.164 28.7437 23.1588 28.8285 23.1378 28.9097C23.1169 28.991 23.0806 29.0672 23.0311 29.1338C22.9817 29.2004 22.92 29.2562 22.8497 29.2978C22.7563 29.3527 22.6509 29.3816 22.5437 29.3817C22.4363 29.3806 22.331 29.3507 22.238 29.295C22.1449 29.2393 22.0672 29.1596 22.0124 29.0636H22.009ZM59.149 27.896C59.079 27.854 59.0177 27.7981 58.9685 27.7314C58.9193 27.6648 58.8832 27.5887 58.8622 27.5075C58.8413 27.4264 58.836 27.3417 58.8465 27.2584C58.8571 27.1751 58.8833 27.0948 58.9237 27.0221C59.0065 26.8764 59.1411 26.7705 59.2985 26.7273C59.4558 26.6841 59.6232 26.7071 59.7644 26.7913C59.8342 26.833 59.8955 26.8886 59.9447 26.9549C59.9939 27.0213 60.0299 27.0971 60.0509 27.1779C60.0718 27.2588 60.0772 27.3432 60.0667 27.4262C60.0562 27.5092 60.03 27.5893 59.9897 27.6618C59.9367 27.7608 59.8591 27.8431 59.7651 27.9003C59.671 27.9575 59.564 27.9874 59.455 27.9869C59.3482 27.9849 59.2438 27.9535 59.1524 27.896H59.149ZM24.8504 27.3577C24.8101 27.2852 24.7839 27.2051 24.7734 27.1221C24.7629 27.039 24.7683 26.9547 24.7892 26.8738C24.8102 26.7929 24.8462 26.7171 24.8954 26.6508C24.9446 26.5845 25.0058 26.5289 25.0757 26.4872C25.1457 26.4452 25.223 26.4179 25.3031 26.4069C25.3832 26.396 25.4647 26.4015 25.5427 26.4233C25.6208 26.445 25.694 26.4826 25.7581 26.5337C25.8222 26.5849 25.876 26.6486 25.9164 26.7214C25.9567 26.7939 25.9829 26.874 25.9934 26.957C26.0039 27.04 25.9985 27.1244 25.9776 27.2053C25.9567 27.2861 25.9206 27.3619 25.8714 27.4283C25.8222 27.4946 25.761 27.5502 25.6911 27.5919C25.5968 27.6479 25.4903 27.6779 25.3817 27.6793C25.2743 27.6785 25.169 27.6484 25.0763 27.592C24.9837 27.5355 24.9069 27.4547 24.8538 27.3577H24.8504ZM56.311 26.1936C56.1705 26.1087 56.068 25.9696 56.0258 25.8066C55.9836 25.6435 56.0051 25.4697 56.0857 25.3231C56.1678 25.1767 56.3025 25.0702 56.4601 25.027C56.6177 24.9837 56.7854 25.0072 56.9263 25.0924C56.9964 25.1334 57.058 25.1885 57.1073 25.2544C57.1567 25.3204 57.193 25.396 57.2139 25.4767C57.2349 25.5574 57.2402 25.6417 57.2295 25.7245C57.2188 25.8074 57.1923 25.8872 57.1516 25.9593C57.0989 26.0578 57.0219 26.1398 56.9285 26.197C56.8351 26.2541 56.7287 26.2843 56.6203 26.2844C56.5113 26.2832 56.4045 26.2518 56.311 26.1936ZM27.6918 25.6552C27.6514 25.5824 27.6252 25.5021 27.6146 25.4188C27.6041 25.3355 27.6094 25.2509 27.6304 25.1697C27.6513 25.0886 27.6874 25.0125 27.7366 24.9458C27.7858 24.8792 27.8471 24.8233 27.9171 24.7812C27.9869 24.7393 28.0639 24.7121 28.1437 24.7012C28.2236 24.6903 28.3048 24.6959 28.3826 24.7176C28.4603 24.7394 28.5332 24.7769 28.597 24.828C28.6609 24.8791 28.7143 24.9428 28.7544 25.0155C28.7948 25.0882 28.8211 25.1686 28.8316 25.2519C28.8422 25.3352 28.8368 25.4198 28.8159 25.501C28.795 25.5821 28.7589 25.6582 28.7097 25.7248C28.6605 25.7915 28.5991 25.8474 28.5291 25.8894C28.4364 25.9459 28.3306 25.9749 28.2231 25.9733C28.1155 25.9732 28.0099 25.9438 27.9167 25.8879C27.8234 25.8321 27.7459 25.7519 27.6918 25.6552ZM53.4696 24.4876C53.3289 24.4021 53.2263 24.2624 53.1841 24.0988C53.1419 23.9351 53.1636 23.7608 53.2443 23.6136C53.3271 23.468 53.4617 23.3621 53.619 23.3189C53.7764 23.2757 53.9438 23.2987 54.0849 23.3829C54.1548 23.4246 54.2161 23.4802 54.2653 23.5465C54.3144 23.6129 54.3505 23.6887 54.3714 23.7695C54.3924 23.8504 54.3977 23.9348 54.3872 24.0178C54.3767 24.1008 54.3506 24.1809 54.3102 24.2534C54.2564 24.3516 54.1787 24.4334 54.0848 24.4905C53.991 24.5476 53.8843 24.5779 53.7756 24.5785C53.6688 24.576 53.5645 24.5447 53.4729 24.4876H53.4696ZM30.5299 23.9492C30.489 23.8766 30.4624 23.7963 30.4516 23.7129C30.4408 23.6295 30.4461 23.5447 30.467 23.4634C30.488 23.3821 30.5242 23.3059 30.5737 23.2393C30.6232 23.1727 30.6848 23.117 30.7552 23.0753C30.8971 22.9917 31.0651 22.9697 31.2226 23.0143C31.38 23.0588 31.5142 23.1662 31.5958 23.313C31.6362 23.3855 31.6623 23.4656 31.6728 23.5486C31.6833 23.6316 31.678 23.716 31.657 23.7969C31.6361 23.8777 31.6 23.9535 31.5508 24.0199C31.5017 24.0862 31.4404 24.1418 31.3705 24.1835C31.2778 24.2402 31.1722 24.2704 31.0645 24.2709C30.9566 24.2704 30.8507 24.2404 30.7575 24.184C30.6642 24.1275 30.5869 24.0466 30.5332 23.9492H30.5299ZM50.6282 22.7817C50.4885 22.6969 50.3868 22.5582 50.3452 22.3958C50.3036 22.2333 50.3256 22.0604 50.4062 21.9147C50.446 21.8417 50.4993 21.7777 50.5631 21.7263C50.6269 21.6749 50.6998 21.6372 50.7777 21.6154C50.8556 21.5936 50.9369 21.5882 51.0169 21.5993C51.0969 21.6105 51.1739 21.6381 51.2435 21.6805C51.3136 21.7215 51.3752 21.7766 51.4245 21.8425C51.4739 21.9085 51.5102 21.9841 51.5311 22.0648C51.5521 22.1455 51.5574 22.2298 51.5467 22.3126C51.536 22.3955 51.5095 22.4753 51.4688 22.5474C51.4164 22.6461 51.3394 22.7284 51.246 22.7856C51.1525 22.8428 51.046 22.8728 50.9375 22.8725C50.8296 22.8707 50.7241 22.8393 50.6315 22.7817H50.6282ZM33.3713 22.2468C33.3304 22.1742 33.3038 22.0938 33.293 22.0104C33.2823 21.927 33.2875 21.8422 33.3084 21.7609C33.3294 21.6796 33.3657 21.6035 33.4151 21.5369C33.4646 21.4703 33.5262 21.4145 33.5966 21.3728C33.666 21.331 33.7428 21.3039 33.8224 21.293C33.902 21.2821 33.9829 21.2877 34.0604 21.3095C34.1379 21.3313 34.2106 21.3688 34.2741 21.4198C34.3376 21.4709 34.3907 21.5345 34.4305 21.6071C34.4716 21.6793 34.4986 21.7593 34.5099 21.8424C34.5212 21.9255 34.5165 22.0101 34.4962 22.0913C34.4759 22.1726 34.4403 22.2488 34.3915 22.3157C34.3427 22.3826 34.2817 22.4388 34.2119 22.481C34.1177 22.5368 34.011 22.5658 33.9026 22.5649C33.7955 22.5645 33.6904 22.535 33.5977 22.4791C33.5051 22.4233 33.4282 22.3432 33.3746 22.2468H33.3713ZM47.7935 21.0792C47.7229 21.0382 47.661 20.983 47.6113 20.9167C47.5616 20.8504 47.5252 20.7745 47.5042 20.6934C47.4832 20.6122 47.4781 20.5276 47.4891 20.4443C47.5 20.3611 47.527 20.281 47.5682 20.2087C47.6079 20.1357 47.6613 20.0717 47.725 20.0203C47.7888 19.9689 47.8618 19.9313 47.9397 19.9095C48.0176 19.8877 48.0989 19.8822 48.1789 19.8934C48.2588 19.9045 48.3359 19.9321 48.4055 19.9745C48.5458 20.0594 48.6485 20.1982 48.6913 20.3611C48.734 20.5239 48.7135 20.6977 48.6341 20.845C48.5799 20.9426 48.502 21.0237 48.4082 21.0801C48.3143 21.1366 48.2079 21.1664 48.0995 21.1666C47.9928 21.1669 47.8881 21.1366 47.7969 21.0792H47.7935ZM36.206 20.5408C36.1261 20.3935 36.105 20.2195 36.1471 20.0561C36.1892 19.8927 36.2912 19.753 36.4312 19.6669C36.5728 19.583 36.7405 19.5605 36.8979 19.6044C37.0553 19.6482 37.1897 19.7549 37.2719 19.9011C37.3128 19.9738 37.3393 20.0541 37.3501 20.1375C37.3609 20.2209 37.3557 20.3057 37.3347 20.387C37.3138 20.4683 37.2775 20.5444 37.2281 20.611C37.1786 20.6776 37.1169 20.7334 37.0466 20.7751C36.9552 20.8322 36.8506 20.8624 36.744 20.8625C36.6356 20.8622 36.5291 20.8324 36.4353 20.776C36.3414 20.7195 36.2635 20.6384 36.2093 20.5408H36.206ZM44.9487 19.3732C44.879 19.3319 44.8178 19.2767 44.7686 19.2106C44.7195 19.1446 44.6834 19.0691 44.6625 18.9885C44.6415 18.9079 44.6362 18.8238 44.6466 18.7411C44.6571 18.6583 44.6832 18.5785 44.7234 18.5063C44.7632 18.4328 44.8166 18.3684 44.8807 18.3167C44.9447 18.265 45.018 18.2271 45.0964 18.2053C45.1747 18.1835 45.2564 18.1782 45.3367 18.1896C45.417 18.2011 45.4943 18.2291 45.5641 18.2721C45.6341 18.3141 45.6954 18.37 45.7446 18.4366C45.7938 18.5033 45.8299 18.5794 45.8509 18.6605C45.8718 18.7417 45.8771 18.8263 45.8666 18.9096C45.856 18.9929 45.8298 19.0733 45.7894 19.146C45.7348 19.243 45.6566 19.3234 45.5628 19.3792C45.469 19.435 45.3628 19.4643 45.2547 19.4641C45.149 19.462 45.0457 19.4307 44.9555 19.3732H44.9487ZM39.0507 18.8524C39.0103 18.7796 38.9841 18.6993 38.9735 18.616C38.963 18.5327 38.9683 18.448 38.9892 18.3669C39.0102 18.2857 39.0463 18.2097 39.0955 18.143C39.1447 18.0763 39.206 18.0204 39.276 17.9784C39.346 17.9364 39.4233 17.9091 39.5034 17.8982C39.5835 17.8872 39.6649 17.8928 39.743 17.9145C39.8211 17.9363 39.8942 17.9738 39.9584 18.0249C40.0225 18.0761 40.0763 18.1399 40.1167 18.2126C40.1974 18.3598 40.219 18.5341 40.1768 18.6978C40.1346 18.8614 40.0321 19.0011 39.8914 19.0866C39.7967 19.1412 39.6903 19.1701 39.582 19.1705C39.4744 19.1704 39.3688 19.1409 39.2755 19.0851C39.1823 19.0293 39.1048 18.9491 39.0507 18.8524ZM42.114 17.6848C41.9736 17.6 41.8711 17.4609 41.8289 17.2978C41.7867 17.1347 41.8082 16.961 41.8888 16.8143C41.9292 16.7416 41.9829 16.6778 42.0471 16.6266C42.1112 16.5755 42.1844 16.5379 42.2624 16.5162C42.3405 16.4944 42.4219 16.4889 42.502 16.4999C42.5822 16.5108 42.6594 16.5381 42.7294 16.5801C42.7994 16.6221 42.8608 16.678 42.91 16.7447C42.9592 16.8113 42.9953 16.8874 43.0162 16.9686C43.0371 17.0497 43.0424 17.1344 43.0319 17.2177C43.0213 17.301 42.9951 17.3813 42.9547 17.4541C42.9011 17.5512 42.8237 17.6319 42.7304 17.6877C42.6371 17.7436 42.5311 17.7728 42.4234 17.7722C42.3135 17.7674 42.2067 17.7324 42.114 17.6708V17.6848Z" fill="white"/>
<path d="M42.8744 95.0045C42.8342 94.9316 42.8081 94.8511 42.7978 94.7676C42.7875 94.6842 42.7932 94.5994 42.8144 94.5183C42.8356 94.4371 42.8721 94.3611 42.9216 94.2945C42.9712 94.228 43.0328 94.1723 43.1031 94.1306C43.173 94.0881 43.2503 94.0605 43.3305 94.0493C43.4107 94.038 43.4923 94.0435 43.5705 94.0653C43.6486 94.0871 43.7219 94.1247 43.786 94.1762C43.8501 94.2276 43.9037 94.2917 43.9438 94.3648C44.0245 94.512 44.0461 94.6863 44.0039 94.8499C43.9617 95.0136 43.8591 95.1533 43.7185 95.2388C43.6248 95.2928 43.5196 95.3217 43.4125 95.3227C43.3037 95.3238 43.1967 95.2949 43.1022 95.2391C43.0077 95.1832 42.9291 95.1023 42.8744 95.0045ZM40.2651 95.022C40.1944 94.9807 40.1324 94.9251 40.0827 94.8586C40.033 94.792 39.9965 94.7158 39.9756 94.6343C39.9546 94.5529 39.9494 94.468 39.9605 94.3845C39.9715 94.301 39.9985 94.2206 40.0398 94.1481C40.0798 94.0754 40.1333 94.0117 40.1971 93.9606C40.261 93.9095 40.3338 93.872 40.4116 93.8502C40.4894 93.8285 40.5706 93.8229 40.6504 93.8338C40.7303 93.8447 40.8073 93.8719 40.8771 93.9139C40.9471 93.9559 41.0084 94.0118 41.0576 94.0784C41.1068 94.1451 41.1429 94.2212 41.1638 94.3023C41.1847 94.3835 41.1901 94.4681 41.1795 94.5514C41.169 94.6347 41.1428 94.715 41.1024 94.7878C41.0478 94.884 40.9701 94.9639 40.877 95.0196C40.7839 95.0754 40.6785 95.1051 40.5711 95.1059C40.4635 95.1081 40.3576 95.079 40.2651 95.022ZM45.7159 93.3126C45.6351 93.1654 45.6135 92.9911 45.6557 92.8275C45.6979 92.6638 45.8005 92.5241 45.9411 92.4386C46.0108 92.3962 46.0878 92.3686 46.1678 92.3575C46.2477 92.3463 46.329 92.3518 46.4069 92.3736C46.4848 92.3954 46.5578 92.4331 46.6216 92.4844C46.6854 92.5358 46.7387 92.5999 46.7784 92.6729C46.8196 92.7448 46.8465 92.8247 46.8574 92.9076C46.8683 92.9906 46.8632 93.075 46.8422 93.1559C46.8211 93.2367 46.7847 93.3123 46.7351 93.3783C46.6854 93.4443 46.6236 93.4992 46.5531 93.5398C46.4612 93.5989 46.3553 93.6304 46.2471 93.6307C46.1396 93.6306 46.0339 93.6012 45.9407 93.5453C45.8475 93.4895 45.7699 93.4093 45.7159 93.3126ZM37.4237 93.3126C37.3538 93.2709 37.2925 93.2153 37.2433 93.149C37.1942 93.0826 37.1581 93.0069 37.1372 92.926C37.1162 92.8451 37.1109 92.7607 37.1214 92.6777C37.1319 92.5947 37.158 92.5146 37.1984 92.4421C37.2388 92.3694 37.2926 92.3056 37.3567 92.2544C37.4208 92.2033 37.494 92.1657 37.572 92.144C37.6501 92.1222 37.7315 92.1167 37.8116 92.1277C37.8918 92.1386 37.969 92.1659 38.039 92.2079C38.1089 92.2496 38.1702 92.3052 38.2193 92.3715C38.2685 92.4379 38.3046 92.5136 38.3255 92.5945C38.3465 92.6754 38.3518 92.7598 38.3413 92.8428C38.3308 92.9258 38.3046 93.0059 38.2643 93.0784C38.2104 93.1762 38.1325 93.2575 38.0386 93.314C37.9447 93.3705 37.8381 93.4001 37.7297 93.4C37.6219 93.4004 37.5161 93.3701 37.4237 93.3126ZM48.5539 91.5926C48.5135 91.5199 48.4873 91.4396 48.4767 91.3563C48.4662 91.273 48.4715 91.1883 48.4924 91.1072C48.5133 91.026 48.5494 90.9499 48.5986 90.8833C48.6478 90.8166 48.7092 90.7607 48.7792 90.7187C48.8491 90.6762 48.9263 90.6486 49.0066 90.6374C49.0868 90.6261 49.1684 90.6316 49.2465 90.6534C49.3247 90.6752 49.398 90.7129 49.4621 90.7643C49.5261 90.8157 49.5798 90.8798 49.6198 90.9529C49.6602 91.0254 49.6863 91.1055 49.6968 91.1885C49.7073 91.2715 49.702 91.3559 49.681 91.4368C49.6601 91.5177 49.624 91.5934 49.5749 91.6598C49.5257 91.7261 49.4644 91.7817 49.3945 91.8234C49.3021 91.8809 49.1963 91.9111 49.0885 91.9108C48.9784 91.9145 48.8693 91.8872 48.7729 91.8318C48.6764 91.7765 48.5961 91.695 48.5404 91.5961L48.5539 91.5926ZM34.5823 91.6101C34.4416 91.5247 34.339 91.3849 34.2968 91.2213C34.2546 91.0577 34.2763 90.8833 34.357 90.7362C34.3974 90.6634 34.4512 90.5996 34.5153 90.5485C34.5794 90.4973 34.6526 90.4598 34.7306 90.438C34.8087 90.4163 34.8901 90.4107 34.9702 90.4217C35.0504 90.4327 35.1276 90.4599 35.1976 90.502C35.2676 90.544 35.329 90.5999 35.3782 90.6665C35.4274 90.7332 35.4635 90.8093 35.4844 90.8904C35.5053 90.9716 35.5106 91.0562 35.5001 91.1395C35.4896 91.2228 35.4633 91.3031 35.4229 91.3759C35.3688 91.4726 35.2913 91.5528 35.1981 91.6087C35.1049 91.6645 34.9992 91.6939 34.8916 91.694C34.7835 91.696 34.6768 91.6682 34.5823 91.6136V91.6101ZM51.3953 89.8867C51.355 89.8142 51.3288 89.7341 51.3183 89.6511C51.3078 89.5681 51.3131 89.4837 51.3341 89.4028C51.355 89.322 51.3911 89.2462 51.4403 89.1799C51.4894 89.1135 51.5507 89.0579 51.6206 89.0162C51.6905 88.9738 51.7677 88.9461 51.848 88.9349C51.9282 88.9237 52.0098 88.9291 52.0879 88.9509C52.1661 88.9727 52.2394 89.0104 52.3035 89.0618C52.3675 89.1132 52.4212 89.1774 52.4612 89.2505C52.5411 89.3978 52.5622 89.5718 52.5201 89.7352C52.478 89.8986 52.376 90.0383 52.2359 90.1244C52.1408 90.1778 52.0347 90.2066 51.9266 90.2083C51.8189 90.2085 51.7131 90.1793 51.6199 90.1234C51.5266 90.0676 51.4491 89.9871 51.3953 89.8902V89.8867ZM31.7442 89.9042C31.6038 89.8194 31.5013 89.6803 31.4591 89.5172C31.4169 89.3541 31.4384 89.1804 31.5189 89.0337C31.6006 88.8869 31.7347 88.7795 31.8922 88.735C32.0496 88.6905 32.2176 88.7124 32.3596 88.796C32.5003 88.8815 32.6028 89.0212 32.645 89.1848C32.6872 89.3485 32.6656 89.5228 32.5849 89.67C32.5304 89.7673 32.4524 89.8482 32.3587 89.9046C32.2649 89.961 32.1586 89.991 32.0502 89.9916C31.9429 89.9921 31.8373 89.9632 31.7442 89.9077V89.9042ZM54.2333 88.1842C54.1929 88.1115 54.1667 88.0312 54.1561 87.9479C54.1456 87.8646 54.1509 87.7799 54.1719 87.6988C54.1928 87.6176 54.2289 87.5415 54.2781 87.4749C54.3273 87.4082 54.3886 87.3523 54.4586 87.3103C54.5285 87.2678 54.6058 87.2402 54.686 87.229C54.7662 87.2177 54.8478 87.2232 54.926 87.245C55.0042 87.2668 55.0774 87.3045 55.1415 87.3559C55.2056 87.4073 55.2592 87.4714 55.2993 87.5445C55.38 87.6917 55.4016 87.866 55.3594 88.0296C55.3172 88.1933 55.2147 88.333 55.074 88.4185C54.9803 88.4725 54.8751 88.5014 54.768 88.5024C54.6603 88.5025 54.5544 88.4736 54.4607 88.4185C54.367 88.3633 54.2886 88.2838 54.2333 88.1877V88.1842ZM28.9028 88.2017C28.762 88.1163 28.6596 87.9763 28.618 87.8125C28.5764 87.6486 28.599 87.4743 28.6809 87.3278C28.721 87.2551 28.7744 87.1914 28.8383 87.1403C28.9021 87.0892 28.975 87.0517 29.0528 87.0299C29.1305 87.0082 29.2117 87.0026 29.2916 87.0135C29.3714 87.0244 29.4484 87.0516 29.5182 87.0936C29.5885 87.1352 29.6502 87.191 29.6996 87.2576C29.7491 87.3242 29.7854 87.4004 29.8063 87.4816C29.8273 87.5629 29.8325 87.6477 29.8217 87.7311C29.8109 87.8145 29.7843 87.8949 29.7435 87.9675C29.6894 88.0642 29.6119 88.1444 29.5186 88.2003C29.4254 88.2561 29.3198 88.2855 29.2122 88.2856C29.104 88.2879 28.9972 88.2601 28.9028 88.2052V88.2017ZM57.0747 86.4783C57.034 86.4059 57.0074 86.3258 56.9967 86.2427C56.9859 86.1596 56.9912 86.0751 57.0122 85.9941C57.0331 85.9131 57.0694 85.8372 57.1188 85.7709C57.1682 85.7046 57.2298 85.6492 57.3 85.6078C57.3695 85.565 57.4466 85.537 57.5266 85.5256C57.6067 85.5141 57.6882 85.5195 57.7662 85.5413C57.8442 85.5632 57.9173 85.601 57.981 85.6527C58.0448 85.7043 58.0979 85.7687 58.1373 85.8421C58.2183 85.9888 58.2404 86.1628 58.1989 86.3264C58.1574 86.49 58.0555 86.63 57.9154 86.716C57.8213 86.7689 57.7164 86.7976 57.6094 86.7999C57.5012 86.8004 57.3949 86.7713 57.301 86.7154C57.2071 86.6596 57.1291 86.579 57.0747 86.4818V86.4783ZM26.0681 86.4958C25.9976 86.4548 25.9357 86.3996 25.886 86.3333C25.8363 86.267 25.7999 86.1911 25.7789 86.11C25.7579 86.0288 25.7527 85.9442 25.7637 85.8609C25.7747 85.7777 25.8016 85.6976 25.8428 85.6253C25.9245 85.4794 26.058 85.3727 26.2147 85.3282C26.3713 85.2838 26.5385 85.3051 26.6801 85.3876C26.8209 85.473 26.9234 85.613 26.965 85.7769C27.0066 85.9407 26.984 86.115 26.9021 86.2616C26.8492 86.3588 26.7725 86.4399 26.6798 86.4964C26.5871 86.5528 26.4816 86.5828 26.3741 86.5832C26.2666 86.5851 26.1607 86.5561 26.0681 86.4993V86.4958ZM59.9161 84.7758C59.875 84.7036 59.848 84.6236 59.8367 84.5405C59.8255 84.4574 59.8301 84.3728 59.8504 84.2916C59.8707 84.2103 59.9063 84.1341 59.9551 84.0672C60.0039 84.0003 60.0649 83.9441 60.1347 83.9019C60.2046 83.8594 60.2819 83.8318 60.3621 83.8206C60.4423 83.8093 60.5239 83.8148 60.6021 83.8366C60.6802 83.8584 60.7535 83.896 60.8176 83.9475C60.8816 83.9989 60.9353 84.063 60.9754 84.1361C61.0162 84.2088 61.0428 84.2891 61.0536 84.3725C61.0644 84.4559 61.0591 84.5407 61.0382 84.622C61.0172 84.7033 60.981 84.7794 60.9315 84.846C60.8821 84.9126 60.8204 84.9684 60.7501 85.0101C60.6569 85.0654 60.5514 85.0944 60.4441 85.094C60.3373 85.0939 60.2324 85.0649 60.1398 85.0097C60.0472 84.9545 59.9701 84.8751 59.9161 84.7793V84.7758ZM23.2267 84.7933C23.1564 84.7517 23.0947 84.6959 23.0453 84.6293C22.9958 84.5627 22.9596 84.4865 22.9386 84.4052C22.9177 84.324 22.9124 84.2392 22.9232 84.1558C22.934 84.0724 22.9606 83.992 23.0014 83.9194C23.0418 83.8466 23.0956 83.7828 23.1598 83.7317C23.2239 83.6805 23.297 83.643 23.3751 83.6212C23.4532 83.5995 23.5346 83.5939 23.6147 83.6049C23.6948 83.6159 23.7721 83.6431 23.8421 83.6852C23.9821 83.7713 24.0841 83.911 24.1262 84.0744C24.1683 84.2377 24.1472 84.4117 24.0674 84.5591C24.0128 84.6561 23.9347 84.7364 23.8409 84.7923C23.7471 84.8481 23.6408 84.8774 23.5327 84.8772C23.4256 84.8799 23.3198 84.8521 23.2267 84.7968V84.7933ZM62.7508 83.0699C62.6711 82.9231 62.6501 82.7496 62.6923 82.5868C62.7344 82.424 62.8363 82.2849 62.9761 82.1994C63.0459 82.1565 63.1232 82.1285 63.2035 82.117C63.2838 82.1055 63.3655 82.1109 63.4438 82.1327C63.5221 82.1545 63.5955 82.1924 63.6595 82.244C63.7235 82.2957 63.777 82.3602 63.8168 82.4337C63.8571 82.5062 63.8833 82.5862 63.8938 82.6693C63.9043 82.7523 63.8989 82.8367 63.878 82.9175C63.857 82.9984 63.8209 83.0742 63.7718 83.1405C63.7226 83.2069 63.6613 83.2624 63.5915 83.3041C63.4973 83.3605 63.3908 83.3906 63.2821 83.3915C63.1745 83.3914 63.0689 83.362 62.9756 83.3061C62.8824 83.2503 62.8049 83.1701 62.7508 83.0734V83.0699ZM20.382 83.0874C20.2413 83.0019 20.1387 82.8622 20.0965 82.6985C20.0544 82.5349 20.076 82.3606 20.1567 82.2134C20.2389 82.0672 20.3733 81.9605 20.5307 81.9167C20.6881 81.8728 20.8558 81.8953 20.9973 81.9792C21.138 82.0647 21.2406 82.2044 21.2828 82.368C21.325 82.5317 21.3033 82.706 21.2226 82.8531C21.1692 82.9507 21.092 83.0319 20.9986 83.0884C20.9053 83.1448 20.7993 83.1747 20.6913 83.1748C20.584 83.1752 20.4785 83.1462 20.3853 83.0909L20.382 83.0874ZM65.5889 81.3674C65.5484 81.2947 65.5222 81.2144 65.5117 81.1311C65.5011 81.0478 65.5065 80.9631 65.5274 80.882C65.5483 80.8008 65.5844 80.7247 65.6336 80.6581C65.6828 80.5914 65.7441 80.5355 65.8141 80.4935C65.884 80.451 65.9613 80.4234 66.0415 80.4122C66.1217 80.4009 66.2033 80.4064 66.2815 80.4282C66.3597 80.45 66.4329 80.4876 66.497 80.5391C66.5611 80.5905 66.6147 80.6546 66.6548 80.7277C66.7355 80.8749 66.7571 81.0492 66.7149 81.2128C66.6728 81.3765 66.5702 81.5162 66.4295 81.6017C66.3348 81.6563 66.2284 81.6851 66.1201 81.6856C66.0135 81.6852 65.9087 81.656 65.8162 81.6008C65.7236 81.5457 65.6464 81.4665 65.5922 81.3709L65.5889 81.3674ZM17.5439 81.3849C17.4739 81.3429 17.4126 81.287 17.3634 81.2203C17.3142 81.1537 17.2781 81.0776 17.2572 80.9965C17.2362 80.9153 17.2309 80.8307 17.2415 80.7474C17.252 80.6641 17.2782 80.5837 17.3186 80.511C17.359 80.4382 17.4128 80.3744 17.4769 80.3233C17.5411 80.2721 17.6142 80.2346 17.6923 80.2128C17.7704 80.1911 17.8518 80.1855 17.9319 80.1965C18.012 80.2075 18.0893 80.2347 18.1593 80.2767C18.3 80.3622 18.4026 80.502 18.4447 80.6656C18.4869 80.8292 18.4653 81.0035 18.3846 81.1507C18.33 81.2477 18.2519 81.328 18.1581 81.3839C18.0642 81.4397 17.958 81.469 17.8499 81.4688C17.744 81.4705 17.6395 81.4428 17.5473 81.3884L17.5439 81.3849ZM68.4302 79.679C68.3497 79.5323 68.3282 79.3585 68.3704 79.1955C68.4126 79.0324 68.5151 78.8933 68.6555 78.8085C68.7253 78.7656 68.8026 78.7375 68.8829 78.7261C68.9632 78.7146 69.045 78.7199 69.1233 78.7418C69.2016 78.7636 69.2749 78.8014 69.3389 78.8531C69.403 78.9048 69.4565 78.9693 69.4962 79.0427C69.5365 79.1152 69.5627 79.1953 69.5732 79.2783C69.5837 79.3614 69.5783 79.4457 69.5574 79.5266C69.5365 79.6075 69.5004 79.6832 69.4512 79.7496C69.4021 79.8159 69.3408 79.8715 69.2709 79.9132C69.1777 79.9688 69.0724 79.9988 68.9649 80.0006C68.8564 80.0007 68.7498 79.971 68.6559 79.9146C68.5621 79.8581 68.4842 79.7768 68.4302 79.679ZM14.7059 79.679C14.6359 79.637 14.5746 79.581 14.5253 79.5144C14.4761 79.4477 14.44 79.3717 14.4191 79.2905C14.3982 79.2094 14.3929 79.1247 14.4034 79.0414C14.414 78.9581 14.4402 78.8778 14.4806 78.805C14.5628 78.6588 14.6972 78.5521 14.8546 78.5083C15.012 78.4644 15.1797 78.4869 15.3213 78.5708C15.3916 78.6125 15.4533 78.6682 15.5027 78.7348C15.5522 78.8015 15.5884 78.8776 15.6094 78.9589C15.6303 79.0402 15.6356 79.125 15.6248 79.2084C15.614 79.2918 15.5874 79.3721 15.5465 79.4447C15.4932 79.5423 15.4159 79.6235 15.3226 79.68C15.2293 79.7364 15.1232 79.7663 15.0153 79.7664C14.9065 79.7663 14.7997 79.7362 14.7059 79.679ZM71.2717 77.959C71.2308 77.8864 71.2042 77.806 71.1934 77.7226C71.1826 77.6392 71.1879 77.5545 71.2088 77.4732C71.2298 77.3919 71.266 77.3157 71.3155 77.2491C71.3649 77.1825 71.4266 77.1267 71.4969 77.0851C71.5668 77.0426 71.6441 77.015 71.7243 77.0037C71.8046 76.9925 71.8861 76.998 71.9643 77.0198C72.0425 77.0415 72.1157 77.0792 72.1798 77.1307C72.2439 77.1821 72.2975 77.2462 72.3376 77.3193C72.378 77.3921 72.4042 77.4724 72.4148 77.5557C72.4253 77.639 72.42 77.7236 72.3991 77.8048C72.3782 77.8859 72.3421 77.962 72.2929 78.0287C72.2436 78.0953 72.1823 78.1513 72.1123 78.1933C72.0176 78.2479 71.9112 78.2767 71.8029 78.2772C71.6957 78.2774 71.5902 78.2485 71.497 78.1933C71.4039 78.1381 71.3262 78.0586 71.2717 77.9625V77.959ZM11.8679 77.9765C11.7272 77.891 11.6246 77.7513 11.5824 77.5877C11.5402 77.424 11.5619 77.2497 11.6426 77.1026C11.6826 77.0299 11.7361 76.9662 11.7999 76.9151C11.8637 76.864 11.9366 76.8265 12.0144 76.8047C12.0922 76.783 12.1734 76.7774 12.2532 76.7883C12.3331 76.7992 12.4101 76.8264 12.4799 76.8683C12.5505 76.9097 12.6125 76.9652 12.6622 77.0318C12.712 77.0984 12.7484 77.1746 12.7694 77.256C12.7904 77.3375 12.7955 77.4224 12.7845 77.5059C12.7734 77.5894 12.7465 77.6698 12.7051 77.7423C12.6516 77.8395 12.5742 77.9201 12.4808 77.976C12.3875 78.0319 12.2816 78.061 12.1739 78.0604C12.0668 78.0622 11.9612 78.0345 11.8679 77.98V77.9765ZM74.1131 76.2531C74.0718 76.1808 74.0449 76.1007 74.0339 76.0175C74.0229 75.9343 74.0281 75.8496 74.0491 75.7685C74.0701 75.6873 74.1065 75.6114 74.1562 75.5451C74.2059 75.4789 74.2678 75.4236 74.3383 75.3826C74.408 75.3402 74.485 75.3126 74.565 75.3015C74.6449 75.2903 74.7262 75.2958 74.8041 75.3176C74.8821 75.3394 74.955 75.3771 75.0188 75.4284C75.0826 75.4798 75.1359 75.5439 75.1756 75.6169C75.2562 75.7635 75.2777 75.9373 75.2355 76.1003C75.1933 76.2634 75.0908 76.4025 74.9503 76.4873C74.8569 76.5424 74.7518 76.5725 74.6443 76.5747C74.5366 76.5757 74.4305 76.5467 74.3371 76.4908C74.2437 76.4348 74.1663 76.354 74.1131 76.2566V76.2531ZM9.02982 76.2706C8.95949 76.2289 8.89782 76.1731 8.84836 76.1065C8.7989 76.0399 8.76264 75.9638 8.74169 75.8825C8.72074 75.8012 8.7155 75.7164 8.72629 75.633C8.73707 75.5496 8.76367 75.4693 8.80453 75.3966C8.88736 75.2511 9.02175 75.145 9.1789 75.1012C9.33604 75.0574 9.50342 75.0794 9.64518 75.1624C9.78586 75.2479 9.88844 75.3876 9.93062 75.5512C9.9728 75.7149 9.95119 75.8892 9.87047 76.0363C9.81681 76.1337 9.73948 76.2146 9.64623 76.2711C9.55298 76.3275 9.44709 76.3575 9.33918 76.358C9.23063 76.3599 9.12365 76.3308 9.02982 76.2741V76.2706ZM76.9545 74.5506C76.8737 74.4035 76.8521 74.2291 76.8943 74.0655C76.9365 73.9019 77.0391 73.7622 77.1798 73.6767C77.2496 73.6342 77.3269 73.6066 77.4071 73.5953C77.4874 73.5841 77.5689 73.5896 77.6471 73.6114C77.7253 73.6331 77.7985 73.6708 77.8626 73.7223C77.9267 73.7737 77.9803 73.8378 78.0204 73.9109C78.0613 73.9835 78.0879 74.0639 78.0986 74.1473C78.1094 74.2307 78.1042 74.3155 78.0832 74.3968C78.0623 74.4781 78.026 74.5542 77.9766 74.6208C77.9271 74.6874 77.8654 74.7432 77.7951 74.7849C77.7007 74.8402 77.5941 74.8691 77.4857 74.8688C77.3775 74.8695 77.2709 74.8409 77.1766 74.7857C77.0822 74.7305 77.0033 74.6507 76.9477 74.5541L76.9545 74.5506ZM6.19851 74.5681C6.12785 74.5268 6.06583 74.4712 6.01612 74.4046C5.9664 74.3381 5.92998 74.2618 5.90899 74.1804C5.88801 74.099 5.88287 74.0141 5.8939 73.9306C5.90493 73.8471 5.9319 73.7667 5.97321 73.6942C6.01329 73.6215 6.06677 73.5578 6.13058 73.5067C6.1944 73.4556 6.26729 73.4181 6.34508 73.3963C6.42287 73.3746 6.50402 73.369 6.58389 73.3799C6.66376 73.3908 6.74077 73.418 6.8105 73.4599C6.8805 73.5019 6.94185 73.5579 6.99105 73.6245C7.04026 73.6912 7.07635 73.7673 7.09727 73.8484C7.1182 73.9296 7.12353 74.0142 7.11299 74.0975C7.10244 74.1808 7.07621 74.2611 7.0358 74.3339C6.9812 74.4301 6.90357 74.51 6.81047 74.5657C6.71736 74.6215 6.61195 74.6512 6.5045 74.652C6.39504 74.6565 6.28659 74.6287 6.19178 74.5716L6.19851 74.5681ZM78.777 71.9882C78.7766 71.9044 78.792 71.8213 78.8226 71.7437C78.8532 71.6661 78.8982 71.5955 78.955 71.5361C79.0119 71.4766 79.0795 71.4294 79.154 71.3972C79.2285 71.3651 79.3083 71.3485 79.389 71.3485C79.4699 71.348 79.5501 71.3643 79.625 71.3962C79.6999 71.4282 79.7679 71.4753 79.8251 71.5348C79.8823 71.5943 79.9276 71.665 79.9584 71.7429C79.9892 71.8207 80.0048 71.9041 80.0043 71.9882C80.0043 72.1579 79.9395 72.3206 79.8241 72.4406C79.7087 72.5605 79.5522 72.6279 79.389 72.6279C79.2264 72.627 79.0707 72.5592 78.956 72.4393C78.8414 72.3195 78.777 72.1573 78.777 71.9882ZM4.33226 71.5408C4.33226 71.3711 4.39709 71.2084 4.5125 71.0884C4.6279 70.9684 4.78442 70.901 4.94762 70.901C5.11024 70.9019 5.26589 70.9697 5.38057 71.0896C5.49524 71.2095 5.55961 71.3717 5.55961 71.5408C5.55873 71.7101 5.49361 71.8723 5.3784 71.9921C5.26319 72.1119 5.10719 72.1796 4.94426 72.1805C4.78191 72.1786 4.62676 72.1106 4.51227 71.9909C4.39779 71.8712 4.33313 71.7095 4.33226 71.5408ZM78.777 68.5623C78.7766 68.4785 78.792 68.3954 78.8226 68.3178C78.8532 68.2402 78.8982 68.1696 78.955 68.1102C79.0119 68.0507 79.0795 68.0036 79.154 67.9714C79.2285 67.9392 79.3083 67.9226 79.389 67.9226C79.4699 67.9221 79.5501 67.9384 79.625 67.9704C79.6999 68.0023 79.7679 68.0494 79.8251 68.1089C79.8823 68.1684 79.9276 68.2392 79.9584 68.317C79.9892 68.3948 80.0048 68.4782 80.0043 68.5623C80.0048 68.6465 79.9892 68.7299 79.9584 68.8077C79.9276 68.8855 79.8823 68.9562 79.8251 69.0157C79.7679 69.0752 79.6999 69.1223 79.625 69.1543C79.5501 69.1863 79.4699 69.2025 79.389 69.2021C79.3083 69.2021 79.2285 69.1855 79.154 69.1533C79.0795 69.1211 79.0119 69.0739 78.955 69.0145C78.8982 68.955 78.8532 68.8845 78.8226 68.8069C78.792 68.7293 78.7766 68.6462 78.777 68.5623ZM4.33226 68.1428C4.33226 67.9732 4.39709 67.8105 4.5125 67.6905C4.6279 67.5705 4.78442 67.5031 4.94762 67.5031C5.11024 67.504 5.26589 67.5718 5.38057 67.6917C5.49524 67.8116 5.55961 67.9738 5.55961 68.1428C5.55873 68.3122 5.49361 68.4744 5.3784 68.5942C5.26319 68.714 5.10719 68.7816 4.94426 68.7826C4.78191 68.7807 4.62676 68.7126 4.51227 68.593C4.39779 68.4733 4.33313 68.3116 4.33226 68.1428ZM78.777 65.1644C78.7766 65.0806 78.792 64.9975 78.8226 64.9199C78.8532 64.8423 78.8982 64.7717 78.955 64.7123C79.0119 64.6528 79.0795 64.6056 79.154 64.5734C79.2285 64.5413 79.3083 64.5247 79.389 64.5247C79.4699 64.5242 79.5501 64.5405 79.625 64.5724C79.6999 64.6044 79.7679 64.6515 79.8251 64.711C79.8823 64.7705 79.9276 64.8412 79.9584 64.9191C79.9892 64.9969 80.0048 65.0803 80.0043 65.1644C80.0048 65.2486 79.9892 65.332 79.9584 65.4098C79.9276 65.4876 79.8823 65.5583 79.8251 65.6178C79.7679 65.6773 79.6999 65.7244 79.625 65.7564C79.5501 65.7884 79.4699 65.8046 79.389 65.8041C79.3075 65.8042 79.2268 65.7873 79.1516 65.7544C79.0765 65.7216 79.0084 65.6735 78.9514 65.6129C78.8944 65.5523 78.8496 65.4805 78.8196 65.4017C78.7897 65.3229 78.7752 65.2387 78.777 65.1539V65.1644ZM4.33226 64.7239C4.33226 64.5543 4.39709 64.3916 4.5125 64.2716C4.6279 64.1516 4.78442 64.0842 4.94762 64.0842C5.11024 64.0851 5.26589 64.1529 5.38057 64.2728C5.49524 64.3927 5.55961 64.5549 5.55961 64.7239C5.55961 64.8936 5.49478 65.0563 5.37938 65.1763C5.26398 65.2963 5.10746 65.3637 4.94426 65.3637C4.78164 65.3628 4.62598 65.2949 4.5113 65.1751C4.39663 65.0552 4.33226 64.893 4.33226 64.7239ZM78.777 61.7455C78.7766 61.6617 78.792 61.5786 78.8226 61.501C78.8532 61.4234 78.8982 61.3528 78.955 61.2934C79.0119 61.2339 79.0795 61.1868 79.154 61.1546C79.2285 61.1224 79.3083 61.1058 79.389 61.1058C79.4699 61.1053 79.5501 61.1216 79.625 61.1535C79.6999 61.1855 79.7679 61.2326 79.8251 61.2921C79.8823 61.3516 79.9276 61.4223 79.9584 61.5002C79.9892 61.578 80.0048 61.6614 80.0043 61.7455C80.0043 61.9152 79.9395 62.0779 79.8241 62.1979C79.7087 62.3179 79.5522 62.3853 79.389 62.3853C79.2264 62.3843 79.0707 62.3165 78.956 62.1967C78.8414 62.0768 78.777 61.9146 78.777 61.7455ZM4.33226 61.3155C4.33226 61.1459 4.39709 60.9832 4.5125 60.8632C4.6279 60.7432 4.78442 60.6758 4.94762 60.6758C5.11055 60.6767 5.26655 60.7444 5.38176 60.8642C5.49698 60.984 5.56209 61.1462 5.56298 61.3155C5.56209 61.4849 5.49698 61.6471 5.38176 61.7669C5.26655 61.8867 5.11055 61.9544 4.94762 61.9553C4.78442 61.9553 4.6279 61.8879 4.5125 61.7679C4.39709 61.6479 4.33226 61.4852 4.33226 61.3155ZM78.777 58.3546C78.7766 58.2708 78.792 58.1876 78.8226 58.1101C78.8532 58.0325 78.8982 57.9619 78.955 57.9025C79.0119 57.843 79.0795 57.7958 79.154 57.7636C79.2285 57.7314 79.3083 57.7149 79.389 57.7149C79.4699 57.7144 79.5501 57.7306 79.625 57.7626C79.6999 57.7946 79.7679 57.8417 79.8251 57.9012C79.8823 57.9607 79.9276 58.0314 79.9584 58.1092C79.9892 58.1871 80.0048 58.2705 80.0043 58.3546C80.0043 58.5243 79.9395 58.687 79.8241 58.807C79.7087 58.9269 79.5522 58.9943 79.389 58.9943C79.2264 58.9934 79.0707 58.9256 78.956 58.8057C78.8414 58.6859 78.777 58.5237 78.777 58.3546ZM4.33226 57.9071C4.33226 57.8231 4.34818 57.7399 4.3791 57.6623C4.41003 57.5847 4.45535 57.5142 4.5125 57.4548C4.56964 57.3954 4.63747 57.3483 4.71213 57.3161C4.78679 57.284 4.86681 57.2674 4.94762 57.2674C5.11055 57.2683 5.26655 57.336 5.38176 57.4558C5.49698 57.5756 5.56209 57.7378 5.56298 57.9071C5.56123 58.0762 5.49583 58.2379 5.38081 58.3575C5.26578 58.4771 5.11028 58.5451 4.94762 58.5469C4.78469 58.546 4.62868 58.4783 4.51347 58.3585C4.39826 58.2387 4.33314 58.0765 4.33226 57.9071ZM78.777 54.9287C78.777 54.7597 78.8414 54.5975 78.956 54.4776C79.0707 54.3577 79.2264 54.2899 79.389 54.289C79.4699 54.2885 79.5501 54.3048 79.625 54.3367C79.6999 54.3687 79.7679 54.4158 79.8251 54.4753C79.8823 54.5348 79.9276 54.6055 79.9584 54.6834C79.9892 54.7612 80.0048 54.8446 80.0043 54.9287C80.0048 55.0129 79.9892 55.0963 79.9584 55.1741C79.9276 55.2519 79.8823 55.3226 79.8251 55.3821C79.7679 55.4416 79.6999 55.4887 79.625 55.5207C79.5501 55.5527 79.4699 55.5689 79.389 55.5685C79.2264 55.5675 79.0707 55.4997 78.956 55.3798C78.8414 55.26 78.777 55.0978 78.777 54.9287ZM4.33226 54.5092C4.33226 54.3396 4.39709 54.1768 4.5125 54.0569C4.6279 53.9369 4.78442 53.8695 4.94762 53.8695C5.11055 53.8704 5.26655 53.9381 5.38176 54.0579C5.49698 54.1777 5.56209 54.3398 5.56298 54.5092C5.56209 54.6786 5.49698 54.8408 5.38176 54.9606C5.26655 55.0803 5.11055 55.148 4.94762 55.149C4.78442 55.149 4.6279 55.0816 4.5125 54.9616C4.39709 54.8416 4.33226 54.6789 4.33226 54.5092ZM78.777 51.5308C78.777 51.3617 78.8414 51.1996 78.956 51.0797C79.0707 50.9598 79.2264 50.892 79.389 50.8911C79.4699 50.8906 79.5501 50.9068 79.625 50.9388C79.6999 50.9708 79.7679 51.0179 79.8251 51.0774C79.8823 51.1369 79.9276 51.2076 79.9584 51.2854C79.9892 51.3633 80.0048 51.4467 80.0043 51.5308C80.0043 51.7005 79.9395 51.8632 79.8241 51.9832C79.7087 52.1031 79.5522 52.1705 79.389 52.1705C79.3077 52.1696 79.2274 52.1521 79.1527 52.1189C79.078 52.0857 79.0103 52.0376 78.9534 51.9772C78.8966 51.9168 78.8518 51.8454 78.8215 51.767C78.7912 51.6886 78.7761 51.6048 78.777 51.5203V51.5308ZM4.33226 51.0903C4.33226 50.9207 4.39709 50.7579 4.5125 50.638C4.6279 50.518 4.78442 50.4506 4.94762 50.4506C5.11055 50.4515 5.26655 50.5192 5.38176 50.639C5.49698 50.7588 5.56209 50.921 5.56298 51.0903C5.56209 51.2597 5.49698 51.4219 5.38176 51.5417C5.26655 51.6615 5.11055 51.7291 4.94762 51.7301C4.86681 51.7301 4.78679 51.7135 4.71213 51.6814C4.63747 51.6492 4.56964 51.6021 4.5125 51.5427C4.45535 51.4833 4.41003 51.4128 4.3791 51.3351C4.34818 51.2575 4.33226 51.1743 4.33226 51.0903ZM78.777 48.1119C78.777 47.9428 78.8414 47.7807 78.956 47.6608C79.0707 47.5409 79.2264 47.4731 79.389 47.4722C79.4699 47.4717 79.5501 47.4879 79.625 47.5199C79.6999 47.5519 79.7679 47.599 79.8251 47.6585C79.8823 47.718 79.9276 47.7887 79.9584 47.8666C79.9892 47.9444 80.0048 48.0278 80.0043 48.1119C80.0043 48.1959 79.9884 48.2791 79.9575 48.3567C79.9266 48.4343 79.8812 48.5049 79.8241 48.5643C79.767 48.6237 79.6991 48.6708 79.6245 48.7029C79.5498 48.7351 79.4698 48.7516 79.389 48.7516C79.2266 48.7498 79.0715 48.6817 78.957 48.562C78.8425 48.4424 78.7779 48.2807 78.777 48.1119ZM4.33226 47.6819C4.33226 47.5123 4.39709 47.3495 4.5125 47.2296C4.6279 47.1096 4.78442 47.0422 4.94762 47.0422C5.11055 47.0431 5.26655 47.1108 5.38176 47.2306C5.49698 47.3504 5.56209 47.5125 5.56298 47.6819C5.56209 47.8513 5.49698 48.0135 5.38176 48.1333C5.26655 48.253 5.11055 48.3207 4.94762 48.3217C4.78469 48.3207 4.62868 48.253 4.51347 48.1333C4.39826 48.0135 4.33314 47.8513 4.33226 47.6819ZM78.777 44.721C78.777 44.5519 78.8414 44.3897 78.956 44.2699C79.0707 44.15 79.2264 44.0822 79.389 44.0813C79.4699 44.0808 79.5501 44.097 79.625 44.129C79.6999 44.161 79.7679 44.2081 79.8251 44.2676C79.8823 44.3271 79.9276 44.3978 79.9584 44.4756C79.9892 44.5535 80.0048 44.6368 80.0043 44.721C80.0048 44.8051 79.9892 44.8885 79.9584 44.9663C79.9276 45.0442 79.8823 45.1149 79.8251 45.1744C79.7679 45.2339 79.6999 45.281 79.625 45.313C79.5501 45.345 79.4699 45.3612 79.389 45.3607C79.2264 45.3598 79.0707 45.292 78.956 45.1721C78.8414 45.0522 78.777 44.89 78.777 44.721ZM4.33226 44.2735C4.33226 44.1039 4.39709 43.9411 4.5125 43.8212C4.6279 43.7012 4.78442 43.6338 4.94762 43.6338C5.11055 43.6347 5.26655 43.7024 5.38176 43.8222C5.49698 43.942 5.56209 44.1041 5.56298 44.2735C5.56209 44.4429 5.49698 44.6051 5.38176 44.7249C5.26655 44.8446 5.11055 44.9123 4.94762 44.9133C4.78442 44.9133 4.6279 44.8459 4.5125 44.7259C4.39709 44.6059 4.33226 44.4432 4.33226 44.2735ZM78.777 41.2951C78.777 41.126 78.8414 40.9639 78.956 40.844C79.0707 40.7241 79.2264 40.6563 79.389 40.6554C79.4699 40.6549 79.5501 40.6711 79.625 40.7031C79.6999 40.7351 79.7679 40.7822 79.8251 40.8417C79.8823 40.9012 79.9276 40.9719 79.9584 41.0497C79.9892 41.1276 80.0048 41.211 80.0043 41.2951C80.0043 41.4648 79.9395 41.6275 79.8241 41.7475C79.7087 41.8674 79.5522 41.9348 79.389 41.9348C79.2266 41.933 79.0715 41.8649 78.957 41.7452C78.8425 41.6255 78.7779 41.4639 78.777 41.2951ZM4.33226 40.8756C4.33226 40.7916 4.34818 40.7084 4.3791 40.6308C4.41003 40.5532 4.45535 40.4827 4.5125 40.4233C4.56964 40.3638 4.63747 40.3167 4.71213 40.2846C4.78679 40.2524 4.86681 40.2359 4.94762 40.2359C5.11055 40.2368 5.26655 40.3045 5.38176 40.4243C5.49698 40.544 5.56209 40.7062 5.56298 40.8756C5.56209 41.045 5.49698 41.2072 5.38176 41.327C5.26655 41.4467 5.11055 41.5144 4.94762 41.5153C4.78442 41.5153 4.6279 41.4479 4.5125 41.328C4.39709 41.208 4.33226 41.0453 4.33226 40.8756ZM78.777 37.8972C78.777 37.7281 78.8414 37.5659 78.956 37.4461C79.0707 37.3262 79.2264 37.2584 79.389 37.2575C79.4699 37.257 79.5501 37.2732 79.625 37.3052C79.6999 37.3372 79.7679 37.3843 79.8251 37.4438C79.8823 37.5033 79.9276 37.574 79.9584 37.6518C79.9892 37.7297 80.0048 37.813 80.0043 37.8972C80.0043 38.0669 79.9395 38.2296 79.8241 38.3495C79.7087 38.4695 79.5522 38.5369 79.389 38.5369C79.3077 38.536 79.2274 38.5185 79.1527 38.4853C79.078 38.4521 79.0103 38.404 78.9534 38.3436C78.8966 38.2832 78.8518 38.2118 78.8215 38.1334C78.7912 38.055 78.7761 37.9712 78.777 37.8867V37.8972ZM4.33226 37.4567C4.33226 37.2871 4.39709 37.1243 4.5125 37.0044C4.6279 36.8844 4.78442 36.817 4.94762 36.817C5.11055 36.8179 5.26655 36.8856 5.38176 37.0054C5.49698 37.1251 5.56209 37.2873 5.56298 37.4567C5.56209 37.6261 5.49698 37.7883 5.38176 37.9081C5.26655 38.0278 5.11055 38.0955 4.94762 38.0965C4.78469 38.0955 4.62868 38.0278 4.51347 37.9081C4.39826 37.7883 4.33314 37.6261 4.33226 37.4567ZM78.7803 34.4783C78.7799 34.3947 78.7953 34.3119 78.8256 34.2346C78.856 34.1572 78.9007 34.0868 78.9572 34.0274C79.0137 33.968 79.081 33.9207 79.155 33.8883C79.2291 33.8559 79.3086 33.839 79.389 33.8386C79.4699 33.8381 79.5501 33.8543 79.625 33.8863C79.6999 33.9183 79.7679 33.9654 79.8251 34.0249C79.8823 34.0844 79.9276 34.1551 79.9584 34.2329C79.9892 34.3108 80.0048 34.3942 80.0043 34.4783C80.0048 34.5624 79.9892 34.6458 79.9584 34.7237C79.9276 34.8015 79.8823 34.8722 79.8251 34.9317C79.7679 34.9912 79.6999 35.0383 79.625 35.0703C79.5501 35.1023 79.4699 35.1185 79.389 35.118C79.3085 35.118 79.2288 35.1014 79.1545 35.0692C79.0802 35.037 79.0128 34.9897 78.9562 34.9302C78.8996 34.8707 78.8549 34.8002 78.8247 34.7226C78.7945 34.645 78.7795 34.562 78.7803 34.4783ZM4.33226 34.0483C4.33226 33.8786 4.39709 33.7159 4.5125 33.596C4.6279 33.476 4.78442 33.4086 4.94762 33.4086C5.11082 33.4086 5.26734 33.476 5.38274 33.596C5.49814 33.7159 5.56298 33.8786 5.56298 34.0483C5.56209 34.2177 5.49698 34.3799 5.38176 34.4997C5.26655 34.6194 5.11055 34.6871 4.94762 34.688C4.78469 34.6871 4.62868 34.6194 4.51347 34.4997C4.39826 34.3799 4.33314 34.2177 4.33226 34.0483ZM78.7803 31.0874C78.7799 31.0038 78.7953 30.921 78.8256 30.8436C78.856 30.7663 78.9007 30.6959 78.9572 30.6365C79.0137 30.5771 79.081 30.5298 79.155 30.4974C79.2291 30.465 79.3086 30.4481 79.389 30.4476C79.4699 30.4472 79.5501 30.4634 79.625 30.4954C79.6999 30.5274 79.7679 30.5745 79.8251 30.634C79.8823 30.6935 79.9276 30.7642 79.9584 30.842C79.9892 30.9198 80.0048 31.0032 80.0043 31.0874C80.0043 31.257 79.9395 31.4198 79.8241 31.5397C79.7087 31.6597 79.5522 31.7271 79.389 31.7271C79.3086 31.7266 79.2291 31.7097 79.155 31.6773C79.081 31.6449 79.0137 31.5977 78.9572 31.5383C78.9007 31.4789 78.856 31.4085 78.8256 31.3311C78.7953 31.2538 78.7799 31.1709 78.7803 31.0874ZM4.33226 30.6574C4.33226 30.4877 4.39709 30.325 4.5125 30.205C4.6279 30.0851 4.78442 30.0177 4.94762 30.0177C5.11082 30.0177 5.26734 30.0851 5.38274 30.205C5.49814 30.325 5.56298 30.4877 5.56298 30.6574C5.56298 30.8271 5.49814 30.9898 5.38274 31.1098C5.26734 31.2297 5.11082 31.2971 4.94762 31.2971C4.86537 31.2972 4.78396 31.28 4.70818 31.2468C4.63241 31.2136 4.56381 31.1649 4.50644 31.1036C4.44907 31.0423 4.40411 30.9697 4.37419 30.8901C4.34427 30.8105 4.33001 30.7254 4.33226 30.6399V30.6574ZM4.41633 28.7382C4.37562 28.6661 4.34914 28.5863 4.33844 28.5034C4.32774 28.4205 4.33303 28.3363 4.35401 28.2556C4.37498 28.1749 4.41122 28.0993 4.4606 28.0333C4.50999 27.9673 4.57152 27.9122 4.64162 27.8712C4.78256 27.7861 4.95024 27.7626 5.10785 27.8058C5.26546 27.8491 5.40012 27.9556 5.48227 28.102C5.56282 28.2486 5.58435 28.4224 5.54214 28.5854C5.49994 28.7485 5.39743 28.8876 5.25698 28.9724C5.16297 29.0291 5.05631 29.0593 4.94762 29.0598C4.8378 29.0587 4.73034 29.0266 4.63675 28.9668C4.54316 28.9071 4.46696 28.822 4.41633 28.7207V28.7382ZM78.4676 28.5844C78.3978 28.5427 78.3365 28.4871 78.2873 28.4208C78.2381 28.3544 78.2021 28.2787 78.1811 28.1978C78.1602 28.1169 78.1548 28.0325 78.1653 27.9495C78.1758 27.8665 78.202 27.7864 78.2423 27.7139C78.2827 27.6412 78.3365 27.5774 78.4006 27.5262C78.4648 27.4751 78.5379 27.4376 78.616 27.4158C78.6941 27.3941 78.7755 27.3885 78.8556 27.3995C78.9357 27.4104 79.013 27.4377 79.083 27.4797C79.2234 27.5645 79.3259 27.7036 79.3681 27.8667C79.4103 28.0297 79.3888 28.2035 79.3083 28.3502C79.2543 28.448 79.1765 28.5293 79.0826 28.5858C78.9887 28.6422 78.8821 28.6719 78.7736 28.6718C78.666 28.6713 78.5604 28.6411 78.4676 28.5844ZM7.25437 27.0183C7.21372 26.9457 7.18738 26.8654 7.17688 26.7821C7.16638 26.6989 7.17193 26.6142 7.19322 26.5332C7.2145 26.4522 7.25109 26.3764 7.30084 26.3102C7.3506 26.2441 7.41253 26.1888 7.48302 26.1478C7.55276 26.1059 7.62976 26.0787 7.70963 26.0678C7.7895 26.0568 7.87066 26.0624 7.94845 26.0842C8.02624 26.1059 8.09913 26.1435 8.16294 26.1946C8.22676 26.2457 8.28023 26.3094 8.32031 26.382C8.40086 26.5287 8.42238 26.7025 8.38018 26.8655C8.33798 27.0286 8.23547 27.1677 8.09502 27.2525C8.00198 27.3082 7.89637 27.3371 7.78902 27.3364C7.68067 27.338 7.5739 27.3093 7.47985 27.2533C7.38581 27.1974 7.30793 27.1162 7.25437 27.0183ZM75.6229 26.8924C75.4828 26.8063 75.3809 26.6666 75.3387 26.5032C75.2966 26.3399 75.3177 26.1658 75.3976 26.0185C75.438 25.9457 75.4918 25.8819 75.5559 25.8308C75.62 25.7796 75.6932 25.7421 75.7712 25.7203C75.8493 25.6986 75.9307 25.693 76.0108 25.704C76.091 25.715 76.1682 25.7422 76.2382 25.7843C76.3085 25.8259 76.3702 25.8817 76.4197 25.9483C76.4691 26.0149 76.5054 26.0911 76.5264 26.1723C76.5473 26.2536 76.5525 26.3384 76.5418 26.4218C76.531 26.5052 76.5044 26.5856 76.4635 26.6582C76.4094 26.7549 76.3319 26.8351 76.2387 26.8909C76.1455 26.9468 76.0398 26.9762 75.9322 26.9763C75.8238 26.9772 75.7171 26.9482 75.6229 26.8924ZM10.0958 25.3123C10.0554 25.2403 10.0291 25.1607 10.0184 25.0781C10.0077 24.9955 10.0128 24.9114 10.0334 24.8309C10.054 24.7503 10.0897 24.6748 10.1385 24.6086C10.1873 24.5425 10.2482 24.487 10.3177 24.4454C10.3876 24.4029 10.4649 24.3752 10.5451 24.364C10.6253 24.3528 10.7069 24.3582 10.7851 24.38C10.8632 24.4018 10.9365 24.4395 11.0006 24.4909C11.0646 24.5423 11.1183 24.6065 11.1584 24.6796C11.1986 24.7518 11.2247 24.8316 11.2352 24.9144C11.2456 24.9971 11.2402 25.0812 11.2193 25.1618C11.1984 25.2424 11.1623 25.3179 11.1132 25.3839C11.064 25.4499 11.0028 25.5052 10.9331 25.5465C10.8419 25.6047 10.7373 25.6361 10.6304 25.6374C10.5214 25.6383 10.4142 25.6086 10.3201 25.5514C10.226 25.4941 10.1485 25.4115 10.0958 25.3123ZM72.7848 25.176C72.644 25.0906 72.5416 24.9506 72.5 24.7867C72.4584 24.6229 72.481 24.4486 72.5629 24.302C72.6438 24.1563 72.777 24.0498 72.9333 24.0059C73.0896 23.962 73.2563 23.9842 73.3968 24.0678C73.4671 24.1095 73.5288 24.1652 73.5783 24.2318C73.6277 24.2985 73.664 24.3746 73.6849 24.4559C73.7059 24.5372 73.7111 24.622 73.7003 24.7054C73.6896 24.7888 73.663 24.8691 73.6221 24.9418C73.5693 25.0398 73.4921 25.1214 73.3987 25.1779C73.3052 25.2345 73.1989 25.264 73.0908 25.2634C72.9832 25.2629 72.8776 25.2327 72.7848 25.176ZM12.9304 23.6099C12.8499 23.4632 12.8284 23.2894 12.8706 23.1264C12.9128 22.9633 13.0153 22.8242 13.1557 22.7394C13.2256 22.6969 13.3029 22.6693 13.3831 22.6581C13.4633 22.6469 13.5449 22.6523 13.6231 22.6741C13.7013 22.6959 13.7745 22.7336 13.8386 22.785C13.9027 22.8364 13.9563 22.9005 13.9964 22.9736C14.0376 23.0459 14.0645 23.126 14.0755 23.2092C14.0865 23.2925 14.0814 23.3771 14.0604 23.4583C14.0394 23.5394 14.0029 23.6153 13.9533 23.6816C13.9036 23.7479 13.8416 23.8031 13.7711 23.8441C13.6789 23.9021 13.5729 23.9324 13.4651 23.9315C13.3566 23.9316 13.25 23.9019 13.1561 23.8455C13.0622 23.789 12.9844 23.7077 12.9304 23.6099ZM69.9468 23.4735C69.8765 23.4319 69.8148 23.3761 69.7653 23.3095C69.7159 23.2429 69.6796 23.1667 69.6587 23.0854C69.6377 23.0042 69.6325 22.9194 69.6432 22.836C69.654 22.7526 69.6806 22.6722 69.7215 22.5996C69.7619 22.5268 69.8157 22.463 69.8798 22.4119C69.9439 22.3607 70.0171 22.3232 70.0952 22.3014C70.1732 22.2797 70.2546 22.2741 70.3348 22.2851C70.4149 22.2961 70.4921 22.3233 70.5621 22.3654C70.7029 22.4508 70.8054 22.5908 70.847 22.7546C70.8886 22.9185 70.866 23.0928 70.7841 23.2393C70.73 23.3367 70.652 23.4175 70.5581 23.4734C70.4641 23.5293 70.3576 23.5583 70.2494 23.5574C70.1431 23.5586 70.0385 23.5296 69.9468 23.4735ZM15.7718 21.9109C15.6908 21.7627 15.669 21.5873 15.7111 21.4225C15.7533 21.2577 15.856 21.1168 15.9971 21.03C16.1393 20.9473 16.307 20.9258 16.4642 20.9703C16.6214 21.0147 16.7555 21.1215 16.8378 21.2677C16.8781 21.3402 16.9043 21.4202 16.9148 21.5033C16.9253 21.5863 16.9199 21.6707 16.899 21.7515C16.8781 21.8324 16.842 21.9082 16.7928 21.9745C16.7437 22.0409 16.6824 22.0965 16.6125 22.1381C16.5199 22.1952 16.4142 22.2254 16.3065 22.2255C16.1987 22.2264 16.0925 22.1978 15.9987 22.1425C15.9049 22.0873 15.8266 22.0074 15.7718 21.9109ZM67.1087 21.7676C67.0387 21.7256 66.9774 21.6697 66.9282 21.603C66.879 21.5363 66.8429 21.4603 66.822 21.3791C66.8011 21.298 66.7957 21.2133 66.8063 21.13C66.8168 21.0467 66.843 20.9664 66.8834 20.8936C66.965 20.7476 67.0988 20.641 67.2557 20.5972C67.4125 20.5533 67.5797 20.5757 67.7207 20.6594C67.8614 20.7449 67.964 20.8846 68.0062 21.0482C68.0484 21.2119 68.0267 21.3862 67.946 21.5334C67.8926 21.6309 67.8154 21.7121 67.7221 21.7686C67.6287 21.825 67.5227 21.8549 67.4147 21.855C67.3069 21.8559 67.201 21.8256 67.1087 21.7676ZM18.6132 20.2015C18.5724 20.1288 18.5458 20.0485 18.535 19.9651C18.5242 19.8817 18.5295 19.7969 18.5504 19.7156C18.5714 19.6343 18.6076 19.5582 18.6571 19.4915C18.7065 19.4249 18.7682 19.3692 18.8385 19.3275C18.9801 19.2436 19.1478 19.2211 19.3052 19.265C19.4626 19.3088 19.597 19.4155 19.6792 19.5617C19.7599 19.7089 19.7815 19.8832 19.7393 20.0468C19.6972 20.2105 19.5946 20.3502 19.4539 20.4357C19.3599 20.4924 19.2532 20.5225 19.1445 20.5231C19.0366 20.523 18.9305 20.4931 18.8372 20.4367C18.7439 20.3802 18.6666 20.299 18.6132 20.2015ZM64.2673 20.0651C64.1973 20.0231 64.136 19.9672 64.0868 19.9005C64.0376 19.8339 64.0015 19.7578 63.9806 19.6767C63.9597 19.5955 63.9543 19.5109 63.9649 19.4276C63.9754 19.3443 64.0016 19.2639 64.0421 19.1912C64.0825 19.1184 64.1362 19.0546 64.2004 19.0035C64.2645 18.9523 64.3376 18.9148 64.4157 18.893C64.4938 18.8713 64.5752 18.8657 64.6553 18.8767C64.7354 18.8877 64.8127 18.9149 64.8827 18.957C64.9527 18.999 65.014 19.0549 65.0633 19.1215C65.1125 19.1882 65.1485 19.2643 65.1695 19.3454C65.1904 19.4266 65.1957 19.5112 65.1852 19.5945C65.1746 19.6778 65.1484 19.7581 65.108 19.8309C65.0534 19.9279 64.9753 20.0082 64.8815 20.0641C64.7877 20.1199 64.6814 20.1492 64.5733 20.149C64.4659 20.1503 64.3602 20.1213 64.2673 20.0651ZM21.4513 18.5025C21.411 18.4303 21.3849 18.3505 21.3745 18.2677C21.364 18.185 21.3694 18.1009 21.3903 18.0203C21.4113 17.9397 21.4474 17.8642 21.4965 17.7982C21.5456 17.7321 21.6068 17.6769 21.6766 17.6355C21.8171 17.5501 21.9845 17.5261 22.1421 17.5686C22.2996 17.6112 22.4345 17.717 22.5172 17.8628C22.5979 18.0099 22.6196 18.1843 22.5774 18.3479C22.5352 18.5115 22.4326 18.6512 22.2919 18.7367C22.1992 18.7935 22.0936 18.8236 21.9859 18.8241C21.8773 18.825 21.7705 18.7956 21.6765 18.7391C21.5824 18.6825 21.5047 18.6008 21.4513 18.5025ZM61.4259 18.3662C61.2853 18.2807 61.1827 18.141 61.1405 17.9773C61.0983 17.8137 61.1199 17.6394 61.2006 17.4922C61.2829 17.346 61.4173 17.2393 61.5747 17.1955C61.7321 17.1516 61.8997 17.1741 62.0413 17.258C62.182 17.3435 62.2846 17.4832 62.3267 17.6468C62.3689 17.8105 62.3473 17.9848 62.2666 18.1319C62.2132 18.2295 62.1359 18.3107 62.0426 18.3671C61.9493 18.4236 61.8433 18.4534 61.7353 18.4536C61.626 18.4509 61.5193 18.4184 61.4259 18.3592V18.3662ZM24.2927 16.8C24.2522 16.7278 24.2259 16.6479 24.2151 16.565C24.2044 16.4821 24.2094 16.3978 24.23 16.317C24.2507 16.2361 24.2864 16.1603 24.3352 16.0938C24.3841 16.0274 24.445 15.9715 24.5146 15.9296C24.5845 15.8871 24.6618 15.8595 24.742 15.8483C24.8222 15.837 24.9038 15.8425 24.982 15.8643C25.0602 15.8861 25.1334 15.9237 25.1975 15.9752C25.2616 16.0266 25.3152 16.0907 25.3553 16.1638C25.3956 16.2363 25.4218 16.3164 25.4323 16.3994C25.4428 16.4824 25.4374 16.5668 25.4165 16.6477C25.3955 16.7285 25.3595 16.8043 25.3103 16.8707C25.2611 16.937 25.1999 16.9926 25.13 17.0343C25.0373 17.0908 24.9314 17.1198 24.824 17.1182C24.7155 17.1184 24.609 17.0884 24.5155 17.0312C24.4221 16.974 24.3451 16.8918 24.2927 16.7931V16.8ZM58.5913 16.6637C58.4506 16.5782 58.348 16.4385 58.3058 16.2749C58.2636 16.1112 58.2853 15.9369 58.366 15.7898C58.4064 15.717 58.4602 15.6532 58.5243 15.6021C58.5884 15.5509 58.6616 15.5134 58.7396 15.4916C58.8177 15.4699 58.8991 15.4643 58.9792 15.4753C59.0594 15.4863 59.1366 15.5135 59.2066 15.5555C59.2766 15.5975 59.338 15.6535 59.3872 15.7201C59.4364 15.7868 59.4725 15.8628 59.4934 15.944C59.5143 16.0252 59.5197 16.1098 59.5091 16.1931C59.4986 16.2764 59.4723 16.3567 59.4319 16.4295C59.3778 16.5269 59.2998 16.6077 59.2059 16.6636C59.112 16.7195 59.0055 16.7485 58.8973 16.7476C58.7881 16.7469 58.6813 16.7155 58.5879 16.6567L58.5913 16.6637ZM27.1307 15.0941C27.0512 14.9478 27.0303 14.7748 27.0725 14.6126C27.1146 14.4504 27.2165 14.3119 27.356 14.2271C27.4258 14.1842 27.5031 14.1562 27.5834 14.1447C27.6637 14.1332 27.7454 14.1386 27.8237 14.1604C27.9021 14.1822 27.9754 14.2201 28.0394 14.2717C28.1035 14.3234 28.1569 14.3879 28.1967 14.4614C28.2374 14.5335 28.2639 14.6133 28.2746 14.6961C28.2853 14.779 28.28 14.8633 28.259 14.944C28.238 15.0247 28.2018 15.1003 28.1524 15.1662C28.103 15.2322 28.0415 15.2873 27.9714 15.3283C27.8794 15.3874 27.7735 15.4189 27.6654 15.4192C27.5554 15.4186 27.4476 15.3874 27.353 15.3291C27.2584 15.2707 27.1806 15.1872 27.1274 15.0871L27.1307 15.0941ZM55.7499 14.9578C55.6091 14.8724 55.5066 14.7324 55.465 14.5685C55.4234 14.4047 55.446 14.2303 55.5279 14.0838C55.6095 13.9378 55.7433 13.8312 55.9002 13.7874C56.057 13.7435 56.2242 13.7659 56.3652 13.8496C56.5065 13.9345 56.6098 14.074 56.6526 14.2376C56.6954 14.4013 56.6743 14.576 56.5939 14.7235C56.5397 14.8211 56.4618 14.9022 56.3679 14.9587C56.2741 15.0151 56.1676 15.0449 56.0592 15.0452C55.9487 15.0436 55.8406 15.011 55.7465 14.9508L55.7499 14.9578ZM29.9721 13.3916C29.9318 13.3191 29.9056 13.2391 29.8951 13.1561C29.8846 13.073 29.89 12.9887 29.9109 12.9078C29.9319 12.8269 29.9679 12.7511 30.0171 12.6848C30.0663 12.6185 30.1275 12.5629 30.1974 12.5212C30.2673 12.4787 30.3446 12.4511 30.4248 12.4399C30.505 12.4286 30.5866 12.4341 30.6648 12.4559C30.743 12.4776 30.8162 12.5153 30.8803 12.5668C30.9444 12.6182 30.998 12.6823 31.0381 12.7554C31.0784 12.8279 31.1046 12.908 31.1151 12.991C31.1256 13.074 31.1202 13.1584 31.0993 13.2393C31.0784 13.3201 31.0423 13.3959 30.9931 13.4623C30.9439 13.5286 30.8827 13.5842 30.8128 13.6259C30.7193 13.6839 30.6123 13.7141 30.5034 13.7133C30.3942 13.7131 30.287 13.6825 30.193 13.6247C30.099 13.5669 30.0216 13.484 29.9688 13.3847L29.9721 13.3916ZM52.9118 13.2588C52.8415 13.2171 52.7798 13.1614 52.7304 13.0948C52.6809 13.0282 52.6446 12.952 52.6237 12.8707C52.6027 12.7894 52.5975 12.7046 52.6083 12.6212C52.6191 12.5378 52.6457 12.4575 52.6865 12.3849C52.7269 12.3121 52.7807 12.2483 52.8448 12.1972C52.909 12.146 52.9821 12.1085 53.0602 12.0867C53.1383 12.065 53.2197 12.0594 53.2998 12.0704C53.3799 12.0814 53.4572 12.1086 53.5272 12.1506C53.6672 12.2368 53.7692 12.3765 53.8113 12.5398C53.8534 12.7032 53.8323 12.8772 53.7525 13.0246C53.6971 13.1208 53.6188 13.2007 53.5252 13.2564C53.4316 13.3121 53.3257 13.3418 53.2178 13.3427C53.1103 13.3449 53.0043 13.3158 52.9118 13.2588ZM32.8102 11.6927C32.7698 11.6202 32.7437 11.5401 32.7332 11.4571C32.7227 11.3741 32.728 11.2897 32.749 11.2088C32.7699 11.128 32.806 11.0522 32.8551 10.9858C32.9043 10.9195 32.9656 10.8639 33.0355 10.8222C33.1755 10.737 33.3424 10.713 33.4994 10.7556C33.6564 10.7982 33.7907 10.9039 33.8728 11.0495C33.9538 11.1977 33.9756 11.3731 33.9335 11.5378C33.8913 11.7026 33.7886 11.8436 33.6475 11.9304C33.5533 11.9833 33.4484 12.012 33.3415 12.0143C33.2325 12.0131 33.1258 11.9817 33.0324 11.9234C32.939 11.865 32.8623 11.7817 32.8102 11.6822V11.6927ZM50.0704 11.5529C50.0004 11.5109 49.9391 11.4549 49.8899 11.3883C49.8407 11.3216 49.8046 11.2456 49.7837 11.1644C49.7627 11.0832 49.7574 10.9986 49.7679 10.9153C49.7785 10.832 49.8047 10.7517 49.8451 10.6789C49.9274 10.5326 50.0617 10.426 50.2191 10.3822C50.3765 10.3383 50.5442 10.3608 50.6858 10.4447C50.7558 10.4867 50.8171 10.5426 50.8663 10.6093C50.9155 10.6759 50.9516 10.752 50.9726 10.8331C50.9935 10.9143 50.9988 10.9989 50.9883 11.0822C50.9777 11.1656 50.9515 11.2459 50.9111 11.3186C50.8577 11.4162 50.7804 11.4974 50.6871 11.5538C50.5938 11.6103 50.4878 11.6401 50.3798 11.6403C50.27 11.6376 50.163 11.6037 50.0704 11.5424V11.5529ZM35.6482 9.99023C35.5675 9.84307 35.5459 9.66875 35.5881 9.50512C35.6302 9.34149 35.7328 9.20176 35.8735 9.11628C36.0144 9.03114 36.1821 9.00762 36.3397 9.05088C36.4973 9.09413 36.632 9.20064 36.7142 9.34701C36.7959 9.49449 36.8181 9.66965 36.7759 9.83412C36.7337 9.99859 36.6305 10.139 36.4889 10.2245C36.3952 10.2785 36.29 10.3074 36.1829 10.3084C36.0738 10.3074 35.9669 10.2766 35.873 10.2188C35.7791 10.1611 35.7016 10.0787 35.6482 9.97975V9.99023ZM47.229 9.8504C47.0883 9.76492 46.9858 9.6252 46.9436 9.46157C46.9014 9.29794 46.923 9.12362 47.0037 8.97645C47.0859 8.83019 47.2203 8.72356 47.3777 8.67971C47.5351 8.63585 47.7028 8.65832 47.8444 8.74223C47.9144 8.78423 47.9757 8.84016 48.0249 8.90681C48.0741 8.97346 48.1102 9.04954 48.1311 9.1307C48.1521 9.21185 48.1574 9.29649 48.1469 9.3798C48.1363 9.4631 48.1101 9.54342 48.0697 9.61618C48.0156 9.71286 47.9381 9.79311 47.8448 9.84893C47.7516 9.90475 47.646 9.93418 47.5384 9.9343C47.429 9.93232 47.3221 9.89972 47.229 9.83991V9.8504ZM38.4862 8.28079C38.4455 8.20868 38.4191 8.12887 38.4084 8.046C38.3977 7.96314 38.403 7.87888 38.4239 7.79817C38.4449 7.71745 38.4811 7.64189 38.5305 7.5759C38.5799 7.50991 38.6414 7.45482 38.7115 7.41383C38.7814 7.37135 38.8587 7.34371 38.9389 7.33249C39.0191 7.32128 39.1007 7.32672 39.1789 7.34851C39.2571 7.37029 39.3303 7.40798 39.3944 7.4594C39.4585 7.51081 39.5121 7.57494 39.5522 7.64805C39.6317 7.79436 39.6526 7.96731 39.6105 8.12953C39.5683 8.29176 39.4664 8.43022 39.3269 8.51501C39.2332 8.57281 39.1265 8.60414 39.0175 8.6059C38.9089 8.60342 38.8028 8.57105 38.71 8.51211C38.6173 8.45316 38.5413 8.36973 38.4896 8.2703L38.4862 8.28079ZM44.3876 8.14445C44.2469 8.05898 44.1444 7.91925 44.1022 7.75562C44.06 7.59199 44.0816 7.41767 44.1623 7.2705C44.2445 7.12425 44.3789 7.01761 44.5363 6.97376C44.6937 6.92991 44.8614 6.95237 45.003 7.03628C45.073 7.07828 45.1343 7.13421 45.1835 7.20086C45.2327 7.26751 45.2688 7.34359 45.2897 7.42475C45.3107 7.5059 45.316 7.59055 45.3055 7.67385C45.2949 7.75715 45.2687 7.83747 45.2283 7.91023C45.1743 8.00808 45.0965 8.08936 45.0026 8.14584C44.9087 8.20232 44.8021 8.23199 44.6936 8.23185C44.5862 8.22758 44.4818 8.1938 44.391 8.13396L44.3876 8.14445ZM41.3243 6.57833C41.284 6.50584 41.2578 6.42578 41.2473 6.34275C41.2368 6.25972 41.2421 6.17535 41.2631 6.09448C41.284 6.0136 41.3201 5.93782 41.3693 5.87148C41.4184 5.80514 41.4797 5.74955 41.5496 5.70788C41.6192 5.66548 41.6962 5.6379 41.7762 5.62673C41.8562 5.61556 41.9375 5.62103 42.0154 5.64283C42.0933 5.66462 42.1662 5.7023 42.23 5.75368C42.2938 5.80506 42.3471 5.86911 42.3869 5.9421C42.4277 6.01447 42.4542 6.09456 42.4649 6.17769C42.4757 6.26082 42.4704 6.34534 42.4494 6.42634C42.4285 6.50734 42.3922 6.5832 42.3428 6.6495C42.2934 6.7158 42.2318 6.77123 42.1616 6.81255C42.0702 6.86965 41.9656 6.89986 41.8589 6.89995C41.7499 6.89915 41.643 6.86791 41.5496 6.80949C41.4561 6.75107 41.3795 6.66761 41.3277 6.56785L41.3243 6.57833Z" fill="white"/>
</g>
<defs>
<clipPath id="clip0_590_22">
<rect width="85" height="99" fill="white" transform="translate(0.138672 0.300781)"/>
</clipPath>
</defs>
</svg>
