<svg width="84" height="74" viewBox="0 0 84 74" fill="none" xmlns="http://www.w3.org/2000/svg">
<g clip-path="url(#clip0_590_185)">
<path d="M41.3434 33.642C34.949 33.6353 28.8183 31.0631 24.2963 26.4898C19.7744 21.9166 17.2304 15.7157 17.2227 9.24756H18.2475C18.2475 12.3161 18.845 15.3545 20.0059 18.1895C21.1668 21.0244 22.8683 23.6003 25.0133 25.7701C27.1584 27.9398 29.7049 29.661 32.5076 30.8352C35.3102 32.0095 38.3141 32.6139 41.3476 32.6139C44.3812 32.6139 47.385 32.0095 50.1877 30.8352C52.9903 29.661 55.5368 27.9398 57.6819 25.7701C59.8269 23.6003 61.5285 21.0244 62.6894 18.1895C63.8503 15.3545 64.4478 12.3161 64.4478 9.24756H65.4726C65.4648 15.7172 62.9197 21.9193 58.3959 26.4928C53.8722 31.0664 47.7393 33.6375 41.3434 33.642Z" fill="white"/>
<path d="M17.7217 10.0587C16.8711 10.0587 16.0396 9.80353 15.3323 9.3255C14.625 8.84748 14.0738 8.16805 13.7483 7.37312C13.4228 6.57819 13.3376 5.70347 13.5035 4.85958C13.6695 4.01568 14.0791 3.24052 14.6806 2.63211C15.2821 2.0237 16.0484 1.60937 16.8827 1.4415C17.717 1.27364 18.5817 1.35979 19.3676 1.68906C20.1535 2.01833 20.8252 2.57593 21.2977 3.29135C21.7703 4.00677 22.0226 4.84788 22.0226 5.7083C22.0214 6.86175 21.568 7.96762 20.7616 8.78324C19.9553 9.59885 18.862 10.0576 17.7217 10.0587ZM17.7217 2.41152C17.0726 2.41068 16.4378 2.60467 15.8978 2.96893C15.3577 3.3332 14.9366 3.85136 14.6878 4.45782C14.439 5.06429 14.3737 5.73178 14.5001 6.37581C14.6266 7.01984 14.9391 7.61144 15.3981 8.07573C15.8571 8.54002 16.4419 8.85611 17.0786 8.984C17.7153 9.11189 18.3752 9.04582 18.9748 8.79417C19.5743 8.54251 20.0866 8.11658 20.4467 7.57028C20.8068 7.02398 20.9986 6.38189 20.9978 5.72529C20.9994 5.28884 20.9159 4.85635 20.7521 4.4526C20.5882 4.04884 20.3473 3.68176 20.0429 3.37235C19.7386 3.06295 19.377 2.81733 18.9786 2.64953C18.5803 2.48174 18.1532 2.39508 17.7217 2.39452V2.41152Z" fill="white"/>
<path d="M65.1026 10.0589C64.252 10.0589 63.4204 9.80377 62.7132 9.32575C62.0059 8.84772 61.4547 8.16829 61.1291 7.37336C60.8036 6.57843 60.7185 5.70371 60.8844 4.85982C61.0503 4.01593 61.46 3.24077 62.0614 2.63235C62.6629 2.02394 63.4293 1.60961 64.2635 1.44175C65.0978 1.27389 65.9626 1.36004 66.7484 1.68931C67.5343 2.01858 68.206 2.57618 68.6786 3.29159C69.1512 4.00701 69.4034 4.84812 69.4034 5.70855C69.4023 6.86199 68.9488 7.96787 68.1425 8.78348C67.3362 9.59909 66.2429 10.0578 65.1026 10.0589ZM65.1026 2.41176C64.4535 2.41092 63.8187 2.60491 63.2786 2.96917C62.7385 3.33344 62.3175 3.85161 62.0687 4.45807C61.8199 5.06453 61.7546 5.73203 61.881 6.37606C62.0074 7.02009 62.3199 7.61168 62.7789 8.07597C63.2379 8.54026 63.8228 8.85635 64.4595 8.98425C65.0962 9.11214 65.7561 9.04607 66.3556 8.79441C66.9552 8.54275 67.4674 8.11682 67.8275 7.57052C68.1877 7.02423 68.3794 6.38213 68.3786 5.72553C68.3797 5.28924 68.2959 4.85701 68.1318 4.4535C67.9678 4.05 67.7268 3.68313 67.4226 3.37384C67.1184 3.06455 66.7569 2.8189 66.3588 2.65091C65.9608 2.48292 65.5339 2.39588 65.1026 2.39477V2.41176Z" fill="white"/>
<path d="M41.2712 10.0587C40.4208 10.0578 39.5897 9.80198 38.883 9.32344C38.1763 8.84491 37.6257 8.16518 37.3008 7.37018C36.9759 6.57517 36.8913 5.70058 37.0578 4.85697C37.2242 4.01336 37.6341 3.23859 38.2358 2.63061C38.8374 2.02262 39.6038 1.60871 40.4379 1.4412C41.2721 1.27368 42.1366 1.36007 42.9223 1.68947C43.7079 2.01886 44.3793 2.57647 44.8517 3.29179C45.3241 4.00712 45.5763 4.84806 45.5763 5.7083C45.5752 6.86249 45.1211 7.96901 44.3139 8.78474C43.5066 9.60048 42.4123 10.0587 41.2712 10.0587ZM41.2712 2.41152C40.6223 2.41152 39.9879 2.60623 39.4484 2.97101C38.9089 3.33578 38.4885 3.85423 38.2403 4.46077C37.9922 5.06731 37.9274 5.73467 38.0544 6.37842C38.1813 7.02217 38.4941 7.61337 38.9533 8.07723C39.4124 8.5411 39.9973 8.85677 40.6339 8.98431C41.2705 9.11186 41.9301 9.04555 42.5294 8.79377C43.1287 8.54198 43.6408 8.11605 44.0007 7.56984C44.3606 7.02364 44.5523 6.38171 44.5515 5.72529C44.5531 5.28849 44.4695 4.85566 44.3054 4.45163C44.1413 4.0476 43.8999 3.68031 43.5952 3.37085C43.2904 3.06139 42.9282 2.81585 42.5294 2.6483C42.1306 2.48076 41.7031 2.39452 41.2712 2.39452V2.41152Z" fill="white"/>
<path d="M41.2712 58.3473C40.4208 58.3464 39.5897 58.0906 38.883 57.612C38.1763 57.1335 37.6257 56.4538 37.3008 55.6588C36.9759 54.8638 36.8913 53.9892 37.0578 53.1455C37.2242 52.3019 37.6341 51.5272 38.2358 50.9192C38.8374 50.3112 39.6038 49.8973 40.4379 49.7298C41.2721 49.5622 42.1366 49.6487 42.9223 49.978C43.7079 50.3074 44.3793 50.865 44.8517 51.5804C45.3241 52.2957 45.5763 53.1366 45.5763 53.9969C45.5752 55.151 45.1211 56.2576 44.3139 57.0733C43.5066 57.889 42.4123 58.3473 41.2712 58.3473ZM41.2712 50.7001C40.6223 50.7001 39.9879 50.8948 39.4484 51.2596C38.9089 51.6244 38.4885 52.1428 38.2403 52.7494C37.9922 53.3559 37.9274 54.0232 38.0544 54.667C38.1813 55.3107 38.4941 55.9019 38.9533 56.3658C39.4124 56.8297 39.9973 57.1454 40.6339 57.2729C41.2705 57.4004 41.9301 57.3341 42.5294 57.0823C43.1287 56.8306 43.6408 56.4046 44.0007 55.8584C44.3606 55.3122 44.5523 54.6703 44.5515 54.0139C44.5531 53.5771 44.4695 53.1442 44.3054 52.7402C44.1413 52.3362 43.8999 51.9689 43.5952 51.6594C43.2904 51.35 42.9282 51.1044 42.5294 50.9369C42.1306 50.7693 41.7031 50.6831 41.2712 50.6831V50.7001Z" fill="white"/>
<path d="M54.4057 38.9193H27.6779C27.5972 38.9157 27.5189 38.8918 27.4505 38.8499C27.382 38.8081 27.3257 38.7496 27.287 38.6802C27.2483 38.6108 27.2285 38.5328 27.2295 38.4538C27.2305 38.3747 27.2523 38.2972 27.2927 38.2288L40.6567 15.5495C40.698 15.4793 40.7575 15.4211 40.8292 15.3807C40.9009 15.3403 40.9822 15.3191 41.0649 15.3193C41.147 15.3194 41.2277 15.3407 41.2987 15.3811C41.3697 15.4215 41.4285 15.4796 41.4693 15.5495L54.8332 38.2288C54.8745 38.2988 54.8962 38.3784 54.8962 38.4593C54.8961 38.5402 54.8743 38.6197 54.8329 38.6897C54.7915 38.7597 54.732 38.8178 54.6604 38.8581C54.5888 38.8984 54.5076 38.9196 54.425 38.9193H54.4057ZM28.4905 37.9986H53.5854L41.0379 16.6967L28.4905 37.9986Z" fill="white"/>
<path d="M58.1723 68.6065H24.5132C24.4238 68.606 24.336 68.5818 24.2586 68.5363C24.1812 68.4909 24.117 68.4257 24.0722 68.3473C24.0268 68.2687 24.0029 68.1792 24.0029 68.0881C24.0029 67.9971 24.0268 67.9076 24.0722 67.829L40.9017 38.3407C40.9468 38.2617 41.0118 38.1961 41.0899 38.1506C41.1681 38.1051 41.2568 38.0813 41.3469 38.0815C41.4365 38.0816 41.5245 38.1056 41.6019 38.1511C41.6794 38.1966 41.7435 38.262 41.788 38.3407L58.6175 67.829C58.6628 67.9076 58.6868 67.9971 58.6868 68.0881C58.6868 68.1792 58.6628 68.2687 58.6175 68.3473C58.5717 68.4258 58.5067 68.4909 58.4286 68.5363C58.3506 68.5817 58.2623 68.6059 58.1723 68.6065ZM25.412 67.5699H57.2987L41.3595 39.6365L25.412 67.5699Z" fill="white"/>
<path d="M41.8598 9.54053H40.835V58.27H41.8598V9.54053Z" fill="white"/>
<path d="M41.7018 58.2283H40.6377V73.2465H41.7018V58.2283Z" fill="white"/>
<path d="M32.9514 72.6211H17.2559V73.6577H32.9514V72.6211Z" fill="white"/>
<path d="M65.5266 72.6211H49.8311V73.6577H65.5266V72.6211Z" fill="white"/>
<path d="M26.9534 54.8246C26.8511 54.6465 26.8228 54.4346 26.8748 54.2355C26.9268 54.0364 27.0547 53.8663 27.2306 53.7625C27.4066 53.659 27.6161 53.6304 27.8129 53.683C28.0098 53.7356 28.178 53.865 28.2806 54.0428C28.3821 54.2207 28.4104 54.4318 28.3593 54.6305C28.3082 54.8292 28.1819 54.9997 28.0076 55.1049C27.8894 55.1763 27.7546 55.2144 27.617 55.2154C27.4822 55.2148 27.3499 55.1784 27.2335 55.1098C27.117 55.0412 27.0204 54.9428 26.9534 54.8246ZM24.8786 51.2559C24.8275 51.1682 24.7941 51.0711 24.7803 50.9702C24.7666 50.8694 24.7728 50.7668 24.7986 50.6684C24.8244 50.57 24.8693 50.4777 24.9306 50.397C24.9919 50.3162 25.0684 50.2486 25.1558 50.198C25.2421 50.1453 25.338 50.1105 25.4378 50.0956C25.5376 50.0808 25.6394 50.0862 25.7371 50.1115C25.8348 50.1368 25.9266 50.1815 26.0071 50.243C26.0875 50.3046 26.1551 50.3817 26.2058 50.4699C26.3084 50.6475 26.3373 50.859 26.2862 51.058C26.235 51.2571 26.1079 51.4275 25.9328 51.532C25.8159 51.6028 25.6826 51.641 25.5464 51.6425C25.411 51.6422 25.278 51.606 25.1608 51.5374C25.0436 51.4688 24.9463 51.3703 24.8786 51.2517V51.2559ZM57.2482 50.9415C57.1605 50.8901 57.0838 50.8217 57.0224 50.7402C56.961 50.6587 56.9161 50.5657 56.8904 50.4666C56.8646 50.3675 56.8585 50.2643 56.8723 50.1628C56.8861 50.0613 56.9197 49.9635 56.971 49.8751C57.0759 49.6985 57.2451 49.5707 57.4423 49.519C57.6394 49.4674 57.8487 49.4961 58.0252 49.599C58.1995 49.7043 58.3258 49.8747 58.3769 50.0735C58.428 50.2722 58.3997 50.4833 58.2982 50.6611C58.2301 50.7778 58.1331 50.8745 58.0167 50.9415C57.9003 51.0086 57.7685 51.0437 57.6346 51.0435C57.4987 51.0436 57.3653 51.0069 57.2482 50.9372V50.9415ZM22.808 47.683C22.7567 47.5955 22.723 47.4986 22.709 47.398C22.695 47.2973 22.7008 47.1948 22.7262 47.0964C22.7516 46.998 22.796 46.9057 22.8569 46.8248C22.9178 46.7439 22.994 46.676 23.081 46.6251C23.1675 46.573 23.2633 46.5386 23.363 46.5241C23.4627 46.5095 23.5643 46.515 23.6618 46.5403C23.7594 46.5655 23.8511 46.61 23.9316 46.6713C24.0121 46.7325 24.0799 46.8092 24.131 46.897C24.1823 46.9848 24.2161 47.082 24.2301 47.183C24.2442 47.284 24.2384 47.3868 24.213 47.4855C24.1877 47.5843 24.1432 47.6769 24.0823 47.7582C24.0213 47.8395 23.9451 47.9078 23.858 47.9591C23.7413 48.0303 23.6078 48.0684 23.4716 48.0696C23.3366 48.0699 23.204 48.0338 23.0874 47.9651C22.9708 47.8964 22.8743 47.7976 22.808 47.6787V47.683ZM59.3188 47.3686C59.2314 47.3169 59.1551 47.2482 59.0942 47.1664C59.0333 47.0846 58.9891 46.9914 58.9641 46.8922C58.9391 46.793 58.9338 46.6898 58.9485 46.5885C58.9633 46.4872 58.9978 46.3899 59.05 46.3022C59.1011 46.2144 59.1688 46.1377 59.2494 46.0765C59.3299 46.0153 59.4215 45.9707 59.5191 45.9455C59.6167 45.9202 59.7182 45.9147 59.8179 45.9293C59.9176 45.9438 60.0135 45.9782 60.1 46.0303C60.2741 46.1347 60.4002 46.3047 60.4506 46.503C60.501 46.7013 60.4716 46.9118 60.3688 47.0882C60.3025 47.2061 60.2066 47.3044 60.0909 47.373C59.9751 47.4416 59.8435 47.4782 59.7094 47.479C59.5715 47.4762 59.4368 47.4366 59.3188 47.3643V47.3686ZM20.7793 44.0675C20.7302 43.9783 20.6989 43.8801 20.6873 43.7786C20.6757 43.6772 20.684 43.5743 20.7117 43.4761C20.7394 43.3779 20.786 43.2861 20.8487 43.2061C20.9115 43.126 20.9893 43.0593 21.0775 43.0097C21.2554 42.9107 21.4647 42.8868 21.6598 42.9433C21.855 42.9998 22.0201 43.1321 22.1192 43.3113C22.1684 43.4 22.1998 43.4976 22.2116 43.5986C22.2235 43.6996 22.2155 43.802 22.1882 43.8998C22.1609 43.9977 22.1148 44.0892 22.0525 44.169C21.9902 44.2488 21.9129 44.3154 21.8251 44.3649C21.7111 44.4299 21.5822 44.4635 21.4513 44.4627C21.3141 44.4636 21.1792 44.427 21.0609 44.3567C20.9426 44.2864 20.8453 44.185 20.7793 44.0633V44.0675ZM61.3432 43.7659C61.2549 43.7163 61.1772 43.6496 61.1144 43.5695C61.0516 43.4895 61.0051 43.3977 60.9774 43.2995C60.9497 43.2012 60.9414 43.0984 60.953 42.997C60.9646 42.8955 60.9959 42.7973 61.045 42.708C61.1456 42.5293 61.3118 42.3978 61.5075 42.3421C61.7033 42.2865 61.9129 42.3111 62.0908 42.4107C62.179 42.4598 62.2567 42.5262 62.3193 42.606C62.3819 42.6857 62.4282 42.7773 62.4556 42.8753C62.4829 42.9733 62.4908 43.0759 62.4786 43.177C62.4665 43.2781 62.4346 43.3757 62.3848 43.4643C62.3189 43.5851 62.2221 43.6858 62.1047 43.756C61.9873 43.8262 61.8534 43.8634 61.717 43.8636C61.5872 43.869 61.4583 43.8397 61.3432 43.7787V43.7659ZM18.7759 40.4521C18.6789 40.2714 18.6558 40.0594 18.7116 39.8616C18.7673 39.6639 18.8975 39.4961 19.0741 39.3943C19.2526 39.295 19.4625 39.2711 19.6584 39.3275C19.8542 39.384 20.0201 39.5164 20.1199 39.6959C20.2184 39.8759 20.2427 40.0879 20.1877 40.2859C20.1327 40.4839 20.0027 40.6521 19.8259 40.7538C19.7096 40.8168 19.5799 40.8504 19.4479 40.8515C19.3106 40.8507 19.1759 40.8129 19.0578 40.742C18.9397 40.671 18.8424 40.5695 18.7759 40.4479V40.4521ZM63.3424 40.1505C63.1657 40.0488 63.0357 39.8807 62.9807 39.6827C62.9256 39.4846 62.95 39.2726 63.0484 39.0926C63.1482 38.9141 63.3136 38.7828 63.5087 38.7271C63.7038 38.6714 63.9127 38.6959 64.09 38.7953C64.2686 38.8963 64.4003 39.0648 64.4562 39.264C64.5121 39.4631 64.4877 39.6765 64.3882 39.8574C64.3208 39.9772 64.223 40.0766 64.1048 40.1454C63.9867 40.2141 63.8525 40.2496 63.7162 40.2482C63.585 40.2478 63.4561 40.2127 63.3424 40.1463V40.1505ZM16.7767 36.8367C16.7277 36.7478 16.6965 36.65 16.6849 36.5488C16.6734 36.4476 16.6817 36.3451 16.7094 36.2472C16.7371 36.1493 16.7837 36.058 16.8464 35.9783C16.9091 35.8987 16.9868 35.8323 17.0749 35.7831C17.1626 35.7333 17.2591 35.7016 17.3589 35.6896C17.4588 35.6776 17.56 35.6856 17.6567 35.7132C17.7535 35.7409 17.8439 35.7875 17.9228 35.8505C18.0017 35.9136 18.0675 35.9917 18.1165 36.0805C18.1664 36.1694 18.1983 36.2674 18.2106 36.3688C18.2228 36.4702 18.215 36.5731 18.1876 36.6715C18.1603 36.7698 18.1139 36.8618 18.0513 36.9419C17.9886 37.022 17.9109 37.0888 17.8225 37.1384C17.7085 37.2033 17.5796 37.237 17.4487 37.2361C17.3114 37.2353 17.1767 37.1975 17.0586 37.1265C16.9404 37.0556 16.8432 36.9541 16.7767 36.8325V36.8367ZM65.3458 36.5351C65.2573 36.4863 65.1792 36.4202 65.1162 36.3406C65.0531 36.261 65.0064 36.1695 64.9786 36.0714C64.9509 35.9734 64.9427 35.8707 64.9545 35.7695C64.9664 35.6682 64.998 35.5703 65.0476 35.4815C65.1475 35.302 65.3134 35.1696 65.5092 35.1131C65.705 35.0566 65.915 35.0806 66.0934 35.1799C66.1819 35.2298 66.2598 35.297 66.3225 35.3775C66.3852 35.458 66.4315 35.5503 66.4589 35.649C66.4862 35.7477 66.4939 35.8509 66.4817 35.9527C66.4694 36.0545 66.4374 36.1528 66.3874 36.242C66.3206 36.3617 66.2236 36.4613 66.1063 36.5307C65.989 36.6001 65.8555 36.6368 65.7196 36.6371C65.588 36.6356 65.459 36.5989 65.3458 36.5308V36.5351ZM14.7733 33.2213C14.6765 33.0412 14.6535 32.8299 14.7093 32.6328C14.7651 32.4357 14.8952 32.2687 15.0715 32.1677C15.2494 32.0681 15.459 32.0435 15.6548 32.0992C15.8506 32.1548 16.0167 32.2863 16.1173 32.4651C16.1672 32.554 16.1991 32.6519 16.2113 32.7534C16.2235 32.8548 16.2158 32.9577 16.1884 33.0561C16.1611 33.1544 16.1147 33.2463 16.0521 33.3265C15.9894 33.4066 15.9116 33.4734 15.8233 33.523C15.7077 33.5879 15.5775 33.6215 15.4453 33.6207C15.3079 33.6199 15.1733 33.5821 15.0551 33.5111C14.937 33.4402 14.8397 33.3387 14.7733 33.2171V33.2213ZM67.345 32.9239C67.2567 32.8744 67.179 32.8076 67.1163 32.7274C67.0536 32.6473 67.0073 32.5554 66.9799 32.457C66.9526 32.3587 66.9448 32.2558 66.957 32.1544C66.9692 32.0529 67.0012 31.9549 67.051 31.8661C67.1509 31.6877 67.316 31.5561 67.5108 31.4997C67.7057 31.4433 67.9146 31.4665 68.0926 31.5644C68.2712 31.6655 68.4029 31.834 68.4588 32.0331C68.5147 32.2322 68.4903 32.4456 68.3908 32.6265C68.3237 32.7469 68.226 32.8469 68.1079 32.9164C67.9897 32.9858 67.8555 33.0221 67.7188 33.0216C67.5876 33.0212 67.4587 32.9861 67.345 32.9197V32.9239ZM12.7741 29.6102C12.676 29.4297 12.6523 29.2173 12.7081 29.0192C12.7639 28.8211 12.8948 28.6533 13.0723 28.5523C13.2501 28.4533 13.4594 28.4294 13.6546 28.4859C13.8497 28.5424 14.0148 28.6747 14.1139 28.8539C14.1633 28.9424 14.1949 29.0398 14.2071 29.1406C14.2193 29.2414 14.2117 29.3436 14.1848 29.4415C14.1578 29.5393 14.1121 29.6308 14.0503 29.7108C13.9884 29.7908 13.9115 29.8576 13.8241 29.9075C13.7101 29.9732 13.5815 30.0084 13.4503 30.0095C13.3124 30.0086 13.1772 29.9708 13.0584 29.8999C12.9397 29.829 12.8416 29.7276 12.7741 29.6059V29.6102ZM69.3484 29.3085C69.2602 29.2589 69.1824 29.1922 69.1196 29.1122C69.0569 29.0321 69.0103 28.9404 68.9826 28.8421C68.9549 28.7439 68.9466 28.6411 68.9582 28.5396C68.9699 28.4381 69.0011 28.3399 69.0502 28.2507C69.1507 28.0718 69.3172 27.9404 69.5133 27.8855C69.7093 27.8305 69.9189 27.8565 70.0961 27.9575C70.1843 28.0071 70.2621 28.0739 70.3249 28.1539C70.3876 28.2339 70.4342 28.3257 70.4619 28.4239C70.4896 28.5222 70.4979 28.625 70.4863 28.7265C70.4747 28.828 70.4434 28.9261 70.3943 29.0154C70.3252 29.1338 70.227 29.232 70.1093 29.3005C69.9915 29.369 69.8581 29.4054 69.7223 29.4062C69.5909 29.4064 69.4619 29.3712 69.3484 29.3043V29.3085ZM10.7791 25.999C10.7289 25.9101 10.6967 25.812 10.6841 25.7104C10.6715 25.6088 10.6789 25.5057 10.7059 25.407C10.7328 25.3084 10.7787 25.216 10.841 25.1354C10.9033 25.0547 10.9807 24.9872 11.0689 24.9369C11.2473 24.8377 11.4573 24.8137 11.6531 24.8702C11.8489 24.9266 12.0148 25.059 12.1147 25.2385C12.1645 25.3274 12.1965 25.4254 12.2087 25.5268C12.2209 25.6283 12.2131 25.7311 12.1858 25.8295C12.1584 25.9278 12.1121 26.0198 12.0494 26.0999C11.9868 26.18 11.909 26.2468 11.8207 26.2964C11.7064 26.3608 11.5777 26.3944 11.4469 26.3941C11.3102 26.3952 11.1758 26.3587 11.0581 26.2883C10.9405 26.2179 10.844 26.1164 10.7791 25.9948V25.999ZM71.3477 25.6931C71.2595 25.644 71.1818 25.5776 71.1192 25.4978C71.0566 25.4181 71.0102 25.3265 70.9829 25.2285C70.9555 25.1305 70.9477 25.0279 70.9599 24.9268C70.972 24.8257 71.0039 24.7281 71.0537 24.6395C71.1527 24.4603 71.3178 24.328 71.513 24.2715C71.7081 24.215 71.9175 24.2388 72.0953 24.3379C72.2739 24.4389 72.4055 24.6074 72.4615 24.8066C72.5174 25.0057 72.4929 25.2191 72.3935 25.4C72.3261 25.5198 72.2282 25.6192 72.1101 25.688C71.9919 25.7567 71.8578 25.7922 71.7215 25.7908C71.5902 25.7904 71.4613 25.7553 71.3477 25.6889V25.6931ZM8.76726 22.3793C8.71789 22.2909 8.68621 22.1935 8.67405 22.0927C8.6619 21.9919 8.66949 21.8897 8.6964 21.7918C8.72331 21.694 8.76902 21.6025 8.8309 21.5225C8.89278 21.4425 8.96963 21.3757 9.05706 21.3257C9.235 21.2262 9.44457 21.2015 9.64034 21.2572C9.83611 21.3129 10.0023 21.4443 10.1029 21.6231C10.2028 21.8023 10.2284 22.0143 10.1741 22.2126C10.1197 22.4109 9.98993 22.5793 9.81307 22.681C9.699 22.7459 9.57015 22.7796 9.43927 22.7787C9.30315 22.7773 9.16987 22.7391 9.05321 22.6682C8.93654 22.5972 8.84073 22.496 8.77566 22.3751L8.76726 22.3793ZM73.3427 22.082C73.1652 21.9809 73.0343 21.8131 72.9785 21.6151C72.9227 21.417 72.9464 21.2046 73.0445 21.0241C73.1451 20.8453 73.3112 20.7138 73.507 20.6582C73.7028 20.6025 73.9123 20.6271 74.0903 20.7267C74.2677 20.8277 74.3986 20.9955 74.4545 21.1936C74.5103 21.3917 74.4866 21.6041 74.3885 21.7846C74.3208 21.9048 74.2232 22.005 74.1052 22.0751C73.9873 22.1451 73.8533 22.1827 73.7165 22.1839C73.588 22.1791 73.4625 22.1427 73.3511 22.0777L73.3427 22.082ZM6.76385 18.7724C6.66408 18.5921 6.639 18.379 6.6941 18.18C6.74919 17.9809 6.87998 17.8121 7.05785 17.7103C7.23693 17.6109 7.44752 17.5868 7.64403 17.6433C7.84055 17.6997 8.00718 17.8321 8.10786 18.012C8.20577 18.1918 8.22936 18.4036 8.17349 18.601C8.11763 18.7984 7.98683 18.9654 7.80965 19.0656C7.69581 19.1311 7.56681 19.1648 7.43585 19.1633C7.30039 19.1636 7.16733 19.1271 7.05059 19.0576C6.93385 18.9881 6.83772 18.8881 6.77225 18.7682L6.76385 18.7724ZM75.3461 18.4708C75.2573 18.4212 75.179 18.3543 75.1159 18.2739C75.0527 18.1935 75.006 18.1013 74.9782 18.0026C74.9505 17.9039 74.9424 17.8005 74.9543 17.6986C74.9663 17.5967 74.9981 17.4981 75.0479 17.4087C75.1484 17.2298 75.3149 17.0985 75.5109 17.0435C75.7069 16.9886 75.9165 17.0145 76.0937 17.1155C76.1815 17.1651 76.2587 17.2317 76.321 17.3115C76.3834 17.3913 76.4295 17.4828 76.4568 17.5807C76.4841 17.6785 76.492 17.7809 76.4802 17.8819C76.4683 17.9828 76.4369 18.0805 76.3877 18.1691C76.3207 18.29 76.2232 18.3906 76.1051 18.4608C75.987 18.531 75.8526 18.5681 75.7157 18.5685C75.5889 18.5647 75.4649 18.5297 75.3545 18.4665L75.3461 18.4708ZM4.78564 15.1528C4.68572 14.9735 4.66012 14.7616 4.71444 14.5633C4.76876 14.365 4.89858 14.1966 5.07544 14.0949C5.25452 13.9955 5.46511 13.9714 5.66162 14.0278C5.85814 14.0843 6.02477 14.2168 6.12545 14.3966C6.2237 14.5759 6.24793 14.7873 6.19286 14.9846C6.1378 15.1819 6.0079 15.3493 5.83144 15.4502C5.71748 15.5159 5.5888 15.551 5.45764 15.5521C5.31778 15.5555 5.17974 15.5196 5.05888 15.4483C4.93801 15.3771 4.83906 15.2733 4.77304 15.1485L4.78564 15.1528ZM77.3621 14.8511C77.1857 14.7502 77.0558 14.5829 77.0007 14.3855C76.9456 14.1882 76.9699 13.9769 77.0681 13.7975C77.1171 13.7082 77.1831 13.6295 77.2623 13.5661C77.3416 13.5027 77.4324 13.4559 77.5297 13.4282C77.6269 13.4006 77.7286 13.3927 77.8289 13.405C77.9292 13.4174 78.0261 13.4497 78.1139 13.5001C78.2914 13.6011 78.4222 13.7689 78.4781 13.967C78.5339 14.1651 78.5102 14.3775 78.4121 14.558C78.3439 14.6774 78.246 14.7768 78.1281 14.8461C78.0102 14.9154 77.8765 14.9523 77.7401 14.9531C77.603 14.9528 77.4683 14.9162 77.3495 14.8469L77.3621 14.8511ZM73.0823 14.0397C73.0817 13.9374 73.1012 13.8361 73.1396 13.7415C73.1781 13.6469 73.2347 13.561 73.3062 13.4887C73.3776 13.4164 73.4626 13.3591 73.5561 13.3203C73.6496 13.2814 73.7498 13.2617 73.8509 13.2622C73.952 13.2617 74.0522 13.2814 74.1457 13.3203C74.2392 13.3591 74.3241 13.4164 74.3956 13.4887C74.4671 13.561 74.5237 13.6469 74.5621 13.7415C74.6005 13.8361 74.62 13.9374 74.6195 14.0397C74.6195 14.1416 74.5996 14.2425 74.5609 14.3366C74.5222 14.4307 74.4655 14.5161 74.3941 14.5879C74.3227 14.6598 74.2379 14.7167 74.1447 14.7553C74.0515 14.7939 73.9516 14.8135 73.8509 14.8129C73.7501 14.8135 73.6503 14.7939 73.5571 14.7553C73.4638 14.7167 73.3791 14.6598 73.3076 14.5879C73.2362 14.5161 73.1795 14.4307 73.1409 14.3366C73.1022 14.2425 73.0823 14.1416 73.0823 14.0397ZM68.9873 14.0397C68.9867 13.9374 69.0062 13.8361 69.0446 13.7415C69.0831 13.6469 69.1397 13.561 69.2111 13.4887C69.2826 13.4164 69.3676 13.3591 69.4611 13.3203C69.5546 13.2814 69.6548 13.2617 69.7559 13.2622C69.8569 13.2617 69.9571 13.2814 70.0507 13.3203C70.1442 13.3591 70.2291 13.4164 70.3006 13.4887C70.3721 13.561 70.4287 13.6469 70.4671 13.7415C70.5055 13.8361 70.525 13.9374 70.5245 14.0397C70.5245 14.1416 70.5046 14.2425 70.4659 14.3366C70.4272 14.4307 70.3705 14.5161 70.2991 14.5879C70.2277 14.6598 70.1429 14.7167 70.0497 14.7553C69.9564 14.7939 69.8566 14.8135 69.7559 14.8129C69.6544 14.8146 69.5537 14.7958 69.4595 14.7578C69.3653 14.7197 69.2795 14.663 69.2072 14.591C69.1349 14.519 69.0774 14.4332 69.0382 14.3386C68.999 14.2439 68.9788 14.1423 68.9789 14.0397H68.9873ZM64.8922 14.0397C64.8917 13.9374 64.9112 13.8361 64.9496 13.7415C64.988 13.6469 65.0446 13.561 65.1161 13.4887C65.1876 13.4164 65.2725 13.3591 65.366 13.3203C65.4595 13.2814 65.5597 13.2617 65.6608 13.2622C65.7619 13.2617 65.8621 13.2814 65.9556 13.3203C66.0491 13.3591 66.1341 13.4164 66.2056 13.4887C66.277 13.561 66.3336 13.6469 66.3721 13.7415C66.4105 13.8361 66.43 13.9374 66.4294 14.0397C66.4294 14.1416 66.4095 14.2425 66.3708 14.3366C66.3322 14.4307 66.2755 14.5161 66.2041 14.5879C66.1326 14.6598 66.0479 14.7167 65.9546 14.7553C65.8614 14.7939 65.7616 14.8135 65.6608 14.8129C65.5594 14.8146 65.4586 14.7958 65.3644 14.7578C65.2702 14.7197 65.1845 14.663 65.1121 14.591C65.0398 14.519 64.9824 14.4332 64.9432 14.3386C64.904 14.2439 64.8838 14.1423 64.8838 14.0397H64.8922ZM60.7972 14.0397C60.7966 13.9374 60.8161 13.8361 60.8546 13.7415C60.893 13.6469 60.9496 13.561 61.0211 13.4887C61.0926 13.4164 61.1775 13.3591 61.271 13.3203C61.3645 13.2814 61.4647 13.2617 61.5658 13.2622C61.6669 13.2617 61.7671 13.2814 61.8606 13.3203C61.9541 13.3591 62.0391 13.4164 62.1105 13.4887C62.182 13.561 62.2386 13.6469 62.277 13.7415C62.3155 13.8361 62.335 13.9374 62.3344 14.0397C62.3344 14.1416 62.3145 14.2425 62.2758 14.3366C62.2371 14.4307 62.1805 14.5161 62.109 14.5879C62.0376 14.6598 61.9528 14.7167 61.8596 14.7553C61.7664 14.7939 61.6665 14.8135 61.5658 14.8129C61.4644 14.8146 61.3636 14.7958 61.2694 14.7578C61.1752 14.7197 61.0894 14.663 61.0171 14.591C60.9448 14.519 60.8874 14.4332 60.8482 14.3386C60.809 14.2439 60.7888 14.1423 60.7888 14.0397H60.7972ZM56.7022 14.0397C56.7016 13.9374 56.7211 13.8361 56.7595 13.7415C56.798 13.6469 56.8546 13.561 56.926 13.4887C56.9975 13.4164 57.0825 13.3591 57.176 13.3203C57.2695 13.2814 57.3697 13.2617 57.4708 13.2622C57.5719 13.2617 57.6721 13.2814 57.7656 13.3203C57.8591 13.3591 57.944 13.4164 58.0155 13.4887C58.087 13.561 58.1436 13.6469 58.182 13.7415C58.2204 13.8361 58.2399 13.9374 58.2394 14.0397C58.2394 14.1416 58.2195 14.2425 58.1808 14.3366C58.1421 14.4307 58.0854 14.5161 58.014 14.5879C57.9426 14.6598 57.8578 14.7167 57.7646 14.7553C57.6714 14.7939 57.5715 14.8135 57.4708 14.8129C57.37 14.8135 57.2702 14.7939 57.177 14.7553C57.0837 14.7167 56.999 14.6598 56.9275 14.5879C56.8561 14.5161 56.7994 14.4307 56.7608 14.3366C56.7221 14.2425 56.7022 14.1416 56.7022 14.0397ZM52.6071 14.0397C52.6066 13.9374 52.6261 13.8361 52.6645 13.7415C52.7029 13.6469 52.7595 13.561 52.831 13.4887C52.9025 13.4164 52.9875 13.3591 53.081 13.3203C53.1745 13.2814 53.2747 13.2617 53.3758 13.2622C53.4768 13.2617 53.577 13.2814 53.6705 13.3203C53.764 13.3591 53.849 13.4164 53.9205 13.4887C53.992 13.561 54.0486 13.6469 54.087 13.7415C54.1254 13.8361 54.1449 13.9374 54.1444 14.0397C54.1444 14.1416 54.1244 14.2425 54.0858 14.3366C54.0471 14.4307 53.9904 14.5161 53.919 14.5879C53.8476 14.6598 53.7628 14.7167 53.6696 14.7553C53.5763 14.7939 53.4765 14.8135 53.3758 14.8129C53.2743 14.8146 53.1736 14.7958 53.0794 14.7578C52.9852 14.7197 52.8994 14.663 52.8271 14.591C52.7547 14.519 52.6973 14.4332 52.6581 14.3386C52.6189 14.2439 52.5987 14.1423 52.5987 14.0397H52.6071ZM48.5121 14.0397C48.5116 13.9374 48.5311 13.8361 48.5695 13.7415C48.6079 13.6469 48.6645 13.561 48.736 13.4887C48.8075 13.4164 48.8924 13.3591 48.9859 13.3203C49.0794 13.2814 49.1796 13.2617 49.2807 13.2622C49.3818 13.2617 49.482 13.2814 49.5755 13.3203C49.669 13.3591 49.754 13.4164 49.8255 13.4887C49.8969 13.561 49.9535 13.6469 49.992 13.7415C50.0304 13.8361 50.0499 13.9374 50.0493 14.0397C50.0493 14.1416 50.0294 14.2425 49.9907 14.3366C49.9521 14.4307 49.8954 14.5161 49.824 14.5879C49.7525 14.6598 49.6678 14.7167 49.5745 14.7553C49.4813 14.7939 49.3815 14.8135 49.2807 14.8129C49.1793 14.8146 49.0785 14.7958 48.9843 14.7578C48.8901 14.7197 48.8044 14.663 48.732 14.591C48.6597 14.519 48.6023 14.4332 48.5631 14.3386C48.5239 14.2439 48.5037 14.1423 48.5037 14.0397H48.5121ZM44.4171 14.0397C44.4165 13.9374 44.436 13.8361 44.4745 13.7415C44.5129 13.6469 44.5695 13.561 44.641 13.4887C44.7125 13.4164 44.7974 13.3591 44.8909 13.3203C44.9844 13.2814 45.0846 13.2617 45.1857 13.2622C45.2868 13.2617 45.387 13.2814 45.4805 13.3203C45.574 13.3591 45.6589 13.4164 45.7304 13.4887C45.8019 13.561 45.8585 13.6469 45.8969 13.7415C45.9354 13.8361 45.9549 13.9374 45.9543 14.0397C45.9543 14.1416 45.9344 14.2425 45.8957 14.3366C45.857 14.4307 45.8004 14.5161 45.7289 14.5879C45.6575 14.6598 45.5727 14.7167 45.4795 14.7553C45.3863 14.7939 45.2864 14.8135 45.1857 14.8129C45.0843 14.8146 44.9835 14.7958 44.8893 14.7578C44.7951 14.7197 44.7093 14.663 44.637 14.591C44.5647 14.519 44.5073 14.4332 44.4681 14.3386C44.4289 14.2439 44.4087 14.1423 44.4087 14.0397H44.4171ZM40.3221 14.0397C40.3215 13.9374 40.341 13.8361 40.3794 13.7415C40.4179 13.6469 40.4745 13.561 40.5459 13.4887C40.6174 13.4164 40.7024 13.3591 40.7959 13.3203C40.8894 13.2814 40.9896 13.2617 41.0907 13.2622C41.1918 13.2617 41.292 13.2814 41.3855 13.3203C41.479 13.3591 41.5639 13.4164 41.6354 13.4887C41.7069 13.561 41.7635 13.6469 41.8019 13.7415C41.8403 13.8361 41.8598 13.9374 41.8593 14.0397C41.8593 14.1416 41.8394 14.2425 41.8007 14.3366C41.762 14.4307 41.7053 14.5161 41.6339 14.5879C41.5625 14.6598 41.4777 14.7167 41.3845 14.7553C41.2913 14.7939 41.1914 14.8135 41.0907 14.8129C40.9899 14.8135 40.8901 14.7939 40.7969 14.7553C40.7036 14.7167 40.6189 14.6598 40.5474 14.5879C40.476 14.5161 40.4193 14.4307 40.3807 14.3366C40.342 14.2425 40.3221 14.1416 40.3221 14.0397ZM36.227 14.0397C36.2265 13.9374 36.246 13.8361 36.2844 13.7415C36.3228 13.6469 36.3794 13.561 36.4509 13.4887C36.5224 13.4164 36.6074 13.3591 36.7009 13.3203C36.7944 13.2814 36.8946 13.2617 36.9956 13.2622C37.0967 13.2617 37.1969 13.2814 37.2904 13.3203C37.3839 13.3591 37.4689 13.4164 37.5404 13.4887C37.6119 13.561 37.6685 13.6469 37.7069 13.7415C37.7453 13.8361 37.7648 13.9374 37.7643 14.0397C37.7643 14.1416 37.7443 14.2425 37.7057 14.3366C37.667 14.4307 37.6103 14.5161 37.5389 14.5879C37.4674 14.6598 37.3827 14.7167 37.2895 14.7553C37.1962 14.7939 37.0964 14.8135 36.9956 14.8129C36.8942 14.8146 36.7934 14.7958 36.6992 14.7578C36.605 14.7197 36.5193 14.663 36.447 14.591C36.3746 14.519 36.3172 14.4332 36.278 14.3386C36.2388 14.2439 36.2186 14.1423 36.2186 14.0397H36.227ZM32.132 14.0397C32.1315 13.9374 32.151 13.8361 32.1894 13.7415C32.2278 13.6469 32.2844 13.561 32.3559 13.4887C32.4274 13.4164 32.5123 13.3591 32.6058 13.3203C32.6993 13.2814 32.7995 13.2617 32.9006 13.2622C33.0017 13.2617 33.1019 13.2814 33.1954 13.3203C33.2889 13.3591 33.3739 13.4164 33.4453 13.4887C33.5168 13.561 33.5734 13.6469 33.6119 13.7415C33.6503 13.8361 33.6698 13.9374 33.6692 14.0397C33.6692 14.1416 33.6493 14.2425 33.6106 14.3366C33.572 14.4307 33.5153 14.5161 33.4438 14.5879C33.3724 14.6598 33.2877 14.7167 33.1944 14.7553C33.1012 14.7939 33.0014 14.8135 32.9006 14.8129C32.7992 14.8146 32.6984 14.7958 32.6042 14.7578C32.51 14.7197 32.4243 14.663 32.3519 14.591C32.2796 14.519 32.2222 14.4332 32.183 14.3386C32.1438 14.2439 32.1236 14.1423 32.1236 14.0397H32.132ZM28.037 14.0397C28.0364 13.9374 28.0559 13.8361 28.0944 13.7415C28.1328 13.6469 28.1894 13.561 28.2609 13.4887C28.3323 13.4164 28.4173 13.3591 28.5108 13.3203C28.6043 13.2814 28.7045 13.2617 28.8056 13.2622C28.9063 13.2622 29.0061 13.2824 29.0991 13.3215C29.1921 13.3606 29.2766 13.4179 29.3476 13.4902C29.4186 13.5624 29.4749 13.6482 29.513 13.7425C29.5512 13.8368 29.5705 13.9378 29.57 14.0397C29.5706 14.1414 29.5512 14.2422 29.5129 14.3363C29.4747 14.4303 29.4184 14.5158 29.3473 14.5877C29.2763 14.6596 29.1918 14.7165 29.0988 14.7552C29.0058 14.7938 28.9061 14.8135 28.8056 14.8129C28.7042 14.8146 28.6034 14.7958 28.5092 14.7578C28.415 14.7197 28.3292 14.663 28.2569 14.591C28.1846 14.519 28.1272 14.4332 28.088 14.3386C28.0488 14.2439 28.0286 14.1423 28.0286 14.0397H28.037ZM23.942 14.0397C23.9414 13.9374 23.9609 13.8361 23.9993 13.7415C24.0378 13.6469 24.0944 13.561 24.1658 13.4887C24.2373 13.4164 24.3223 13.3591 24.4158 13.3203C24.5093 13.2814 24.6095 13.2617 24.7106 13.2622C24.8113 13.2622 24.9111 13.2824 25.0041 13.3215C25.0971 13.3606 25.1815 13.4179 25.2526 13.4902C25.3236 13.5624 25.3798 13.6482 25.418 13.7425C25.4562 13.8368 25.4755 13.9378 25.475 14.0397C25.4755 14.1414 25.4561 14.2422 25.4179 14.3363C25.3797 14.4303 25.3234 14.5158 25.2523 14.5877C25.1812 14.6596 25.0967 14.7165 25.0037 14.7552C24.9108 14.7938 24.8111 14.8135 24.7106 14.8129C24.6098 14.8135 24.51 14.7939 24.4168 14.7553C24.3235 14.7167 24.2388 14.6598 24.1673 14.5879C24.0959 14.5161 24.0392 14.4307 24.0005 14.3366C23.9619 14.2425 23.942 14.1416 23.942 14.0397ZM19.8469 14.0397C19.8464 13.9374 19.8659 13.8361 19.9043 13.7415C19.9427 13.6469 19.9993 13.561 20.0708 13.4887C20.1423 13.4164 20.2272 13.3591 20.3208 13.3203C20.4143 13.2814 20.5144 13.2617 20.6155 13.2622C20.7163 13.2622 20.816 13.2824 20.909 13.3215C21.0021 13.3606 21.0865 13.4179 21.1575 13.4902C21.2286 13.5624 21.2848 13.6482 21.323 13.7425C21.3611 13.8368 21.3805 13.9378 21.3799 14.0397C21.3805 14.1414 21.3611 14.2422 21.3229 14.3363C21.2847 14.4303 21.2284 14.5158 21.1573 14.5877C21.0862 14.6596 21.0017 14.7165 20.9087 14.7552C20.8157 14.7938 20.7161 14.8135 20.6155 14.8129C20.5141 14.8146 20.4133 14.7958 20.3191 14.7578C20.2249 14.7197 20.1392 14.663 20.0669 14.591C19.9945 14.519 19.9371 14.4332 19.8979 14.3386C19.8587 14.2439 19.8385 14.1423 19.8385 14.0397H19.8469ZM15.7519 14.0397C15.7514 13.9374 15.7708 13.8361 15.8093 13.7415C15.8477 13.6469 15.9043 13.561 15.9758 13.4887C16.0473 13.4164 16.1322 13.3591 16.2257 13.3203C16.3192 13.2814 16.4194 13.2617 16.5205 13.2622C16.6213 13.2622 16.721 13.2824 16.814 13.3215C16.907 13.3606 16.9915 13.4179 17.0625 13.4902C17.1336 13.5624 17.1898 13.6482 17.2279 13.7425C17.2661 13.8368 17.2855 13.9378 17.2849 14.0397C17.2855 14.1414 17.2661 14.2422 17.2279 14.3363C17.1896 14.4303 17.1334 14.5158 17.0623 14.5877C16.9912 14.6596 16.9067 14.7165 16.8137 14.7552C16.7207 14.7938 16.6211 14.8135 16.5205 14.8129C16.4191 14.8146 16.3183 14.7958 16.2241 14.7578C16.1299 14.7197 16.0442 14.663 15.9718 14.591C15.8995 14.519 15.8421 14.4332 15.8029 14.3386C15.7637 14.2439 15.7435 14.1423 15.7435 14.0397H15.7519ZM11.6569 14.0397C11.6563 13.9374 11.6758 13.8361 11.7143 13.7415C11.7527 13.6469 11.8093 13.561 11.8808 13.4887C11.9522 13.4164 12.0372 13.3591 12.1307 13.3203C12.2242 13.2814 12.3244 13.2617 12.4255 13.2622C12.5262 13.2622 12.626 13.2824 12.719 13.3215C12.812 13.3606 12.8965 13.4179 12.9675 13.4902C13.0385 13.5624 13.0947 13.6482 13.1329 13.7425C13.1711 13.8368 13.1904 13.9378 13.1899 14.0397C13.1904 14.1414 13.1711 14.2422 13.1328 14.3363C13.0946 14.4303 13.0383 14.5158 12.9672 14.5877C12.8961 14.6596 12.8117 14.7165 12.7187 14.7552C12.6257 14.7938 12.526 14.8135 12.4255 14.8129C12.324 14.8146 12.2233 14.7958 12.1291 14.7578C12.0349 14.7197 11.9491 14.663 11.8768 14.591C11.8045 14.519 11.7471 14.4332 11.7078 14.3386C11.6686 14.2439 11.6485 14.1423 11.6485 14.0397H11.6569ZM7.56185 14.0397C7.5613 13.9374 7.5808 13.8361 7.61923 13.7415C7.65765 13.6469 7.71425 13.561 7.78573 13.4887C7.85721 13.4164 7.94216 13.3591 8.03567 13.3203C8.12917 13.2814 8.22937 13.2617 8.33046 13.2622C8.4312 13.2622 8.53094 13.2824 8.62396 13.3215C8.71697 13.3606 8.80143 13.4179 8.87247 13.4902C8.9435 13.5624 8.99972 13.6482 9.03789 13.7425C9.07606 13.8368 9.09542 13.9378 9.09486 14.0397C9.09542 14.1414 9.07603 14.2422 9.03781 14.3363C8.99959 14.4303 8.94331 14.5158 8.87222 14.5877C8.80112 14.6596 8.71664 14.7165 8.62364 14.7552C8.53065 14.7938 8.431 14.8135 8.33046 14.8129C8.22972 14.8135 8.12987 14.7939 8.03665 14.7553C7.94342 14.7167 7.85865 14.6598 7.78723 14.5879C7.7158 14.5161 7.65912 14.4307 7.62044 14.3366C7.58176 14.2425 7.56185 14.1416 7.56185 14.0397Z" fill="white"/>
<path d="M22.2837 65.896C22.2339 65.8074 22.202 65.7098 22.1899 65.6087C22.1777 65.5076 22.1856 65.405 22.2129 65.307C22.2403 65.209 22.2866 65.1174 22.3492 65.0376C22.4118 64.9579 22.4895 64.8915 22.5777 64.8424C22.6651 64.7914 22.7617 64.7587 22.8618 64.7461C22.9618 64.7335 23.0634 64.7413 23.1605 64.769C23.2575 64.7967 23.3481 64.8438 23.4269 64.9075C23.5057 64.9711 23.5711 65.0501 23.6193 65.1398C23.6693 65.2284 23.7015 65.3261 23.7141 65.4274C23.7266 65.5286 23.7191 65.6314 23.6922 65.7297C23.6653 65.8281 23.6193 65.92 23.5571 66.0003C23.4948 66.0806 23.4175 66.1477 23.3295 66.1976C23.2154 66.2625 23.0866 66.2962 22.9557 66.2953C22.8186 66.2958 22.6838 66.2591 22.5656 66.1888C22.4474 66.1185 22.35 66.0174 22.2837 65.896ZM60.84 63.7718C60.6631 63.6701 60.5333 63.5017 60.4789 63.3034C60.4246 63.1051 60.4502 62.8931 60.5502 62.7139C60.65 62.5355 60.8151 62.404 61.0099 62.3475C61.2048 62.2911 61.4137 62.3143 61.5918 62.4123C61.7695 62.5141 61.9005 62.6827 61.9563 62.8814C62.0121 63.0802 61.9883 63.2932 61.89 63.4744C61.8224 63.5953 61.7241 63.6958 61.6052 63.7652C61.4862 63.8347 61.3511 63.8707 61.2138 63.8695C61.0838 63.8715 60.9553 63.8408 60.84 63.7803V63.7718ZM20.2845 62.2721C20.2351 62.1837 20.2034 62.0863 20.1913 61.9854C20.1791 61.8846 20.1867 61.7824 20.2136 61.6845C20.2405 61.5867 20.2862 61.4952 20.3481 61.4152C20.41 61.3352 20.4869 61.2684 20.5743 61.2184C20.7521 61.1172 20.9623 61.0912 21.159 61.1461C21.3557 61.201 21.523 61.3324 21.6243 61.5116C21.7226 61.6927 21.7464 61.9058 21.6906 62.1045C21.6348 62.3033 21.5039 62.4719 21.3261 62.5737C21.2123 62.6392 21.0833 62.6729 20.9523 62.6714C20.8166 62.6725 20.6832 62.6368 20.5657 62.568C20.4483 62.4993 20.3512 62.4001 20.2845 62.2806V62.2721ZM62.8434 60.1479C62.755 60.0983 62.6773 60.0315 62.6146 59.9514C62.5519 59.8712 62.5056 59.7793 62.4783 59.6809C62.4509 59.5826 62.4431 59.4797 62.4553 59.3783C62.4675 59.2768 62.4995 59.1788 62.5494 59.09C62.6498 58.9111 62.8163 58.7798 63.0124 58.7248C63.2084 58.6699 63.418 58.6958 63.5952 58.7968C63.7715 58.8978 63.9016 59.0649 63.9574 59.262C64.0131 59.459 63.9902 59.6704 63.8934 59.8505C63.826 59.971 63.7285 60.0714 63.6104 60.1415C63.4924 60.2117 63.3582 60.249 63.2214 60.2498C63.0903 60.2539 62.9604 60.2246 62.8434 60.1648V60.1479ZM18.2811 58.6524C18.2312 58.5635 18.1993 58.4656 18.187 58.3641C18.1748 58.2627 18.1826 58.1598 18.21 58.0615C18.2373 57.9631 18.2836 57.8712 18.3463 57.791C18.409 57.7109 18.4867 57.6441 18.5751 57.5946C18.7534 57.4936 18.964 57.4683 19.1608 57.524C19.3575 57.5797 19.5245 57.712 19.6251 57.8919C19.7232 58.0724 19.7469 58.2848 19.6911 58.4829C19.6352 58.681 19.5043 58.8488 19.3269 58.9498C19.2131 59.016 19.0843 59.0512 18.9531 59.0518C18.8178 59.0531 18.6845 59.0185 18.5666 58.9514C18.4486 58.8843 18.3502 58.7871 18.2811 58.6694V58.6524ZM64.8426 56.5282C64.7547 56.4787 64.6775 56.412 64.6153 56.3321C64.5531 56.2522 64.5072 56.1606 64.4802 56.0626C64.4533 55.9646 64.4458 55.8622 64.4583 55.7612C64.4707 55.6603 64.5028 55.5629 64.5528 55.4746C64.6018 55.3852 64.6678 55.3066 64.747 55.2432C64.8263 55.1798 64.9171 55.1329 65.0144 55.1053C65.1116 55.0776 65.2133 55.0697 65.3136 55.0821C65.4139 55.0944 65.5107 55.1268 65.5986 55.1772C65.7753 55.2789 65.9053 55.447 65.9603 55.6451C66.0154 55.8431 65.991 56.0551 65.8926 56.2351C65.826 56.3553 65.7291 56.4555 65.6118 56.5256C65.4945 56.5958 65.361 56.6333 65.2248 56.6344C65.0924 56.6383 64.9612 56.6091 64.8426 56.5494V56.5282ZM16.2819 55.0327C16.232 54.9439 16.2 54.8459 16.1878 54.7445C16.1756 54.643 16.1834 54.5402 16.2108 54.4418C16.2381 54.3434 16.2844 54.2515 16.3471 54.1714C16.4098 54.0912 16.4875 54.0245 16.5759 53.9749C16.7543 53.8757 16.9643 53.8517 17.1601 53.9081C17.3559 53.9646 17.5218 54.097 17.6217 54.2765C17.7198 54.457 17.7435 54.6694 17.6876 54.8675C17.6318 55.0656 17.5009 55.2334 17.3235 55.3344C17.2096 55.3999 17.0806 55.4336 16.9497 55.4321C16.8155 55.4331 16.6833 55.3988 16.5662 55.3325C16.4492 55.2662 16.3511 55.1702 16.2819 55.054V55.0327ZM66.846 52.9085C66.7576 52.859 66.6799 52.7922 66.6172 52.7121C66.5546 52.6319 66.5082 52.54 66.4809 52.4416C66.4535 52.3433 66.4458 52.2404 66.458 52.1389C66.4702 52.0375 66.5021 51.9395 66.552 51.8507C66.6518 51.671 66.818 51.5388 67.014 51.4831C67.2101 51.4273 67.4201 51.4526 67.5978 51.5533C67.7753 51.6543 67.9061 51.8221 67.962 52.0202C68.0178 52.2183 67.9941 52.4306 67.896 52.6111C67.8287 52.7317 67.7311 52.8321 67.6131 52.9022C67.4951 52.9723 67.3609 53.0097 67.224 53.0105C67.0942 53.0163 66.9648 52.9916 66.846 52.9383V52.9085ZM14.2826 51.4258C14.2336 51.3369 14.2024 51.239 14.1909 51.1379C14.1793 51.0367 14.1876 50.9343 14.2153 50.8364C14.243 50.7385 14.2896 50.6471 14.3523 50.5674C14.4151 50.4878 14.4927 50.4214 14.5808 50.3722C14.6684 50.3219 14.7649 50.2896 14.8649 50.2773C14.9648 50.265 15.0662 50.273 15.1631 50.3006C15.26 50.3283 15.3505 50.3752 15.4294 50.4385C15.5082 50.5019 15.5739 50.5804 15.6225 50.6696C15.7209 50.8496 15.7453 51.0616 15.6902 51.2596C15.6352 51.4576 15.5052 51.6257 15.3285 51.7275C15.2144 51.7924 15.0855 51.8261 14.9547 51.8252C14.8177 51.8248 14.6833 51.7876 14.5652 51.7175C14.4472 51.6473 14.3496 51.5467 14.2826 51.4258ZM68.8494 49.3016C68.6725 49.2 68.5427 49.0316 68.4884 48.8333C68.4341 48.635 68.4597 48.423 68.5596 48.2438C68.609 48.1548 68.6752 48.0765 68.7546 48.0136C68.834 47.9506 68.9249 47.9042 69.0221 47.8769C69.1194 47.8497 69.221 47.8421 69.3211 47.8548C69.4212 47.8674 69.5178 47.9 69.6054 47.9506C69.7819 48.0515 69.9118 48.2189 69.9668 48.4162C70.0219 48.6135 69.9977 48.8249 69.8994 49.0042C69.8321 49.1257 69.7339 49.2267 69.615 49.297C69.4961 49.3672 69.3609 49.404 69.2232 49.4036C69.0925 49.4097 68.9624 49.3819 68.8452 49.3229L68.8494 49.3016ZM12.2834 47.8062C12.185 47.6262 12.1606 47.4142 12.2157 47.2162C12.2707 47.0182 12.4007 46.85 12.5774 46.7483C12.6655 46.698 12.7626 46.666 12.8631 46.6539C12.9635 46.6419 13.0653 46.6501 13.1626 46.6782C13.2599 46.7063 13.3507 46.7535 13.4298 46.8174C13.5088 46.8812 13.5746 46.9602 13.6232 47.05C13.6723 47.1389 13.7035 47.2367 13.715 47.3379C13.7266 47.4391 13.7183 47.5415 13.6906 47.6394C13.6628 47.7373 13.6163 47.8287 13.5536 47.9084C13.4908 47.988 13.4132 48.0544 13.325 48.1036C13.2115 48.1702 13.0825 48.2053 12.9512 48.2055C12.8165 48.2065 12.6838 48.1721 12.5661 48.1059C12.4483 48.0396 12.3495 47.9437 12.2792 47.8274L12.2834 47.8062ZM70.8528 45.682C70.7647 45.6316 70.6872 45.5642 70.6249 45.4835C70.5627 45.4028 70.5167 45.3105 70.4898 45.2118C70.4629 45.1131 70.4555 45.01 70.468 44.9085C70.4806 44.8069 70.5129 44.7088 70.563 44.6198C70.6124 44.5314 70.6785 44.4537 70.7575 44.3911C70.8366 44.3285 70.9271 44.2823 71.0238 44.255C71.1205 44.2278 71.2216 44.2201 71.3213 44.2324C71.4209 44.2447 71.5172 44.2768 71.6046 44.3267C71.693 44.3763 71.7707 44.4431 71.8334 44.5232C71.896 44.6033 71.9424 44.6953 71.9697 44.7936C71.9971 44.892 72.0049 44.9949 71.9926 45.0963C71.9804 45.1977 71.9485 45.2957 71.8986 45.3846C71.8316 45.5054 71.7341 45.6061 71.616 45.6762C71.498 45.7464 71.3636 45.7835 71.2266 45.7839C71.0966 45.7926 70.9665 45.7678 70.8486 45.7117L70.8528 45.682ZM10.2758 44.2035C10.1777 44.023 10.154 43.8106 10.2098 43.6126C10.2657 43.4145 10.3966 43.2467 10.574 43.1457C10.6617 43.0949 10.7585 43.0624 10.8587 43.0501C10.959 43.0378 11.0607 43.046 11.1578 43.0741C11.2549 43.1022 11.3454 43.1497 11.424 43.2138C11.5027 43.2779 11.5678 43.3573 11.6156 43.4473C11.6655 43.5361 11.6975 43.6341 11.7097 43.7356C11.7219 43.837 11.7141 43.9399 11.6867 44.0382C11.6594 44.1366 11.6131 44.2285 11.5504 44.3087C11.4877 44.3888 11.41 44.4556 11.3216 44.5052C11.2068 44.5682 11.0785 44.6017 10.9478 44.6029C10.8109 44.6025 10.6765 44.5653 10.5584 44.4952C10.4403 44.425 10.3428 44.3243 10.2758 44.2035ZM72.8562 42.0793C72.6784 41.9775 72.5476 41.8087 72.4925 41.6096C72.4374 41.4106 72.4625 41.1976 72.5622 41.0172C72.6112 40.9278 72.6773 40.8492 72.7565 40.7858C72.8357 40.7224 72.9266 40.6755 73.0238 40.6479C73.1211 40.6202 73.2228 40.6123 73.323 40.6247C73.4233 40.637 73.5202 40.6694 73.608 40.7198C73.7849 40.8214 73.9147 40.9899 73.969 41.1882C74.0234 41.3864 73.9978 41.5984 73.8978 41.7777C73.8322 41.8987 73.7356 41.9997 73.6181 42.07C73.5006 42.1403 73.3665 42.1772 73.23 42.177C73.0996 42.1852 72.9693 42.1588 72.852 42.1005L72.8562 42.0793ZM8.27661 40.5966C8.2274 40.5079 8.19597 40.4103 8.18412 40.3093C8.17226 40.2083 8.18022 40.106 8.20753 40.0081C8.23484 39.9102 8.28097 39.8188 8.34327 39.739C8.40557 39.6591 8.48283 39.5926 8.57061 39.543C8.65821 39.4924 8.75485 39.4598 8.85495 39.4472C8.95506 39.4345 9.05665 39.442 9.15386 39.4693C9.25108 39.4965 9.34201 39.543 9.42139 39.6059C9.50078 39.6689 9.56706 39.7471 9.61642 39.8361C9.71619 40.0165 9.74127 40.2295 9.68617 40.4286C9.63108 40.6276 9.50029 40.7965 9.32242 40.8982C9.20814 40.9626 9.07943 40.9963 8.94862 40.996C8.81167 40.9956 8.67727 40.9584 8.5592 40.8882C8.44112 40.8181 8.34359 40.7174 8.27661 40.5966ZM74.8512 38.4724C74.7631 38.4221 74.6857 38.3546 74.6234 38.2739C74.5611 38.1932 74.5151 38.1009 74.4882 38.0022C74.4613 37.9035 74.4539 37.8004 74.4665 37.6989C74.479 37.5973 74.5113 37.4992 74.5614 37.4103C74.6104 37.3214 74.6763 37.2433 74.7553 37.1804C74.8343 37.1174 74.9249 37.071 75.0217 37.0438C75.1186 37.0165 75.2199 37.0089 75.3197 37.0215C75.4194 37.0341 75.5158 37.0666 75.603 37.1171C75.6912 37.1663 75.7689 37.2327 75.8315 37.3124C75.8941 37.3922 75.9405 37.4837 75.9678 37.5818C75.9952 37.6798 76.003 37.7823 75.9909 37.8834C75.9787 37.9845 75.9468 38.0822 75.8971 38.1707C75.8308 38.2922 75.7334 38.3933 75.6151 38.4636C75.4969 38.5338 75.3622 38.5706 75.225 38.5701C75.0953 38.5743 74.9667 38.5451 74.8512 38.4851V38.4724ZM6.2732 36.9812C6.17509 36.8007 6.15138 36.5883 6.20722 36.3902C6.26306 36.1922 6.39393 36.0244 6.5714 35.9233C6.65882 35.8734 6.75511 35.8414 6.85477 35.8291C6.95443 35.8168 7.05551 35.8244 7.15223 35.8517C7.24896 35.8789 7.33943 35.9251 7.4185 35.9877C7.49756 36.0503 7.56365 36.128 7.61301 36.2165C7.66314 36.3054 7.69541 36.4035 7.70797 36.5051C7.72054 36.6066 7.71314 36.7097 7.68622 36.8084C7.65929 36.9071 7.61336 36.9994 7.55107 37.0801C7.48877 37.1608 7.41133 37.2283 7.3232 37.2786C7.20892 37.343 7.08022 37.3766 6.9494 37.3763C6.81233 37.3762 6.67768 37.3397 6.55899 37.2703C6.4403 37.201 6.34173 37.1013 6.2732 36.9812ZM76.8631 34.857C76.6852 34.7552 76.5544 34.5864 76.4993 34.3873C76.4442 34.1883 76.4693 33.9753 76.569 33.7949C76.6695 33.616 76.836 33.4847 77.0321 33.4297C77.2281 33.3748 77.4377 33.4007 77.6149 33.5017C77.7028 33.5517 77.7802 33.6187 77.8424 33.699C77.9047 33.7793 77.9506 33.8713 77.9775 33.9696C78.0045 34.068 78.0119 34.1707 77.9994 34.272C77.9869 34.3732 77.9547 34.471 77.9047 34.5596C77.8382 34.6796 77.7412 34.7795 77.6238 34.8489C77.5064 34.9184 77.3729 34.9549 77.2369 34.9547C77.106 34.9556 76.9771 34.9219 76.8631 34.857ZM74.1036 33.1576C74.1031 33.0557 74.1224 32.9547 74.1606 32.8604C74.1988 32.7661 74.255 32.6804 74.326 32.6081C74.3971 32.5359 74.4815 32.4785 74.5745 32.4394C74.6676 32.4003 74.7673 32.3801 74.868 32.3801C74.9691 32.3796 75.0693 32.3993 75.1628 32.4382C75.2563 32.477 75.3413 32.5343 75.4128 32.6066C75.4843 32.6789 75.5408 32.7648 75.5793 32.8594C75.6177 32.954 75.6372 33.0554 75.6366 33.1576C75.6372 33.2599 75.6177 33.3612 75.5793 33.4558C75.5408 33.5504 75.4843 33.6363 75.4128 33.7086C75.3413 33.7809 75.2563 33.8382 75.1628 33.877C75.0693 33.9159 74.9691 33.9356 74.868 33.9351C74.7666 33.9362 74.6659 33.9169 74.572 33.8783C74.478 33.8396 74.3925 33.7825 74.3206 33.7101C74.2487 33.6378 74.1917 33.5517 74.153 33.4568C74.1143 33.3619 74.0947 33.2602 74.0952 33.1576H74.1036ZM70.0086 33.1576C70.0081 33.0557 70.0274 32.9547 70.0656 32.8604C70.1037 32.7661 70.16 32.6804 70.231 32.6081C70.302 32.5359 70.3865 32.4785 70.4795 32.4394C70.5725 32.4003 70.6723 32.3801 70.773 32.3801C70.8741 32.3796 70.9743 32.3993 71.0678 32.4382C71.1613 32.477 71.2463 32.5343 71.3177 32.6066C71.3892 32.6789 71.4458 32.7648 71.4842 32.8594C71.5227 32.954 71.5422 33.0554 71.5416 33.1576C71.5422 33.2599 71.5227 33.3612 71.4842 33.4558C71.4458 33.5504 71.3892 33.6363 71.3177 33.7086C71.2463 33.7809 71.1613 33.8382 71.0678 33.877C70.9743 33.9159 70.8741 33.9356 70.773 33.9351C70.6716 33.9362 70.5709 33.9169 70.4769 33.8783C70.3829 33.8396 70.2975 33.7825 70.2256 33.7101C70.1536 33.6378 70.0967 33.5517 70.058 33.4568C70.0193 33.3619 69.9996 33.2602 70.0002 33.1576H70.0086ZM65.9136 33.1576C65.913 33.0557 65.9324 32.9547 65.9706 32.8604C66.0087 32.7661 66.0649 32.6804 66.136 32.6081C66.207 32.5359 66.2915 32.4785 66.3845 32.4394C66.4775 32.4003 66.5773 32.3801 66.678 32.3801C66.7791 32.3796 66.8793 32.3993 66.9728 32.4382C67.0663 32.477 67.1512 32.5343 67.2227 32.6066C67.2942 32.6789 67.3508 32.7648 67.3892 32.8594C67.4277 32.954 67.4472 33.0554 67.4466 33.1576C67.4472 33.2599 67.4277 33.3612 67.3892 33.4558C67.3508 33.5504 67.2942 33.6363 67.2227 33.7086C67.1512 33.7809 67.0663 33.8382 66.9728 33.877C66.8793 33.9159 66.7791 33.9356 66.678 33.9351C66.5765 33.9362 66.4759 33.9169 66.3819 33.8783C66.2879 33.8396 66.2025 33.7825 66.1305 33.7101C66.0586 33.6378 66.0016 33.5517 65.9629 33.4568C65.9243 33.3619 65.9046 33.2602 65.9052 33.1576H65.9136ZM61.8186 33.1576C61.818 33.0557 61.8374 32.9547 61.8755 32.8604C61.9137 32.7661 61.9699 32.6804 62.041 32.6081C62.112 32.5359 62.1964 32.4785 62.2895 32.4394C62.3825 32.4003 62.4822 32.3801 62.583 32.3801C62.6841 32.3796 62.7842 32.3993 62.8778 32.4382C62.9713 32.477 63.0562 32.5343 63.1277 32.6066C63.1992 32.6789 63.2558 32.7648 63.2942 32.8594C63.3326 32.954 63.3521 33.0554 63.3516 33.1576C63.3521 33.2599 63.3326 33.3612 63.2942 33.4558C63.2558 33.5504 63.1992 33.6363 63.1277 33.7086C63.0562 33.7809 62.9713 33.8382 62.8778 33.877C62.7842 33.9159 62.6841 33.9356 62.583 33.9351C62.4815 33.9362 62.3809 33.9169 62.2869 33.8783C62.1929 33.8396 62.1074 33.7825 62.0355 33.7101C61.9636 33.6378 61.9066 33.5517 61.8679 33.4568C61.8292 33.3619 61.8096 33.2602 61.8102 33.1576H61.8186ZM57.7235 33.1576C57.723 33.0557 57.7423 32.9547 57.7805 32.8604C57.8187 32.7661 57.8749 32.6804 57.9459 32.6081C58.017 32.5359 58.1014 32.4785 58.1944 32.4394C58.2874 32.4003 58.3872 32.3801 58.4879 32.3801C58.589 32.3796 58.6892 32.3993 58.7827 32.4382C58.8762 32.477 58.9612 32.5343 59.0327 32.6066C59.1041 32.6789 59.1607 32.7648 59.1992 32.8594C59.2376 32.954 59.2571 33.0554 59.2565 33.1576C59.2571 33.2599 59.2376 33.3612 59.1992 33.4558C59.1607 33.5504 59.1041 33.6363 59.0327 33.7086C58.9612 33.7809 58.8762 33.8382 58.7827 33.877C58.6892 33.9159 58.589 33.9356 58.4879 33.9351C58.3865 33.9362 58.2858 33.9169 58.1918 33.8783C58.0979 33.8396 58.0124 33.7825 57.9405 33.7101C57.8685 33.6378 57.8116 33.5517 57.7729 33.4568C57.7342 33.3619 57.7146 33.2602 57.7151 33.1576H57.7235ZM53.6285 33.1576C53.6279 33.0557 53.6473 32.9547 53.6855 32.8604C53.7236 32.7661 53.7799 32.6804 53.8509 32.6081C53.9219 32.5359 54.0064 32.4785 54.0994 32.4394C54.1924 32.4003 54.2922 32.3801 54.3929 32.3801C54.494 32.3796 54.5942 32.3993 54.6877 32.4382C54.7812 32.477 54.8662 32.5343 54.9376 32.6066C55.0091 32.6789 55.0657 32.7648 55.1041 32.8594C55.1426 32.954 55.1621 33.0554 55.1615 33.1576C55.1621 33.2599 55.1426 33.3612 55.1041 33.4558C55.0657 33.5504 55.0091 33.6363 54.9376 33.7086C54.8662 33.7809 54.7812 33.8382 54.6877 33.877C54.5942 33.9159 54.494 33.9356 54.3929 33.9351C54.2915 33.9362 54.1908 33.9169 54.0968 33.8783C54.0028 33.8396 53.9174 33.7825 53.8455 33.7101C53.7735 33.6378 53.7166 33.5517 53.6779 33.4568C53.6392 33.3619 53.6195 33.2602 53.6201 33.1576H53.6285ZM49.5335 33.1576C49.5329 33.0557 49.5523 32.9547 49.5905 32.8604C49.6286 32.7661 49.6848 32.6804 49.7559 32.6081C49.8269 32.5359 49.9114 32.4785 50.0044 32.4394C50.0974 32.4003 50.1971 32.3801 50.2979 32.3801C50.5017 32.3801 50.6972 32.4621 50.8414 32.6079C50.9855 32.7537 51.0665 32.9514 51.0665 33.1576C51.0665 33.2597 51.0466 33.3608 51.008 33.4551C50.9694 33.5495 50.9127 33.6352 50.8414 33.7074C50.77 33.7796 50.6853 33.8368 50.592 33.8759C50.4988 33.9149 50.3988 33.9351 50.2979 33.9351C50.1964 33.9362 50.0958 33.9169 50.0018 33.8783C49.9078 33.8396 49.8224 33.7825 49.7504 33.7101C49.6785 33.6378 49.6215 33.5517 49.5828 33.4568C49.5441 33.3619 49.5245 33.2602 49.5251 33.1576H49.5335ZM45.4342 33.1576C45.4342 32.9514 45.5152 32.7537 45.6594 32.6079C45.8035 32.4621 45.999 32.3801 46.2029 32.3801C46.4067 32.3801 46.6022 32.4621 46.7463 32.6079C46.8905 32.7537 46.9715 32.9514 46.9715 33.1576C46.9715 33.2597 46.9516 33.3608 46.913 33.4551C46.8743 33.5495 46.8177 33.6352 46.7463 33.7074C46.675 33.7796 46.5902 33.8368 46.497 33.8759C46.4037 33.9149 46.3038 33.9351 46.2029 33.9351C46.1012 33.9362 46.0004 33.9169 45.9061 33.8783C45.8119 33.8398 45.7262 33.7827 45.6539 33.7104C45.5817 33.6381 45.5243 33.552 45.4851 33.4571C45.446 33.3622 45.4258 33.2604 45.4258 33.1576H45.4342ZM41.3392 33.1576C41.3392 32.9514 41.4202 32.7537 41.5643 32.6079C41.7085 32.4621 41.904 32.3801 42.1078 32.3801C42.3117 32.3801 42.5072 32.4621 42.6513 32.6079C42.7955 32.7537 42.8764 32.9514 42.8764 33.1576C42.8764 33.2597 42.8566 33.3608 42.8179 33.4551C42.7793 33.5495 42.7227 33.6352 42.6513 33.7074C42.5799 33.7796 42.4952 33.8368 42.402 33.8759C42.3087 33.9149 42.2088 33.9351 42.1078 33.9351C42.0062 33.9362 41.9053 33.9169 41.8111 33.8783C41.7169 33.8398 41.6312 33.7827 41.5589 33.7104C41.4866 33.6381 41.4293 33.552 41.3901 33.4571C41.351 33.3622 41.3308 33.2604 41.3308 33.1576H41.3392ZM37.2442 33.1576C37.2442 32.9514 37.3252 32.7537 37.4693 32.6079C37.6135 32.4621 37.809 32.3801 38.0128 32.3801C38.2166 32.3801 38.4121 32.4621 38.5563 32.6079C38.7004 32.7537 38.7814 32.9514 38.7814 33.1576C38.7814 33.2597 38.7615 33.3608 38.7229 33.4551C38.6843 33.5495 38.6277 33.6352 38.5563 33.7074C38.4849 33.7796 38.4002 33.8368 38.3069 33.8759C38.2137 33.9149 38.1137 33.9351 38.0128 33.9351C37.9112 33.9362 37.8103 33.9169 37.7161 33.8783C37.6219 33.8398 37.5361 33.7827 37.4639 33.7104C37.3916 33.6381 37.3342 33.552 37.2951 33.4571C37.2559 33.3622 37.2358 33.2604 37.2358 33.1576H37.2442ZM33.1492 33.1576C33.1492 32.9514 33.2301 32.7537 33.3743 32.6079C33.5184 32.4621 33.7139 32.3801 33.9178 32.3801C34.1216 32.3801 34.3171 32.4621 34.4613 32.6079C34.6054 32.7537 34.6864 32.9514 34.6864 33.1576C34.6864 33.2597 34.6665 33.3608 34.6279 33.4551C34.5892 33.5495 34.5326 33.6352 34.4613 33.7074C34.3899 33.7796 34.3052 33.8368 34.2119 33.8759C34.1187 33.9149 34.0187 33.9351 33.9178 33.9351C33.8161 33.9362 33.7153 33.9169 33.6211 33.8783C33.5268 33.8398 33.4411 33.7827 33.3688 33.7104C33.2966 33.6381 33.2392 33.552 33.2001 33.4571C33.1609 33.3622 33.1408 33.2604 33.1408 33.1576H33.1492ZM29.0541 33.1576C29.0541 32.9514 29.1351 32.7537 29.2793 32.6079C29.4234 32.4621 29.6189 32.3801 29.8227 32.3801C30.0266 32.3801 30.2221 32.4621 30.3662 32.6079C30.5104 32.7537 30.5914 32.9514 30.5914 33.1576C30.5914 33.2597 30.5715 33.3608 30.5328 33.4551C30.4942 33.5495 30.4376 33.6352 30.3662 33.7074C30.2949 33.7796 30.2101 33.8368 30.1169 33.8759C30.0236 33.9149 29.9237 33.9351 29.8227 33.9351C29.7211 33.9362 29.6203 33.9169 29.526 33.8783C29.4318 33.8398 29.3461 33.7827 29.2738 33.7104C29.2016 33.6381 29.1442 33.552 29.105 33.4571C29.0659 33.3622 29.0457 33.2604 29.0457 33.1576H29.0541ZM24.9591 33.1576C24.9591 33.0555 24.979 32.9544 25.0176 32.8601C25.0562 32.7658 25.1129 32.6801 25.1842 32.6079C25.2556 32.5357 25.3403 32.4784 25.4336 32.4393C25.5268 32.4003 25.6268 32.3801 25.7277 32.3801C25.9316 32.3801 26.1271 32.4621 26.2712 32.6079C26.4153 32.7537 26.4963 32.9514 26.4963 33.1576C26.4963 33.2597 26.4764 33.3608 26.4378 33.4551C26.3992 33.5495 26.3426 33.6352 26.2712 33.7074C26.1998 33.7796 26.1151 33.8368 26.0219 33.8759C25.9286 33.9149 25.8287 33.9351 25.7277 33.9351C25.6261 33.9362 25.5252 33.9169 25.431 33.8783C25.3368 33.8398 25.2511 33.7827 25.1788 33.7104C25.1065 33.6381 25.0492 33.552 25.01 33.4571C24.9709 33.3622 24.9507 33.2604 24.9507 33.1576H24.9591ZM20.8641 33.1576C20.8641 32.9514 20.9451 32.7537 21.0892 32.6079C21.2334 32.4621 21.4288 32.3801 21.6327 32.3801C21.8365 32.3801 22.032 32.4621 22.1762 32.6079C22.3203 32.7537 22.4013 32.9514 22.4013 33.1576C22.4013 33.2597 22.3814 33.3608 22.3428 33.4551C22.3042 33.5495 22.2476 33.6352 22.1762 33.7074C22.1048 33.7796 22.0201 33.8368 21.9268 33.8759C21.8336 33.9149 21.7336 33.9351 21.6327 33.9351C21.5311 33.9362 21.4302 33.9169 21.336 33.8783C21.2418 33.8398 21.156 33.7827 21.0838 33.7104C21.0115 33.6381 20.9541 33.552 20.915 33.4571C20.8758 33.3622 20.8557 33.2604 20.8557 33.1576H20.8641ZM16.7691 33.1576C16.7691 32.9514 16.85 32.7537 16.9942 32.6079C17.1383 32.4621 17.3338 32.3801 17.5377 32.3801C17.6386 32.3801 17.7386 32.4003 17.8318 32.4393C17.9251 32.4784 18.0098 32.5357 18.0812 32.6079C18.1525 32.6801 18.2091 32.7658 18.2478 32.8601C18.2864 32.9544 18.3063 33.0555 18.3063 33.1576C18.3063 33.2597 18.2864 33.3608 18.2478 33.4551C18.2091 33.5495 18.1525 33.6352 18.0812 33.7074C18.0098 33.7796 17.9251 33.8368 17.8318 33.8759C17.7386 33.9149 17.6386 33.9351 17.5377 33.9351C17.436 33.9362 17.3352 33.9169 17.241 33.8783C17.1467 33.8398 17.061 33.7827 16.9887 33.7104C16.9165 33.6381 16.8591 33.552 16.82 33.4571C16.7808 33.3622 16.7607 33.2604 16.7607 33.1576H16.7691ZM12.674 33.1576C12.674 32.9514 12.755 32.7537 12.8992 32.6079C13.0433 32.4621 13.2388 32.3801 13.4426 32.3801C13.6465 32.3801 13.842 32.4621 13.9861 32.6079C14.1303 32.7537 14.2112 32.9514 14.2112 33.1576C14.2112 33.2597 14.1914 33.3608 14.1527 33.4551C14.1141 33.5495 14.0575 33.6352 13.9861 33.7074C13.9148 33.7796 13.83 33.8368 13.7368 33.8759C13.6435 33.9149 13.5436 33.9351 13.4426 33.9351C13.341 33.9362 13.2402 33.9169 13.1459 33.8783C13.0517 33.8398 12.966 33.7827 12.8937 33.7104C12.8215 33.6381 12.7641 33.552 12.7249 33.4571C12.6858 33.3622 12.6656 33.2604 12.6656 33.1576H12.674ZM8.57901 33.1576C8.57901 32.9514 8.65999 32.7537 8.80413 32.6079C8.94827 32.4621 9.14377 32.3801 9.34762 32.3801C9.55146 32.3801 9.74696 32.4621 9.8911 32.6079C10.0352 32.7537 10.1162 32.9514 10.1162 33.1576C10.1162 33.2597 10.0963 33.3608 10.0577 33.4551C10.0191 33.5495 9.96247 33.6352 9.8911 33.7074C9.81973 33.7796 9.735 33.8368 9.64175 33.8759C9.5485 33.9149 9.44855 33.9351 9.34762 33.9351C9.24598 33.9362 9.14513 33.9169 9.05091 33.8783C8.95668 33.8398 8.87096 33.7827 8.79869 33.7104C8.72643 33.6381 8.66906 33.552 8.62991 33.4571C8.59076 33.3622 8.57061 33.2604 8.57061 33.1576H8.57901ZM4.48398 33.1576C4.48398 32.9514 4.56496 32.7537 4.7091 32.6079C4.85325 32.4621 5.04874 32.3801 5.25259 32.3801C5.45644 32.3801 5.65194 32.4621 5.79608 32.6079C5.94022 32.7537 6.0212 32.9514 6.0212 33.1576C6.0212 33.2597 6.00131 33.3608 5.96269 33.4551C5.92406 33.5495 5.86745 33.6352 5.79608 33.7074C5.7247 33.7796 5.63997 33.8368 5.54672 33.8759C5.45347 33.9149 5.35352 33.9351 5.25259 33.9351C5.15095 33.9362 5.0501 33.9169 4.95588 33.8783C4.86166 33.8398 4.77593 33.7827 4.70367 33.7104C4.6314 33.6381 4.57404 33.552 4.53489 33.4571C4.49574 33.3622 4.47558 33.2604 4.47559 33.1576H4.48398Z" fill="white"/>
</g>
<defs>
<clipPath id="clip0_590_185">
<rect width="83" height="73" fill="white" transform="translate(0.201172 0.300781)"/>
</clipPath>
</defs>
</svg>
