<svg width="40" height="14" viewBox="0 0 40 14" fill="none" xmlns="http://www.w3.org/2000/svg">
<g id="logos:visa" clip-path="url(#clip0_302_12402)">
<path id="Vector" d="M20.687 4.63932C20.6642 6.44303 22.2906 7.44952 23.5158 8.04799C24.7745 8.66196 25.1973 9.05572 25.1923 9.60485C25.183 10.4452 24.1883 10.816 23.2575 10.8305C21.6336 10.8557 20.6894 10.391 19.9388 10.0395L19.3538 12.7834C20.1069 13.1313 21.5014 13.4347 22.9475 13.448C26.342 13.448 28.5628 11.7683 28.5748 9.16411C28.5881 5.85897 24.0142 5.67603 24.0455 4.19873C24.0563 3.75078 24.4827 3.27276 25.417 3.15122C25.8795 3.08982 27.1562 3.04283 28.6037 3.711L29.1719 1.05618C28.3934 0.772059 27.393 0.499999 26.1473 0.499999C22.9523 0.499999 20.7052 2.20253 20.687 4.63932ZM34.6309 0.728674C34.0111 0.728674 33.4888 1.09111 33.2556 1.64729L28.4067 13.253H31.7987L32.4738 11.383H36.6188L37.0103 13.253H40L37.3911 0.728674H34.6309ZM35.1055 4.11196L36.0844 8.81499H33.4034L35.1055 4.11196ZM16.5744 0.72883L13.9006 13.2528H17.133L19.8055 0.728518H16.5744M11.7927 0.728518L8.42828 9.25323L7.06734 2.00502C6.90766 1.19589 6.27703 0.728674 5.57672 0.728674H0.0770312L0 1.09236C1.12906 1.33795 2.41188 1.73406 3.18906 2.15789C3.66469 2.41679 3.80031 2.64312 3.95656 3.25835L6.53422 13.253H9.95L15.1869 0.728674L11.7927 0.728518Z" fill="url(#paint0_linear_302_12402)"/>
</g>
<defs>
<linearGradient id="paint0_linear_302_12402" x1="1838.96" y1="39.4217" x2="1876.53" y2="-1290.35" gradientUnits="userSpaceOnUse">
<stop stop-color="#222357"/>
<stop offset="1" stop-color="#254AA5"/>
</linearGradient>
<clipPath id="clip0_302_12402">
<rect width="40" height="13" fill="white" transform="translate(0 0.5)"/>
</clipPath>
</defs>
</svg>
