<svg width="34" height="27" viewBox="0 0 34 27" fill="none" xmlns="http://www.w3.org/2000/svg">
<g id="logos:mastercard" clip-path="url(#clip0_302_12406)">
<path id="Vector" d="M6.17966 26.3706V24.6498C6.17966 23.99 5.77139 23.5599 5.0716 23.5599C4.72177 23.5599 4.34273 23.6746 4.08029 24.0475C3.87629 23.732 3.58477 23.5599 3.14741 23.5599C2.85576 23.5599 2.56437 23.6459 2.33102 23.9614V23.6173H1.71875V26.3706H2.33102V24.8505C2.33102 24.363 2.59345 24.1335 3.00172 24.1335C3.40972 24.1335 3.61398 24.3916 3.61398 24.8505V26.3706H4.22625V24.8505C4.22625 24.363 4.51764 24.1335 4.89669 24.1335C5.30495 24.1335 5.50895 24.3916 5.50895 24.8505V26.3706H6.17966ZM15.2469 23.6173H14.2557V22.7855H13.6435V23.6173H13.0895V24.1621H13.6433V25.4242C13.6433 26.0552 13.9058 26.428 14.6055 26.428C14.868 26.428 15.1594 26.342 15.3636 26.2273L15.1886 25.711C15.0137 25.8257 14.8097 25.8544 14.6639 25.8544C14.3723 25.8544 14.2557 25.6824 14.2557 25.3954V24.1621H15.2469V23.6173ZM20.4367 23.5598C20.0869 23.5598 19.8536 23.732 19.7078 23.9614V23.6173H19.0955V26.3706H19.7078V24.8219C19.7078 24.363 19.9118 24.1049 20.2909 24.1049C20.4075 24.1049 20.5533 24.1336 20.6699 24.1622L20.8448 23.5886C20.7282 23.5599 20.5533 23.5599 20.4367 23.5599V23.5598ZM12.5938 23.8467C12.3022 23.6459 11.894 23.5599 11.4567 23.5599C10.757 23.5599 10.2906 23.904 10.2906 24.449C10.2906 24.908 10.6404 25.166 11.2527 25.2521L11.5442 25.2809C11.865 25.3381 12.0399 25.4242 12.0399 25.5676C12.0399 25.7683 11.8067 25.9118 11.3984 25.9118C10.9903 25.9118 10.6695 25.7683 10.4654 25.625L10.1739 26.0839C10.4946 26.3133 10.932 26.428 11.3692 26.428C12.1856 26.428 12.6521 26.0552 12.6521 25.5389C12.6521 25.0513 12.2731 24.7931 11.6899 24.7072L11.3984 24.6784C11.136 24.6497 10.932 24.5924 10.932 24.4204C10.932 24.2196 11.136 24.1049 11.4567 24.1049C11.8067 24.1049 12.1565 24.2482 12.3314 24.3343L12.5938 23.8467ZM28.8627 23.5599C28.5127 23.5599 28.2795 23.732 28.1337 23.9614V23.6173H27.5214V26.3706H28.1337V24.8219C28.1337 24.363 28.3378 24.1049 28.7167 24.1049C28.8335 24.1049 28.9793 24.1336 29.0959 24.1622L29.2708 23.5886C29.1542 23.5599 28.9793 23.5599 28.8627 23.5599ZM21.0489 24.9939C21.0489 25.8257 21.632 26.428 22.5359 26.428C22.944 26.428 23.2356 26.342 23.5271 26.1126L23.2356 25.625C23.0024 25.7971 22.7691 25.883 22.5067 25.883C22.011 25.883 21.6612 25.5389 21.6612 24.9939C21.6612 24.4777 22.011 24.1335 22.5067 24.1049C22.7691 24.1049 23.0024 24.1908 23.2356 24.363L23.5271 23.8754C23.2356 23.6459 22.944 23.5599 22.5359 23.5599C21.632 23.5599 21.0489 24.1622 21.0489 24.9939ZM26.7052 24.9939V23.6173H26.0929V23.9614C25.8888 23.7034 25.5972 23.5599 25.2182 23.5599C24.431 23.5599 23.8188 24.1622 23.8188 24.9939C23.8188 25.8257 24.431 26.428 25.2182 26.428C25.6263 26.428 25.918 26.2847 26.0929 26.0265V26.3706H26.7052V24.9939ZM24.4601 24.9939C24.4601 24.5063 24.7808 24.1049 25.3056 24.1049C25.8012 24.1049 26.1512 24.4777 26.1512 24.9939C26.1512 25.4815 25.8012 25.883 25.3056 25.883C24.7808 25.8543 24.4601 25.4815 24.4601 24.9939ZM17.1421 23.5599C16.3257 23.5599 15.7426 24.1335 15.7426 24.9939C15.7426 25.8544 16.3256 26.428 17.1712 26.428C17.5794 26.428 17.9876 26.3133 18.3084 26.0552L18.0167 25.625C17.7835 25.7971 17.492 25.9118 17.2004 25.9118C16.8214 25.9118 16.4423 25.7397 16.3548 25.252H18.425V25.0227C18.4542 24.1335 17.9294 23.5599 17.1421 23.5599ZM17.1421 24.0761C17.521 24.0761 17.7836 24.3057 17.8418 24.7359H16.384C16.4423 24.363 16.7048 24.0761 17.1421 24.0761ZM32.3322 24.9939V22.5273H31.7199V23.9614C31.5158 23.7034 31.2242 23.5599 30.8452 23.5599C30.058 23.5599 29.4458 24.1622 29.4458 24.9939C29.4458 25.8257 30.058 26.428 30.8452 26.428C31.2535 26.428 31.545 26.2847 31.7199 26.0265V26.3706H32.3322V24.9939ZM30.0872 24.9939C30.0872 24.5063 30.4078 24.1049 30.9327 24.1049C31.4284 24.1049 31.7782 24.4777 31.7782 24.9939C31.7782 25.4815 31.4284 25.883 30.9327 25.883C30.4078 25.8543 30.0872 25.4815 30.0872 24.9939ZM9.6199 24.9939V23.6173H9.00763V23.9614C8.8035 23.7034 8.51198 23.5599 8.13293 23.5599C7.34575 23.5599 6.73348 24.1622 6.73348 24.9939C6.73348 25.8257 7.34575 26.428 8.13293 26.428C8.5412 26.428 8.83272 26.2847 9.00763 26.0265V26.3706H9.6199V24.9939ZM7.34575 24.9939C7.34575 24.5063 7.66649 24.1049 8.19123 24.1049C8.68689 24.1049 9.03685 24.4777 9.03685 24.9939C9.03685 25.4815 8.68689 25.883 8.19123 25.883C7.66649 25.8543 7.34575 25.4815 7.34575 24.9939Z" fill="black"/>
<path id="Vector_2" d="M12.3906 2.7085H21.5746V18.9423H12.3906V2.7085Z" fill="#FF5F00"/>
<path id="Vector_3" d="M12.9743 10.8254C12.9743 7.52705 14.5487 4.60147 16.9685 2.70843C15.1902 1.33174 12.9452 0.5 10.4962 0.5C4.69399 0.5 0 5.11768 0 10.8254C0 16.533 4.69399 21.1508 10.496 21.1508C12.9451 21.1508 15.19 20.3191 16.9685 18.9422C14.5487 17.0779 12.9743 14.1237 12.9743 10.8254Z" fill="#EB001B"/>
<path id="Vector_4" d="M33.9646 10.8254C33.9646 16.533 29.2706 21.1508 23.4686 21.1508C21.0195 21.1508 18.7746 20.3191 16.9961 18.9422C19.4452 17.0493 20.9904 14.1237 20.9904 10.8254C20.9904 7.52705 19.4159 4.60147 16.9961 2.70843C18.7745 1.33174 21.0195 0.5 23.4686 0.5C29.2706 0.5 33.9646 5.14642 33.9646 10.8254Z" fill="#F79E1B"/>
</g>
<defs>
<clipPath id="clip0_302_12406">
<rect width="34" height="26" fill="white" transform="translate(0 0.5)"/>
</clipPath>
</defs>
</svg>
