<svg width="26" height="33" viewBox="0 0 26 33" fill="none" xmlns="http://www.w3.org/2000/svg">
<g id="logos:paypal" clip-path="url(#clip0_302_12418)">
<path id="Vector" d="M22.0565 2.99077C20.6413 1.30791 18.0832 0.586426 14.8105 0.586426H5.31238C4.98858 0.586438 4.67541 0.70696 4.42917 0.926322C4.18292 1.14568 4.01976 1.4495 3.96901 1.78314L0.0141691 27.9518C-0.0644402 28.4679 0.318552 28.9351 0.819864 28.9351H6.68368L8.15633 19.1899L8.11063 19.495C8.21554 18.8062 8.78023 18.2981 9.44892 18.2981H12.2354C17.7094 18.2981 21.9956 15.9784 23.2477 9.26807C23.2849 9.0696 23.3171 8.87644 23.3449 8.68772C23.1869 8.60041 23.1869 8.60041 23.3449 8.68772C23.7177 6.20751 23.3424 4.51925 22.0565 2.99077Z" fill="#27346A"/>
<path id="Vector_2" d="M10.4001 7.79427C10.5604 7.71463 10.7357 7.67336 10.9132 7.67347H18.3596C19.2414 7.67347 20.0638 7.73334 20.8154 7.85954C21.0257 7.89452 21.2349 7.93629 21.4427 7.98478C21.7373 8.0526 22.0285 8.1356 22.3152 8.23347C22.6846 8.36221 23.0287 8.51215 23.345 8.68772C23.7177 6.20656 23.3424 4.51925 22.0565 2.99077C20.6405 1.30791 18.0832 0.586426 14.8105 0.586426H5.31157C4.64278 0.586426 4.07383 1.0944 3.96901 1.78314L0.0141697 27.9509C-0.0644397 28.4678 0.318552 28.9344 0.819052 28.9344H6.68368L9.73898 8.72036C9.76902 8.52167 9.84489 8.33358 9.96004 8.17225C10.0752 8.01093 10.2262 7.88122 10.4001 7.79427Z" fill="#27346A"/>
<path id="Vector_3" d="M23.2475 9.26809C21.9954 15.9775 17.7093 18.2981 12.2352 18.2981H9.4479C8.77921 18.2981 8.21442 18.8062 8.11053 19.4951L6.27844 31.6121C6.20999 32.0637 6.54474 32.473 6.98267 32.473H11.9257C12.2089 32.4729 12.4827 32.3674 12.698 32.1755C12.9133 31.9836 13.0558 31.7179 13.1001 31.4261L13.1482 31.1633L14.0799 25.0032L14.1399 24.6627C14.1841 24.371 14.3267 24.1052 14.542 23.9133C14.7572 23.7214 15.031 23.616 15.3141 23.6159H16.0539C20.8423 23.6159 24.5917 21.5863 25.6873 15.7165C26.1447 13.2635 25.908 11.2155 24.6982 9.77702C24.3313 9.34131 23.8756 8.98147 23.3447 8.68774C23.316 8.87741 23.2848 9.06962 23.2475 9.26809Z" fill="#2790C3"/>
<path id="Vector_4" d="M22.0325 8.14264C21.8373 8.08317 21.6402 8.03051 21.4416 7.98476C21.2336 7.93706 21.0244 7.89558 20.8142 7.86036C20.0619 7.73332 19.24 7.67334 18.3574 7.67334H10.912C10.7343 7.67292 10.5588 7.71455 10.3988 7.79509C10.2247 7.88177 10.0736 8.01141 9.95837 8.17278C9.84316 8.33415 9.76739 8.52238 9.73762 8.72118L8.15508 19.1898L8.10938 19.495C8.21348 18.8062 8.77816 18.2981 9.44695 18.2981H12.2342C17.7083 18.2981 21.9944 15.9784 23.2465 9.26805C23.2837 9.06958 23.315 8.87726 23.3438 8.6877C23.0267 8.51308 22.6835 8.36219 22.3139 8.2343C22.2206 8.20204 22.1269 8.17149 22.0326 8.14264" fill="#1F264F"/>
</g>
<defs>
<clipPath id="clip0_302_12418">
<rect width="26" height="32" fill="white" transform="translate(0 0.5)"/>
</clipPath>
</defs>
</svg>
